<?xml version="1.0" encoding="UTF-8" standalone="no"?>
<!DOCTYPE svg PUBLIC "-//W3C//DTD SVG 1.1//EN"
 "http://www.w3.org/Graphics/SVG/1.1/DTD/svg11.dtd">
<!-- Generated by graphviz version 2.36.0 (20140111.2315)
 -->
<!-- Title: WMF Pages: 1 -->
<svg width="342pt" height="432pt"
 viewBox="0.00 0.00 342.00 432.00" xmlns="http://www.w3.org/2000/svg" xmlns:xlink="http://www.w3.org/1999/xlink">
<g id="graph0" class="graph" transform="scale(1 1) rotate(0) translate(4 428)">
<title>WMF</title>
<polygon fill="white" stroke="none" points="-4,4 -4,-428 338,-428 338,4 -4,4"/>
<!-- the_internet -->
<g id="node1" class="node"><title>the_internet</title>
<polygon fill="none" stroke="black" points="227.537,-390.544 227.537,-405.456 194.418,-416 147.582,-416 114.463,-405.456 114.463,-390.544 147.582,-380 194.418,-380 227.537,-390.544"/>
<polygon fill="none" stroke="black" points="231.506,-387.613 231.506,-408.387 195.03,-420 146.97,-420 110.494,-408.387 110.494,-387.613 146.97,-376 195.03,-376 231.506,-387.613"/>
<polygon fill="none" stroke="black" points="235.474,-384.682 235.474,-411.318 195.642,-424 146.358,-424 106.526,-411.318 106.526,-384.682 146.358,-372 195.642,-372 235.474,-384.682"/>
<text text-anchor="middle" x="171" y="-394.3" font-family="Times,serif" font-size="14.00">the_internet</text>
</g>
<!-- ssl_terminators -->
<g id="node2" class="node"><title>ssl_terminators</title>
<polygon fill="none" stroke="black" points="260,-336 160,-336 160,-300 260,-300 260,-336"/>
<text text-anchor="middle" x="210" y="-314.3" font-family="Times,serif" font-size="14.00">ssl_terminators</text>
</g>
<!-- the_internet&#45;&gt;ssl_terminators -->
<g id="edge1" class="edge"><title>the_internet&#45;&gt;ssl_terminators</title>
<path fill="none" stroke="black" d="M183.555,-371.891C187.761,-363.478 192.463,-354.073 196.723,-345.553"/>
<polygon fill="black" stroke="black" points="199.953,-346.92 201.295,-336.411 193.692,-343.79 199.953,-346.92"/>
</g>
<!-- frontend_varnish -->
<g id="node3" class="node"><title>frontend_varnish</title>
<polygon fill="none" stroke="black" points="225.25,-264 116.75,-264 116.75,-228 225.25,-228 225.25,-264"/>
<text text-anchor="middle" x="171" y="-242.3" font-family="Times,serif" font-size="14.00">frontend_varnish</text>
</g>
<!-- the_internet&#45;&gt;frontend_varnish -->
<g id="edge2" class="edge"><title>the_internet&#45;&gt;frontend_varnish</title>
<path fill="none" stroke="black" stroke-dasharray="5,2" d="M160.792,-371.921C156.899,-361.071 152.934,-348.106 151,-336 148.476,-320.2 148.129,-315.74 151,-300 152.606,-291.196 155.597,-281.954 158.786,-273.698"/>
<polygon fill="black" stroke="black" points="162.121,-274.791 162.694,-264.212 155.649,-272.125 162.121,-274.791"/>
</g>
<!-- ssl_terminators&#45;&gt;frontend_varnish -->
<g id="edge3" class="edge"><title>ssl_terminators&#45;&gt;frontend_varnish</title>
<path fill="none" stroke="black" d="M200.36,-299.697C195.873,-291.644 190.441,-281.894 185.476,-272.982"/>
<polygon fill="black" stroke="black" points="188.454,-271.137 180.53,-264.104 182.339,-274.544 188.454,-271.137"/>
</g>
<!-- backend_varnish -->
<g id="node4" class="node"><title>backend_varnish</title>
<polygon fill="none" stroke="black" points="225,-192 117,-192 117,-156 225,-156 225,-192"/>
<text text-anchor="middle" x="171" y="-170.3" font-family="Times,serif" font-size="14.00">backend_varnish</text>
</g>
<!-- frontend_varnish&#45;&gt;backend_varnish -->
<g id="edge4" class="edge"><title>frontend_varnish&#45;&gt;backend_varnish</title>
<polygon fill="black" stroke="none" stroke-width="10" points="176,-227.697 175.768,-226.047 175.531,-224.355 175.288,-222.627 175.041,-220.866 174.789,-219.078 174.535,-217.267 174.278,-215.438 174.019,-213.595 173.759,-211.743 173.498,-209.886 173.237,-208.03 172.977,-206.179 172.718,-204.337 172.462,-202.51 172.208,-200.701 171.957,-198.916 171.71,-197.159 171.468,-195.435 171.231,-193.749 171,-192.104 171,-192.104 170.769,-193.749 170.532,-195.435 170.29,-197.159 170.043,-198.916 169.792,-200.701 169.538,-202.51 169.282,-204.337 169.023,-206.179 168.763,-208.03 168.502,-209.886 168.241,-211.743 167.981,-213.595 167.722,-215.438 167.465,-217.267 167.211,-219.078 166.959,-220.866 166.712,-222.627 166.469,-224.355 166.232,-226.047 166,-227.697 176,-227.697"/>
</g>
<!-- web -->
<g id="node5" class="node"><title>web</title>
<polygon fill="none" stroke="black" points="108,-73 108,-119 162,-119 162,-73 108,-73"/>
<text text-anchor="middle" x="135" y="-103.8" font-family="Times,serif" font-size="14.00">apache</text>
<polyline fill="none" stroke="black" points="108,-96 162,-96 "/>
<text text-anchor="middle" x="135" y="-80.8" font-family="Times,serif" font-size="14.00">hhvm</text>
</g>
<!-- backend_varnish&#45;&gt;web -->
<g id="edge5" class="edge"><title>backend_varnish&#45;&gt;web</title>
<path fill="none" stroke="black" d="M162.831,-155.754C158.972,-147.609 154.244,-137.627 149.788,-128.219"/>
<polygon fill="black" stroke="black" points="152.908,-126.63 145.464,-119.091 146.582,-129.627 152.908,-126.63"/>
</g>
<!-- api -->
<g id="node6" class="node"><title>api</title>
<polygon fill="none" stroke="black" points="180,-73 180,-119 234,-119 234,-73 180,-73"/>
<text text-anchor="middle" x="207" y="-103.8" font-family="Times,serif" font-size="14.00">apache</text>
<polyline fill="none" stroke="black" points="180,-96 234,-96 "/>
<text text-anchor="middle" x="207" y="-80.8" font-family="Times,serif" font-size="14.00">hhvm</text>
</g>
<!-- backend_varnish&#45;&gt;api -->
<g id="edge6" class="edge"><title>backend_varnish&#45;&gt;api</title>
<path fill="none" stroke="black" d="M179.169,-155.754C183.028,-147.609 187.756,-137.627 192.212,-128.219"/>
<polygon fill="black" stroke="black" points="195.418,-129.627 196.536,-119.091 189.092,-126.63 195.418,-129.627"/>
</g>
<!-- mysql -->
<g id="node7" class="node"><title>mysql</title>
<polygon fill="none" stroke="black" points="248,-36 194,-36 194,-0 248,-0 248,-36"/>
<text text-anchor="middle" x="221" y="-14.3" font-family="Times,serif" font-size="14.00">mysql</text>
</g>
<!-- web&#45;&gt;mysql -->
<g id="edge7" class="edge"><title>web&#45;&gt;mysql</title>
<path fill="none" stroke="black" d="M160.338,-72.6086C170.943,-63.2364 183.283,-52.3311 194.054,-42.8126"/>
<polygon fill="black" stroke="black" points="196.397,-45.4131 201.573,-36.1684 191.762,-40.1678 196.397,-45.4131"/>
</g>
<!-- redis -->
<g id="node8" class="node"><title>redis</title>
<polygon fill="none" stroke="black" points="54,-36 0,-36 0,-0 54,-0 54,-36"/>
<text text-anchor="middle" x="27" y="-14.3" font-family="Times,serif" font-size="14.00">redis</text>
</g>
<!-- web&#45;&gt;redis -->
<g id="edge8" class="edge"><title>web&#45;&gt;redis</title>
<path fill="none" stroke="black" d="M107.747,-75.822C93.0896,-65.5075 74.9147,-52.7178 59.5217,-41.8856"/>
<polygon fill="black" stroke="black" points="61.4885,-38.99 51.2962,-36.0973 57.46,-44.7146 61.4885,-38.99"/>
</g>
<!-- elasticsearch -->
<g id="node9" class="node"><title>elasticsearch</title>
<polygon fill="none" stroke="black" points="158,-36 72,-36 72,-0 158,-0 158,-36"/>
<text text-anchor="middle" x="115" y="-14.3" font-family="Times,serif" font-size="14.00">elasticsearch</text>
</g>
<!-- web&#45;&gt;elasticsearch -->
<g id="edge9" class="edge"><title>web&#45;&gt;elasticsearch</title>
<path fill="none" stroke="black" d="M129.108,-72.6086C126.921,-64.3003 124.418,-54.7871 122.132,-46.1033"/>
<polygon fill="black" stroke="black" points="125.512,-45.1921 119.582,-36.4121 118.742,-46.9736 125.512,-45.1921"/>
</g>
<!-- swift -->
<g id="node10" class="node"><title>swift</title>
<polygon fill="none" stroke="black" points="320,-36 266,-36 266,-0 320,-0 320,-36"/>
<text text-anchor="middle" x="293" y="-14.3" font-family="Times,serif" font-size="14.00">swift</text>
</g>
<!-- web&#45;&gt;swift -->
<g id="edge10" class="edge"><title>web&#45;&gt;swift</title>
<path fill="none" stroke="black" d="M162.228,-76.9199C165.149,-75.1872 168.109,-73.5141 171,-72 205.125,-54.1263 217.412,-52.9356 256.567,-36.0539"/>
<polygon fill="black" stroke="black" points="258.185,-39.1662 265.933,-31.9404 255.37,-32.7571 258.185,-39.1662"/>
</g>
<!-- api&#45;&gt;mysql -->
<g id="edge11" class="edge"><title>api&#45;&gt;mysql</title>
<path fill="none" stroke="black" d="M211.125,-72.6086C212.639,-64.3906 214.37,-54.9938 215.955,-46.3868"/>
<polygon fill="black" stroke="black" points="219.423,-46.8807 217.793,-36.4121 212.539,-45.6125 219.423,-46.8807"/>
</g>
<!-- api&#45;&gt;redis -->
<g id="edge12" class="edge"><title>api&#45;&gt;redis</title>
<path fill="none" stroke="black" d="M179.884,-76.6957C176.942,-75.0067 173.945,-73.4051 171,-72 128.01,-51.4906 111.865,-54.3851 63.7399,-36.0231"/>
<polygon fill="black" stroke="black" points="64.9552,-32.7401 54.368,-32.3367 62.3928,-39.2543 64.9552,-32.7401"/>
</g>
<!-- api&#45;&gt;elasticsearch -->
<g id="edge13" class="edge"><title>api&#45;&gt;elasticsearch</title>
<path fill="none" stroke="black" d="M179.895,-72.6086C168.549,-63.2364 155.348,-52.3311 143.826,-42.8126"/>
<polygon fill="black" stroke="black" points="145.722,-39.8389 135.783,-36.1684 141.263,-45.2357 145.722,-39.8389"/>
</g>
<!-- api&#45;&gt;swift -->
<g id="edge14" class="edge"><title>api&#45;&gt;swift</title>
<path fill="none" stroke="black" d="M232.338,-72.6086C242.943,-63.2364 255.283,-52.3311 266.054,-42.8126"/>
<polygon fill="black" stroke="black" points="268.397,-45.4131 273.573,-36.1684 263.762,-40.1678 268.397,-45.4131"/>
</g>
<!-- elasticsearch&#45;&gt;elasticsearch -->
<g id="edge15" class="edge"><title>elasticsearch&#45;&gt;elasticsearch</title>
<polygon fill="black" stroke="none" stroke-width="10" points="158.672,-37.3264 160.276,-36.9676 161.929,-36.5376 163.532,-36.0481 165.083,-35.4979 166.579,-34.8862 168.015,-34.2116 169.387,-33.4725 170.692,-32.6673 171.923,-31.7943 173.074,-30.8519 174.14,-29.8389 175.11,-28.755 175.978,-27.6013 176.734,-26.3805 177.368,-25.097 177.873,-23.7577 178.241,-22.3703 178.47,-20.9433 178.557,-19.4848 178.503,-18 178.313,-16.538 177.997,-15.1474 177.56,-13.832 177.006,-12.5967 176.344,-11.4455 175.582,-10.3808 174.729,-9.40342 173.793,-8.51251 172.781,-7.70608 171.701,-6.98136 170.557,-6.33524 169.354,-5.7646 168.096,-5.26652 166.787,-4.83841 165.43,-4.478 164.028,-4.18336 162.585,-3.95283 161.103,-3.78503 159.586,-3.67876 158.036,-3.63297 158.036,-3.63297 159.541,-3.97906 160.99,-4.37464 162.38,-4.81868 163.705,-5.30997 164.962,-5.84713 166.147,-6.4285 167.254,-7.05216 168.28,-7.71583 169.221,-8.41692 170.074,-9.1525 170.836,-9.91948 171.504,-10.7147 172.078,-11.5355 172.558,-12.3797 172.944,-13.2466 173.239,-14.137 173.442,-15.0533 173.554,-15.9995 173.573,-16.9805 173.497,-18 173.329,-18.9968 173.081,-19.9098 172.76,-20.7444 172.372,-21.5086 171.92,-22.2108 171.406,-22.859 170.829,-23.4598 170.186,-24.0177 169.477,-24.5356 168.701,-25.0143 167.855,-25.4535 166.942,-25.8523 165.963,-26.2088 164.919,-26.5215 163.814,-26.7887 162.65,-27.0087 161.432,-27.1804 160.164,-27.3027 158.85,-27.3746 157.4,-27.4077 158.672,-37.3264"/>
</g>
<!-- jobrunner -->
<g id="node11" class="node"><title>jobrunner</title>
<polygon fill="none" stroke="black" points="89.25,-114 20.75,-114 20.75,-78 89.25,-78 89.25,-114"/>
<text text-anchor="middle" x="55" y="-92.3" font-family="Times,serif" font-size="14.00">jobrunner</text>
</g>
<!-- jobrunner&#45;&gt;mysql -->
<g id="edge16" class="edge"><title>jobrunner&#45;&gt;mysql</title>
<path fill="none" stroke="#8800cc" d="M87.0423,-77.8482C91.0433,-75.8258 95.099,-73.832 99,-72 133.869,-55.6248 145.516,-53.1463 184.578,-36.0762"/>
<polygon fill="#8800cc" stroke="#8800cc" points="186.202,-39.185 193.933,-31.9404 183.372,-32.7827 186.202,-39.185"/>
</g>
<!-- jobrunner&#45;&gt;redis -->
<g id="edge17" class="edge"><title>jobrunner&#45;&gt;redis</title>
<path fill="none" stroke="#8800cc" d="M48.6464,-77.7544C45.1738,-68.3289 40.7958,-56.4458 36.8872,-45.8368"/>
<polygon fill="#8800cc" stroke="#8800cc" points="40.0698,-44.3508 33.3285,-36.1773 33.5014,-46.7708 40.0698,-44.3508"/>
</g>
<!-- jobrunner&#45;&gt;elasticsearch -->
<g id="edge18" class="edge"><title>jobrunner&#45;&gt;elasticsearch</title>
<path fill="none" stroke="#8800cc" d="M68.6149,-77.7544C76.4397,-67.843 86.4098,-55.2142 95.0999,-44.2068"/>
<polygon fill="#8800cc" stroke="#8800cc" points="97.9896,-46.1949 101.439,-36.1773 92.4954,-41.8574 97.9896,-46.1949"/>
</g>
<!-- imagescaler -->
<g id="node12" class="node"><title>imagescaler</title>
<polygon fill="none" stroke="black" points="334,-114 252,-114 252,-78 334,-78 334,-114"/>
<text text-anchor="middle" x="293" y="-92.3" font-family="Times,serif" font-size="14.00">imagescaler</text>
</g>
<!-- imagescaler&#45;&gt;mysql -->
<g id="edge19" class="edge"><title>imagescaler&#45;&gt;mysql</title>
<path fill="none" stroke="#8800cc" d="M276.662,-77.7544C267.088,-67.6487 254.838,-54.718 244.269,-43.5613"/>
<polygon fill="#8800cc" stroke="#8800cc" points="246.692,-41.0298 237.273,-36.1773 241.61,-45.844 246.692,-41.0298"/>
</g>
<!-- imagescaler&#45;&gt;swift -->
<g id="edge20" class="edge"><title>imagescaler&#45;&gt;swift</title>
<path fill="none" stroke="#8800cc" d="M293,-77.7544C293,-68.5232 293,-56.9348 293,-46.4946"/>
<polygon fill="#8800cc" stroke="#8800cc" points="296.5,-46.1773 293,-36.1773 289.5,-46.1774 296.5,-46.1773"/>
</g>
</g>
</svg>
