<?xml version="1.0" encoding="UTF-8" standalone="no"?>
<!DOCTYPE svg PUBLIC "-//W3C//DTD SVG 1.1//EN"
 "http://www.w3.org/Graphics/SVG/1.1/DTD/svg11.dtd">
<!-- Generated by graphviz version 2.36.0 (20140111.2315)
 -->
<!-- Title: WMF Pages: 1 -->
<svg width="542pt" height="576pt"
 viewBox="0.00 0.00 541.85 576.00" xmlns="http://www.w3.org/2000/svg" xmlns:xlink="http://www.w3.org/1999/xlink">
<g id="graph0" class="graph" transform="scale(1 1) rotate(0) translate(4 572)">
<title>WMF</title>
<polygon fill="white" stroke="none" points="-4,4 -4,-572 537.852,-572 537.852,4 -4,4"/>
<!-- the_internet -->
<g id="node1" class="node"><title>the_internet</title>
<polygon fill="none" stroke="black" points="365.537,-534.544 365.537,-549.456 332.418,-560 285.582,-560 252.463,-549.456 252.463,-534.544 285.582,-524 332.418,-524 365.537,-534.544"/>
<polygon fill="none" stroke="black" points="369.506,-531.613 369.506,-552.387 333.03,-564 284.97,-564 248.494,-552.387 248.494,-531.613 284.97,-520 333.03,-520 369.506,-531.613"/>
<polygon fill="none" stroke="black" points="373.474,-528.682 373.474,-555.318 333.642,-568 284.358,-568 244.526,-555.318 244.526,-528.682 284.358,-516 333.642,-516 373.474,-528.682"/>
<text text-anchor="middle" x="309" y="-538.3" font-family="Times,serif" font-size="14.00">the_internet</text>
</g>
<!-- ssl_terminators -->
<g id="node2" class="node"><title>ssl_terminators</title>
<polygon fill="none" stroke="black" points="398,-480 298,-480 298,-444 398,-444 398,-480"/>
<text text-anchor="middle" x="348" y="-458.3" font-family="Times,serif" font-size="14.00">ssl_terminators</text>
</g>
<!-- the_internet&#45;&gt;ssl_terminators -->
<g id="edge1" class="edge"><title>the_internet&#45;&gt;ssl_terminators</title>
<path fill="none" stroke="black" d="M321.555,-515.891C325.761,-507.478 330.463,-498.073 334.723,-489.553"/>
<polygon fill="black" stroke="black" points="337.953,-490.92 339.295,-480.411 331.692,-487.79 337.953,-490.92"/>
</g>
<!-- frontend_varnish -->
<g id="node3" class="node"><title>frontend_varnish</title>
<polygon fill="none" stroke="black" points="363.25,-408 254.75,-408 254.75,-372 363.25,-372 363.25,-408"/>
<text text-anchor="middle" x="309" y="-386.3" font-family="Times,serif" font-size="14.00">frontend_varnish</text>
</g>
<!-- the_internet&#45;&gt;frontend_varnish -->
<g id="edge2" class="edge"><title>the_internet&#45;&gt;frontend_varnish</title>
<path fill="none" stroke="black" stroke-dasharray="5,2" d="M298.792,-515.921C294.899,-505.071 290.934,-492.106 289,-480 286.476,-464.2 286.129,-459.74 289,-444 290.606,-435.196 293.597,-425.954 296.786,-417.698"/>
<polygon fill="black" stroke="black" points="300.121,-418.791 300.694,-408.212 293.649,-416.125 300.121,-418.791"/>
</g>
<!-- ssl_terminators&#45;&gt;frontend_varnish -->
<g id="edge3" class="edge"><title>ssl_terminators&#45;&gt;frontend_varnish</title>
<path fill="none" stroke="black" d="M338.36,-443.697C333.873,-435.644 328.441,-425.894 323.476,-416.982"/>
<polygon fill="black" stroke="black" points="326.454,-415.137 318.53,-408.104 320.339,-418.544 326.454,-415.137"/>
</g>
<!-- backend_varnish -->
<g id="node4" class="node"><title>backend_varnish</title>
<polygon fill="none" stroke="black" points="363,-336 255,-336 255,-300 363,-300 363,-336"/>
<text text-anchor="middle" x="309" y="-314.3" font-family="Times,serif" font-size="14.00">backend_varnish</text>
</g>
<!-- frontend_varnish&#45;&gt;backend_varnish -->
<g id="edge4" class="edge"><title>frontend_varnish&#45;&gt;backend_varnish</title>
<polygon fill="black" stroke="none" stroke-width="10" points="314,-371.697 313.768,-370.047 313.531,-368.355 313.288,-366.627 313.041,-364.866 312.789,-363.078 312.535,-361.267 312.278,-359.438 312.019,-357.595 311.759,-355.743 311.498,-353.886 311.237,-352.03 310.977,-350.179 310.718,-348.337 310.462,-346.51 310.208,-344.701 309.957,-342.916 309.71,-341.159 309.468,-339.435 309.231,-337.749 309,-336.104 309,-336.104 308.769,-337.749 308.532,-339.435 308.29,-341.159 308.043,-342.916 307.792,-344.701 307.538,-346.51 307.282,-348.337 307.023,-350.179 306.763,-352.03 306.502,-353.886 306.241,-355.743 305.981,-357.595 305.722,-359.438 305.465,-361.267 305.211,-363.078 304.959,-364.866 304.712,-366.627 304.469,-368.355 304.232,-370.047 304,-371.697 314,-371.697"/>
</g>
<!-- web -->
<g id="node5" class="node"><title>web</title>
<polygon fill="none" stroke="black" points="208.5,-217 208.5,-263 301.5,-263 301.5,-217 208.5,-217"/>
<text text-anchor="middle" x="228" y="-236.3" font-family="Times,serif" font-size="14.00">web</text>
<polyline fill="none" stroke="black" points="247.5,-217 247.5,-263 "/>
<text text-anchor="middle" x="274.5" y="-247.8" font-family="Times,serif" font-size="14.00">apache</text>
<polyline fill="none" stroke="black" points="247.5,-240 301.5,-240 "/>
<text text-anchor="middle" x="274.5" y="-224.8" font-family="Times,serif" font-size="14.00">hhvm</text>
</g>
<!-- backend_varnish&#45;&gt;web -->
<g id="edge5" class="edge"><title>backend_varnish&#45;&gt;web</title>
<path fill="none" stroke="black" d="M296.747,-299.754C290.778,-291.354 283.422,-281.001 276.556,-271.339"/>
<polygon fill="black" stroke="black" points="279.341,-269.215 270.696,-263.091 273.635,-273.27 279.341,-269.215"/>
</g>
<!-- api -->
<g id="node6" class="node"><title>api</title>
<polygon fill="none" stroke="black" points="319.5,-217 319.5,-263 406.5,-263 406.5,-217 319.5,-217"/>
<text text-anchor="middle" x="336" y="-236.3" font-family="Times,serif" font-size="14.00">api</text>
<polyline fill="none" stroke="black" points="352.5,-217 352.5,-263 "/>
<text text-anchor="middle" x="379.5" y="-247.8" font-family="Times,serif" font-size="14.00">apache</text>
<polyline fill="none" stroke="black" points="352.5,-240 406.5,-240 "/>
<text text-anchor="middle" x="379.5" y="-224.8" font-family="Times,serif" font-size="14.00">hhvm</text>
</g>
<!-- backend_varnish&#45;&gt;api -->
<g id="edge6" class="edge"><title>backend_varnish&#45;&gt;api</title>
<path fill="none" stroke="black" d="M321.253,-299.754C327.222,-291.354 334.578,-281.001 341.444,-271.339"/>
<polygon fill="black" stroke="black" points="344.365,-273.27 347.304,-263.091 338.659,-269.215 344.365,-273.27"/>
</g>
<!-- mysql_master -->
<g id="node7" class="node"><title>mysql_master</title>
<polygon fill="none" stroke="black" points="446,-180 352,-180 352,-144 446,-144 446,-180"/>
<text text-anchor="middle" x="399" y="-158.3" font-family="Times,serif" font-size="14.00">mysql_master</text>
</g>
<!-- web&#45;&gt;mysql_master -->
<g id="edge7" class="edge"><title>web&#45;&gt;mysql_master</title>
<path fill="none" stroke="black" d="M297.038,-216.813C316.157,-206.723 338.707,-194.821 357.733,-184.78"/>
<polygon fill="black" stroke="black" points="359.549,-187.779 366.759,-180.016 356.282,-181.588 359.549,-187.779"/>
</g>
<!-- mysql_slave -->
<g id="node8" class="node"><title>mysql_slave</title>
<polygon fill="none" stroke="black" points="432.25,-108 347.75,-108 347.75,-72 432.25,-72 432.25,-108"/>
<text text-anchor="middle" x="390" y="-86.3" font-family="Times,serif" font-size="14.00">mysql_slave</text>
</g>
<!-- web&#45;&gt;mysql_slave -->
<g id="edge8" class="edge"><title>web&#45;&gt;mysql_slave</title>
<path fill="none" stroke="black" d="M212.039,-216.915C181.194,-198.129 148.406,-170.117 169,-144 189.569,-117.914 278.698,-103.214 337.293,-96.208"/>
<polygon fill="black" stroke="black" points="337.964,-99.6538 347.496,-95.0284 337.16,-92.7001 337.964,-99.6538"/>
</g>
<!-- redis -->
<g id="node9" class="node"><title>redis</title>
<polygon fill="none" stroke="black" points="334,-180 280,-180 280,-144 334,-144 334,-180"/>
<text text-anchor="middle" x="307" y="-158.3" font-family="Times,serif" font-size="14.00">redis</text>
</g>
<!-- web&#45;&gt;redis -->
<g id="edge9" class="edge"><title>web&#45;&gt;redis</title>
<path fill="none" stroke="black" d="M270.32,-216.609C276.314,-207.849 283.224,-197.75 289.419,-188.695"/>
<polygon fill="black" stroke="black" points="292.328,-190.642 295.086,-180.412 286.551,-186.689 292.328,-190.642"/>
</g>
<!-- elasticsearch -->
<g id="node10" class="node"><title>elasticsearch</title>
<polygon fill="none" stroke="black" points="86,-180 0,-180 0,-144 86,-144 86,-180"/>
<text text-anchor="middle" x="43" y="-158.3" font-family="Times,serif" font-size="14.00">elasticsearch</text>
</g>
<!-- web&#45;&gt;elasticsearch -->
<g id="edge10" class="edge"><title>web&#45;&gt;elasticsearch</title>
<path fill="none" stroke="black" d="M208.476,-222.321C175.164,-210.379 130.265,-194.284 95.6409,-181.871"/>
<polygon fill="black" stroke="black" points="96.7604,-178.555 86.1659,-178.475 94.3982,-185.144 96.7604,-178.555"/>
</g>
<!-- swift -->
<g id="node11" class="node"><title>swift</title>
<polygon fill="none" stroke="black" points="518,-180 464,-180 464,-144 518,-144 518,-180"/>
<text text-anchor="middle" x="491" y="-158.3" font-family="Times,serif" font-size="14.00">swift</text>
</g>
<!-- web&#45;&gt;swift -->
<g id="edge11" class="edge"><title>web&#45;&gt;swift</title>
<path fill="none" stroke="black" d="M301.623,-218.933C304.442,-217.898 307.249,-216.911 310,-216 370.081,-196.109 390.535,-201.676 454.029,-179.972"/>
<polygon fill="black" stroke="black" points="455.446,-183.184 463.719,-176.566 453.124,-176.581 455.446,-183.184"/>
</g>
<!-- memcached -->
<g id="node12" class="node"><title>memcached</title>
<polygon fill="none" stroke="black" points="261.25,-180 178.75,-180 178.75,-144 261.25,-144 261.25,-180"/>
<text text-anchor="middle" x="220" y="-158.3" font-family="Times,serif" font-size="14.00">memcached</text>
</g>
<!-- web&#45;&gt;memcached -->
<g id="edge17" class="edge"><title>web&#45;&gt;memcached</title>
<polygon fill="black" stroke="none" stroke-width="10" points="249.23,-214.517 248.204,-212.868 247.16,-211.189 246.1,-209.485 245.027,-207.76 243.943,-206.017 242.851,-204.261 241.753,-202.495 240.651,-200.723 239.547,-198.949 238.445,-197.177 237.347,-195.411 236.254,-193.654 235.17,-191.911 234.097,-190.185 233.037,-188.481 231.992,-186.801 230.966,-185.151 229.96,-183.533 228.977,-181.952 228.019,-180.412 228.019,-180.412 228.566,-182.141 229.129,-183.916 229.704,-185.732 230.291,-187.585 230.888,-189.47 231.494,-191.384 232.108,-193.321 232.728,-195.278 233.352,-197.25 233.98,-199.233 234.611,-201.223 235.241,-203.214 235.871,-205.203 236.499,-207.186 237.124,-209.158 237.744,-211.114 238.357,-213.051 238.963,-214.964 239.56,-216.848 240.147,-218.7 249.23,-214.517"/>
</g>
<!-- api&#45;&gt;mysql_master -->
<g id="edge12" class="edge"><title>api&#45;&gt;mysql_master</title>
<path fill="none" stroke="black" d="M373.606,-216.609C377.628,-208.12 382.244,-198.373 386.429,-189.538"/>
<polygon fill="black" stroke="black" points="389.634,-190.948 390.752,-180.412 383.308,-187.951 389.634,-190.948"/>
</g>
<!-- api&#45;&gt;mysql_slave -->
<g id="edge13" class="edge"><title>api&#45;&gt;mysql_slave</title>
<path fill="none" stroke="black" d="M406.844,-236.612C445.596,-231.904 500.027,-218.369 527,-180 536.202,-166.911 536.045,-157.198 527,-144 508.088,-116.407 472.589,-103.175 442.465,-96.833"/>
<polygon fill="black" stroke="black" points="442.965,-93.3654 432.487,-94.9354 441.657,-100.242 442.965,-93.3654"/>
</g>
<!-- api&#45;&gt;redis -->
<g id="edge14" class="edge"><title>api&#45;&gt;redis</title>
<path fill="none" stroke="black" d="M346.501,-216.609C340.046,-207.849 332.605,-197.75 325.933,-188.695"/>
<polygon fill="black" stroke="black" points="328.58,-186.386 319.83,-180.412 322.944,-190.539 328.58,-186.386"/>
</g>
<!-- api&#45;&gt;elasticsearch -->
<g id="edge15" class="edge"><title>api&#45;&gt;elasticsearch</title>
<path fill="none" stroke="black" d="M319.315,-219.186C316.19,-218.034 313.064,-216.957 310,-216 237.532,-193.369 150.874,-178.27 96.3716,-170.162"/>
<polygon fill="black" stroke="black" points="96.6481,-166.666 86.2469,-168.682 95.6352,-173.592 96.6481,-166.666"/>
</g>
<!-- api&#45;&gt;swift -->
<g id="edge16" class="edge"><title>api&#45;&gt;swift</title>
<path fill="none" stroke="black" d="M400.367,-216.813C417.71,-206.516 438.229,-194.333 455.354,-184.165"/>
<polygon fill="black" stroke="black" points="457.153,-187.167 463.964,-179.052 453.579,-181.148 457.153,-187.167"/>
</g>
<!-- api&#45;&gt;memcached -->
<g id="edge18" class="edge"><title>api&#45;&gt;memcached</title>
<polygon fill="black" stroke="none" stroke-width="10" points="323.601,-212.398 320.14,-210.833 316.616,-209.239 313.038,-207.62 309.413,-205.98 305.75,-204.323 302.059,-202.653 298.346,-200.974 294.621,-199.289 290.891,-197.602 287.167,-195.917 283.455,-194.237 279.764,-192.568 276.103,-190.912 272.48,-189.273 268.904,-187.655 265.383,-186.062 261.925,-184.498 258.539,-182.966 255.234,-181.471 252.017,-180.016 252.017,-180.016 255.023,-181.868 258.111,-183.771 261.275,-185.72 264.506,-187.711 267.797,-189.738 271.138,-191.797 274.524,-193.883 277.945,-195.991 281.393,-198.115 284.862,-200.253 288.343,-202.397 291.828,-204.544 295.309,-206.689 298.778,-208.826 302.228,-210.952 305.65,-213.06 309.037,-215.147 312.381,-217.207 315.674,-219.236 318.908,-221.229 323.601,-212.398"/>
</g>
<!-- mysql_master&#45;&gt;mysql_slave -->
<g id="edge27" class="edge"><title>mysql_master&#45;&gt;mysql_slave</title>
<path fill="none" stroke="#880000" d="M396.775,-143.697C395.783,-135.983 394.592,-126.712 393.486,-118.112"/>
<polygon fill="#880000" stroke="#880000" points="396.946,-117.576 392.199,-108.104 390.003,-118.469 396.946,-117.576"/>
</g>
<!-- jobrunner -->
<g id="node13" class="node"><title>jobrunner</title>
<polygon fill="none" stroke="black" points="334.25,-36 265.75,-36 265.75,-0 334.25,-0 334.25,-36"/>
<text text-anchor="middle" x="300" y="-14.3" font-family="Times,serif" font-size="14.00">jobrunner</text>
</g>
<!-- mysql_master&#45;&gt;jobrunner -->
<g id="edge20" class="edge"><title>mysql_master&#45;&gt;jobrunner</title>
<path fill="none" stroke="#8800cc" d="M366.427,-137.389C356.374,-128.95 345.886,-118.827 338,-108 321.679,-85.5921 310.611,-55.097 304.804,-36.2482"/>
<polygon fill="#8800cc" stroke="#8800cc" points="364.359,-140.217 374.338,-143.776 368.757,-134.771 364.359,-140.217"/>
</g>
<!-- imagescaler -->
<g id="node14" class="node"><title>imagescaler</title>
<polygon fill="none" stroke="black" points="502,-36 420,-36 420,-0 502,-0 502,-36"/>
<text text-anchor="middle" x="461" y="-14.3" font-family="Times,serif" font-size="14.00">imagescaler</text>
</g>
<!-- mysql_master&#45;&gt;imagescaler -->
<g id="edge24" class="edge"><title>mysql_master&#45;&gt;imagescaler</title>
<path fill="none" stroke="#8800cc" d="M422.675,-135.885C429.465,-127.541 436.294,-117.852 441,-108 452.194,-84.5637 457.253,-54.6295 459.445,-36.1412"/>
<polygon fill="#8800cc" stroke="#8800cc" points="419.805,-133.856 415.98,-143.736 425.132,-138.398 419.805,-133.856"/>
</g>
<!-- mysql_slave&#45;&gt;jobrunner -->
<g id="edge21" class="edge"><title>mysql_slave&#45;&gt;jobrunner</title>
<path fill="none" stroke="#8800cc" d="M359.541,-65.3094C347.227,-55.7323 333.286,-44.8894 321.991,-36.1043"/>
<polygon fill="#8800cc" stroke="#8800cc" points="357.71,-68.3199 367.753,-71.6966 362.008,-62.7944 357.71,-68.3199"/>
</g>
<!-- mysql_slave&#45;&gt;imagescaler -->
<g id="edge25" class="edge"><title>mysql_slave&#45;&gt;imagescaler</title>
<path fill="none" stroke="#8800cc" d="M414.873,-64.4775C424.376,-55.1084 434.998,-44.636 443.651,-36.1043"/>
<polygon fill="#8800cc" stroke="#8800cc" points="412.214,-62.1835 407.551,-71.6966 417.129,-67.1682 412.214,-62.1835"/>
</g>
<!-- redis&#45;&gt;jobrunner -->
<g id="edge22" class="edge"><title>redis&#45;&gt;jobrunner</title>
<path fill="none" stroke="#8800cc" d="M305.653,-133.679C304.234,-104.888 302.042,-60.4244 300.847,-36.1893"/>
<polygon fill="#8800cc" stroke="#8800cc" points="302.167,-134.056 306.156,-143.871 309.159,-133.711 302.167,-134.056"/>
</g>
<!-- elasticsearch&#45;&gt;elasticsearch -->
<g id="edge19" class="edge"><title>elasticsearch&#45;&gt;elasticsearch</title>
<polygon fill="black" stroke="none" stroke-width="10" points="86.3317,-173.622 87.8928,-173.342 89.4532,-173.036 90.966,-172.71 92.4283,-172.361 93.8372,-171.991 95.1902,-171.599 96.4849,-171.184 97.7192,-170.747 98.8912,-170.284 99.9994,-169.795 101.043,-169.276 102.02,-168.723 102.931,-168.129 103.772,-167.483 104.54,-166.775 105.222,-165.987 105.796,-165.107 106.228,-164.131 106.476,-163.081 106.512,-162 106.337,-160.947 105.966,-159.977 105.435,-159.124 104.785,-158.398 104.048,-157.787 103.241,-157.274 102.373,-156.841 101.445,-156.473 100.458,-156.162 99.4123,-155.9 98.3082,-155.683 97.1466,-155.506 95.929,-155.368 94.6573,-155.267 93.3338,-155.202 91.961,-155.17 90.5417,-155.172 89.079,-155.206 87.5761,-155.272 86.0361,-155.369 86.0361,-155.369 87.5503,-155.647 89.0139,-155.945 90.4227,-156.261 91.7723,-156.596 93.0583,-156.948 94.2762,-157.317 95.4209,-157.702 96.4873,-158.1 97.4699,-158.511 98.3627,-158.931 99.159,-159.357 99.8519,-159.786 100.434,-160.208 100.899,-160.616 101.24,-160.994 101.46,-161.326 101.566,-161.592 101.585,-161.783 101.55,-161.908 101.488,-162 101.41,-162.064 101.323,-162.109 101.205,-162.177 101.023,-162.29 100.749,-162.444 100.368,-162.627 99.8762,-162.823 99.2766,-163.018 98.5743,-163.204 97.7755,-163.374 96.8869,-163.522 95.9147,-163.647 94.865,-163.745 93.7433,-163.816 92.5549,-163.859 91.305,-163.873 89.9983,-163.857 88.6397,-163.813 87.2337,-163.739 85.7405,-163.64 86.3317,-173.622"/>
</g>
<!-- elasticsearch&#45;&gt;elasticsearch -->
<g id="edge28" class="edge"><title>elasticsearch&#45;&gt;elasticsearch</title>
<polygon fill="#880000" stroke="none" stroke-width="10" points="85.812,-180.283 88.7605,-180.262 91.7253,-180.158 94.626,-179.968 97.4532,-179.693 100.198,-179.331 102.851,-178.884 105.404,-178.35 107.848,-177.728 110.174,-177.017 112.374,-176.214 114.441,-175.315 116.364,-174.315 118.133,-173.206 119.737,-171.981 121.157,-170.628 122.371,-169.139 123.345,-167.513 124.044,-165.763 124.438,-163.914 124.509,-162 124.263,-160.116 123.714,-158.354 122.888,-156.739 121.82,-155.287 120.542,-154 119.083,-152.867 117.462,-151.876 115.693,-151.015 113.785,-150.273 111.747,-149.643 109.586,-149.119 107.312,-148.696 104.931,-148.372 102.453,-148.145 99.8872,-148.011 97.2422,-147.97 94.5278,-148.021 91.754,-148.162 88.9307,-148.392 86.0681,-148.711 86.0681,-148.711 88.9433,-148.735 91.7585,-148.842 94.503,-149.031 97.1656,-149.3 99.735,-149.648 102.2,-150.075 104.548,-150.578 106.768,-151.156 108.847,-151.806 110.772,-152.525 112.531,-153.309 114.109,-154.153 115.495,-155.048 116.678,-155.984 117.648,-156.949 118.406,-157.929 118.957,-158.917 119.314,-159.912 119.491,-160.932 119.491,-162 119.316,-163.039 118.984,-163.971 118.5,-164.83 117.855,-165.644 117.033,-166.424 116.024,-167.169 114.824,-167.87 113.439,-168.518 111.875,-169.103 110.145,-169.618 108.259,-170.059 106.232,-170.42 104.075,-170.7 101.802,-170.897 99.4244,-171.01 96.9546,-171.037 94.4049,-170.98 91.7872,-170.838 89.1135,-170.611 86.3242,-170.296 85.812,-180.283"/>
</g>
<!-- elasticsearch&#45;&gt;jobrunner -->
<g id="edge23" class="edge"><title>elasticsearch&#45;&gt;jobrunner</title>
<path fill="none" stroke="#8800cc" d="M82.8256,-138.995C134.125,-110.651 222.226,-61.9724 268.89,-36.1893"/>
<polygon fill="#8800cc" stroke="#8800cc" points="81.0603,-135.972 74.0002,-143.871 84.4457,-142.099 81.0603,-135.972"/>
</g>
<!-- swift&#45;&gt;imagescaler -->
<g id="edge26" class="edge"><title>swift&#45;&gt;imagescaler</title>
<path fill="none" stroke="#8800cc" d="M486.673,-133.682C483.731,-116.015 479.556,-92.5625 475,-72 472.323,-59.9209 468.755,-46.4423 465.891,-36.1005"/>
<polygon fill="#8800cc" stroke="#8800cc" points="483.269,-134.553 488.338,-143.857 490.177,-133.423 483.269,-134.553"/>
</g>
</g>
</svg>
