<?xml version="1.0" encoding="UTF-8" standalone="no"?>
<!DOCTYPE svg PUBLIC "-//W3C//DTD SVG 1.1//EN"
 "http://www.w3.org/Graphics/SVG/1.1/DTD/svg11.dtd">
<!-- Generated by graphviz version 2.36.0 (20140111.2315)
 -->
<!-- Title: WMF Pages: 1 -->
<svg width="492pt" height="626pt"
 viewBox="0.00 0.00 492.00 626.42" xmlns="http://www.w3.org/2000/svg" xmlns:xlink="http://www.w3.org/1999/xlink">
<g id="graph0" class="graph" transform="scale(1 1) rotate(0) translate(4 622.419)">
<title>WMF</title>
<polygon fill="white" stroke="none" points="-4,4 -4,-622.419 488,-622.419 488,4 -4,4"/>
<!-- the_internet -->
<g id="node1" class="node"><title>the_internet</title>
<polygon fill="none" stroke="black" points="447.537,-584.963 447.537,-599.875 414.418,-610.419 367.582,-610.419 334.463,-599.875 334.463,-584.963 367.582,-574.419 414.418,-574.419 447.537,-584.963"/>
<polygon fill="none" stroke="black" points="451.506,-582.032 451.506,-602.806 415.03,-614.419 366.97,-614.419 330.494,-602.806 330.494,-582.032 366.97,-570.419 415.03,-570.419 451.506,-582.032"/>
<polygon fill="none" stroke="black" points="455.474,-579.101 455.474,-605.737 415.642,-618.419 366.358,-618.419 326.526,-605.737 326.526,-579.101 366.358,-566.419 415.642,-566.419 455.474,-579.101"/>
<text text-anchor="middle" x="391" y="-588.719" font-family="Times,serif" font-size="14.00">the_internet</text>
</g>
<!-- ssl_terminators -->
<g id="node2" class="node"><title>ssl_terminators</title>
<polygon fill="none" stroke="black" points="480,-530.419 380,-530.419 380,-494.419 480,-494.419 480,-530.419"/>
<text text-anchor="middle" x="430" y="-508.719" font-family="Times,serif" font-size="14.00">ssl_terminators</text>
</g>
<!-- the_internet&#45;&gt;ssl_terminators -->
<g id="edge1" class="edge"><title>the_internet&#45;&gt;ssl_terminators</title>
<path fill="none" stroke="black" d="M403.555,-566.31C407.761,-557.897 412.463,-548.492 416.723,-539.973"/>
<polygon fill="black" stroke="black" points="419.953,-541.339 421.295,-530.83 413.692,-538.209 419.953,-541.339"/>
</g>
<!-- frontend_varnish -->
<g id="node3" class="node"><title>frontend_varnish</title>
<polygon fill="none" stroke="black" points="445.25,-458.419 336.75,-458.419 336.75,-422.419 445.25,-422.419 445.25,-458.419"/>
<text text-anchor="middle" x="391" y="-436.719" font-family="Times,serif" font-size="14.00">frontend_varnish</text>
</g>
<!-- the_internet&#45;&gt;frontend_varnish -->
<g id="edge2" class="edge"><title>the_internet&#45;&gt;frontend_varnish</title>
<path fill="none" stroke="black" stroke-dasharray="5,2" d="M380.792,-566.341C376.899,-555.49 372.934,-542.525 371,-530.419 368.476,-514.619 368.129,-510.159 371,-494.419 372.606,-485.615 375.597,-476.373 378.786,-468.117"/>
<polygon fill="black" stroke="black" points="382.121,-469.21 382.694,-458.631 375.649,-466.544 382.121,-469.21"/>
</g>
<!-- ssl_terminators&#45;&gt;frontend_varnish -->
<g id="edge3" class="edge"><title>ssl_terminators&#45;&gt;frontend_varnish</title>
<path fill="none" stroke="black" d="M420.36,-494.116C415.873,-486.063 410.441,-476.314 405.476,-467.402"/>
<polygon fill="black" stroke="black" points="408.454,-465.556 400.53,-458.523 402.339,-468.963 408.454,-465.556"/>
</g>
<!-- backend_varnish -->
<g id="node4" class="node"><title>backend_varnish</title>
<polygon fill="none" stroke="black" points="445,-386.419 337,-386.419 337,-350.419 445,-350.419 445,-386.419"/>
<text text-anchor="middle" x="391" y="-364.719" font-family="Times,serif" font-size="14.00">backend_varnish</text>
</g>
<!-- frontend_varnish&#45;&gt;backend_varnish -->
<g id="edge4" class="edge"><title>frontend_varnish&#45;&gt;backend_varnish</title>
<polygon fill="black" stroke="none" stroke-width="10" points="396,-422.116 395.768,-420.466 395.531,-418.774 395.288,-417.046 395.041,-415.286 394.789,-413.497 394.535,-411.686 394.278,-409.857 394.019,-408.014 393.759,-406.162 393.498,-404.305 393.237,-402.449 392.977,-400.598 392.718,-398.756 392.462,-396.929 392.208,-395.12 391.957,-393.335 391.71,-391.578 391.468,-389.854 391.231,-388.168 391,-386.523 391,-386.523 390.769,-388.168 390.532,-389.854 390.29,-391.578 390.043,-393.335 389.792,-395.12 389.538,-396.929 389.282,-398.756 389.023,-400.598 388.763,-402.449 388.502,-404.305 388.241,-406.162 387.981,-408.014 387.722,-409.857 387.465,-411.686 387.211,-413.497 386.959,-415.286 386.712,-417.046 386.469,-418.774 386.232,-420.466 386,-422.116 396,-422.116"/>
</g>
<!-- web -->
<g id="node5" class="node"><title>web</title>
<polygon fill="none" stroke="black" points="272.5,-267.419 272.5,-313.419 365.5,-313.419 365.5,-267.419 272.5,-267.419"/>
<text text-anchor="middle" x="292" y="-286.719" font-family="Times,serif" font-size="14.00">web</text>
<polyline fill="none" stroke="black" points="311.5,-267.419 311.5,-313.419 "/>
<text text-anchor="middle" x="338.5" y="-298.219" font-family="Times,serif" font-size="14.00">apache</text>
<polyline fill="none" stroke="black" points="311.5,-290.419 365.5,-290.419 "/>
<text text-anchor="middle" x="338.5" y="-275.219" font-family="Times,serif" font-size="14.00">hhvm</text>
</g>
<!-- backend_varnish&#45;&gt;web -->
<g id="edge5" class="edge"><title>backend_varnish&#45;&gt;web:apache:n</title>
<path fill="none" stroke="black" d="M361.053,-350.387C352.203,-343.54 343.977,-334.783 340.608,-324.402"/>
<polygon fill="black" stroke="black" points="344.046,-323.735 339,-314.419 337.135,-324.848 344.046,-323.735"/>
</g>
<!-- api -->
<g id="node6" class="node"><title>api</title>
<polygon fill="none" stroke="black" points="383.5,-267.419 383.5,-313.419 470.5,-313.419 470.5,-267.419 383.5,-267.419"/>
<text text-anchor="middle" x="400" y="-286.719" font-family="Times,serif" font-size="14.00">api</text>
<polyline fill="none" stroke="black" points="416.5,-267.419 416.5,-313.419 "/>
<text text-anchor="middle" x="443.5" y="-298.219" font-family="Times,serif" font-size="14.00">apache</text>
<polyline fill="none" stroke="black" points="416.5,-290.419 470.5,-290.419 "/>
<text text-anchor="middle" x="443.5" y="-275.219" font-family="Times,serif" font-size="14.00">hhvm</text>
</g>
<!-- backend_varnish&#45;&gt;api -->
<g id="edge6" class="edge"><title>backend_varnish&#45;&gt;api:apache:n</title>
<path fill="none" stroke="black" d="M421.83,-350.282C430.757,-343.471 439.01,-334.763 442.389,-324.397"/>
<polygon fill="black" stroke="black" points="445.861,-324.849 444,-314.419 438.95,-323.733 445.861,-324.849"/>
</g>
<!-- web_service_collector -->
<g id="node7" class="node"><title>web_service_collector</title>
<ellipse fill="black" stroke="black" cx="319" cy="-229.419" rx="0" ry="0"/>
</g>
<!-- web&#45;&gt;web_service_collector -->
<g id="edge7" class="edge"><title>web:hhvm:s&#45;&gt;web_service_collector</title>
<path fill="none" stroke="black" d="M339,-266.419C339,-255.476 331.85,-244.749 326.101,-237.892"/>
<polygon fill="black" stroke="black" points="328.48,-235.315 319.057,-230.47 323.402,-240.133 328.48,-235.315"/>
</g>
<!-- memcached -->
<g id="node13" class="node"><title>memcached</title>
<polygon fill="none" stroke="black" points="340.25,-120.419 257.75,-120.419 257.75,-84.4191 340.25,-84.4191 340.25,-120.419"/>
<text text-anchor="middle" x="299" y="-98.7191" font-family="Times,serif" font-size="14.00">memcached</text>
</g>
<!-- web&#45;&gt;memcached -->
<g id="edge15" class="edge"><title>web:hhvm:s&#45;&gt;memcached:n</title>
<polygon fill="black" stroke="none" stroke-width="10" points="343.993,-266.684 344.188,-259.611 345.041,-253.214 346.478,-247.164 348.417,-241.404 350.774,-235.887 353.462,-230.573 356.391,-225.423 359.466,-220.399 362.587,-215.464 365.653,-210.574 368.561,-205.685 371.202,-200.749 373.465,-195.718 375.228,-190.547 376.367,-185.199 376.756,-179.656 376.28,-173.912 374.844,-167.962 372.368,-161.788 368.76,-155.326 365.597,-151.159 361.979,-147.795 358.011,-145.18 353.779,-143.215 349.357,-141.797 344.809,-140.819 340.19,-140.177 335.556,-139.775 330.959,-139.518 326.457,-139.312 322.105,-139.069 317.962,-138.697 314.087,-138.11 310.537,-137.22 307.368,-135.943 304.628,-134.191 302.364,-131.867 300.626,-128.865 299.481,-125.081 299,-120.419 299,-120.419 299.253,-125.121 300.229,-129.026 301.874,-132.219 304.129,-134.773 306.921,-136.758 310.171,-138.257 313.804,-139.359 317.75,-140.156 321.942,-140.74 326.314,-141.201 330.8,-141.626 335.332,-142.104 339.842,-142.719 344.258,-143.554 348.51,-144.69 352.531,-146.201 356.258,-148.159 359.641,-150.636 362.641,-153.713 365.24,-157.512 368.271,-163.627 370.234,-169.317 371.238,-174.606 371.404,-179.568 370.838,-184.291 369.626,-188.861 367.845,-193.35 365.568,-197.812 362.878,-202.296 359.863,-206.843 356.616,-211.497 353.235,-216.306 349.818,-221.318 346.47,-226.587 343.295,-232.166 340.403,-238.109 337.909,-244.465 335.932,-251.28 334.588,-258.59 334.007,-266.154 343.993,-266.684"/>
</g>
<!-- api&#45;&gt;web_service_collector -->
<g id="edge8" class="edge"><title>api:hhvm:s&#45;&gt;web_service_collector</title>
<path fill="none" stroke="black" d="M444,-266.419C444,-242.632 359.359,-233.616 329.376,-231.168"/>
<polygon fill="black" stroke="black" points="329.317,-227.655 319.091,-230.424 328.812,-234.637 329.317,-227.655"/>
</g>
<!-- api&#45;&gt;memcached -->
<g id="edge16" class="edge"><title>api:hhvm:s&#45;&gt;memcached:n</title>
<polygon fill="black" stroke="none" stroke-width="10" points="448.999,-266.335 448.69,-258.206 448.11,-250.512 447.254,-243.293 446.114,-236.506 444.683,-230.112 442.955,-224.072 440.925,-218.35 438.589,-212.91 435.947,-207.716 433,-202.731 429.749,-197.915 426.193,-193.226 422.334,-188.619 418.169,-184.049 413.694,-179.47 408.906,-174.834 403.797,-170.094 398.361,-165.204 392.592,-160.118 386.423,-154.735 381.386,-150.958 376,-148.008 370.408,-145.827 364.676,-144.299 358.866,-143.308 353.031,-142.74 347.227,-142.486 341.504,-142.437 335.917,-142.489 330.521,-142.538 325.371,-142.481 320.524,-142.216 316.037,-141.644 311.966,-140.667 308.361,-139.187 305.269,-137.103 302.728,-134.303 300.792,-130.665 299.526,-126.072 299,-120.419 299,-120.419 299.284,-126.11 300.368,-130.823 302.201,-134.656 304.731,-137.697 307.888,-140.027 311.593,-141.738 315.772,-142.933 320.354,-143.718 325.277,-144.2 330.477,-144.481 335.89,-144.664 341.453,-144.851 347.101,-145.142 352.766,-145.634 358.382,-146.425 363.881,-147.609 369.2,-149.274 374.278,-151.51 379.063,-154.405 383.577,-158.103 389.381,-163.624 394.9,-168.927 400.073,-173.999 404.903,-178.882 409.39,-183.615 413.537,-188.24 417.345,-192.797 420.821,-197.328 423.969,-201.873 426.797,-206.477 429.313,-211.184 431.527,-216.043 433.447,-221.103 435.079,-226.416 436.428,-232.034 437.498,-238.008 438.289,-244.387 438.803,-251.218 439.04,-258.549 439.001,-266.503 448.999,-266.335"/>
</g>
<!-- mysql_master -->
<g id="node8" class="node"><title>mysql_master</title>
<polygon fill="none" stroke="black" points="238,-192.419 144,-192.419 144,-156.419 238,-156.419 238,-192.419"/>
<text text-anchor="middle" x="191" y="-170.719" font-family="Times,serif" font-size="14.00">mysql_master</text>
</g>
<!-- web_service_collector&#45;&gt;mysql_master -->
<g id="edge9" class="edge"><title>web_service_collector&#45;&gt;mysql_master:n</title>
<path fill="none" stroke="black" d="M318.907,-228.414C315.47,-228.235 217.559,-222.941 195.42,-201.465"/>
<polygon fill="black" stroke="black" points="198.535,-199.867 191,-192.419 192.245,-202.94 198.535,-199.867"/>
</g>
<!-- mysql_slave -->
<g id="node9" class="node"><title>mysql_slave</title>
<polygon fill="none" stroke="black" points="341.25,-192.419 256.75,-192.419 256.75,-156.419 341.25,-156.419 341.25,-192.419"/>
<text text-anchor="middle" x="299" y="-170.719" font-family="Times,serif" font-size="14.00">mysql_slave</text>
</g>
<!-- web_service_collector&#45;&gt;mysql_slave -->
<g id="edge10" class="edge"><title>web_service_collector&#45;&gt;mysql_slave:n</title>
<path fill="none" stroke="black" d="M318.943,-228.368C317.999,-227.519 305.661,-216.24 300.877,-202.628"/>
<polygon fill="black" stroke="black" points="304.251,-201.621 299,-192.419 297.366,-202.887 304.251,-201.621"/>
</g>
<!-- redis -->
<g id="node10" class="node"><title>redis</title>
<polygon fill="none" stroke="black" points="54,-192.419 0,-192.419 0,-156.419 54,-156.419 54,-192.419"/>
<text text-anchor="middle" x="27" y="-170.719" font-family="Times,serif" font-size="14.00">redis</text>
</g>
<!-- web_service_collector&#45;&gt;redis -->
<g id="edge11" class="edge"><title>web_service_collector&#45;&gt;redis:n</title>
<path fill="none" stroke="black" d="M318.947,-228.418C314.85,-228.37 75.3434,-225.444 33.2743,-200.318"/>
<polygon fill="black" stroke="black" points="35.9604,-198.073 27,-192.419 30.4791,-202.426 35.9604,-198.073"/>
</g>
<!-- elasticsearch -->
<g id="node11" class="node"><title>elasticsearch</title>
<polygon fill="none" stroke="black" points="448,-120.419 362,-120.419 362,-84.4191 448,-84.4191 448,-120.419"/>
<text text-anchor="middle" x="405" y="-98.7191" font-family="Times,serif" font-size="14.00">elasticsearch</text>
</g>
<!-- web_service_collector&#45;&gt;elasticsearch -->
<g id="edge12" class="edge"><title>web_service_collector&#45;&gt;elasticsearch:n</title>
<path fill="none" stroke="black" d="M319.062,-228.385C321.519,-227.039 395.819,-185.903 404.228,-130.54"/>
<polygon fill="black" stroke="black" points="407.729,-130.656 405,-120.419 400.749,-130.124 407.729,-130.656"/>
</g>
<!-- swift -->
<g id="node12" class="node"><title>swift</title>
<polygon fill="none" stroke="black" points="126,-192.419 72,-192.419 72,-156.419 126,-156.419 126,-192.419"/>
<text text-anchor="middle" x="99" y="-170.719" font-family="Times,serif" font-size="14.00">swift</text>
</g>
<!-- web_service_collector&#45;&gt;swift -->
<g id="edge13" class="edge"><title>web_service_collector&#45;&gt;swift:n</title>
<path fill="none" stroke="black" d="M318.841,-228.411C312.907,-228.103 143.162,-219.135 106.102,-199.952"/>
<polygon fill="black" stroke="black" points="108.407,-197.294 99,-192.419 103.313,-202.096 108.407,-197.294"/>
</g>
<!-- web_service_collector&#45;&gt;memcached -->
<!-- mysql_master&#45;&gt;mysql_slave -->
<g id="edge41" class="edge"><title>mysql_master&#45;&gt;mysql_slave</title>
<path fill="none" stroke="#880000" d="M238.25,-174.419C240.88,-174.419 243.51,-174.419 246.14,-174.419"/>
<polygon fill="#880000" stroke="#880000" points="246.285,-177.919 256.285,-174.419 246.285,-170.919 246.285,-177.919"/>
</g>
<!-- mysql_master&#45;&gt;memcached -->
<!-- job_service_collector -->
<g id="node14" class="node"><title>job_service_collector</title>
<ellipse fill="black" stroke="black" cx="191" cy="-102.419" rx="0" ry="0"/>
</g>
<!-- mysql_master&#45;&gt;job_service_collector -->
<!-- mysql_slave&#45;&gt;memcached -->
<!-- mysql_slave&#45;&gt;job_service_collector -->
<!-- redis&#45;&gt;memcached -->
<!-- redis&#45;&gt;job_service_collector -->
<!-- elasticsearch&#45;&gt;elasticsearch -->
<g id="edge17" class="edge"><title>elasticsearch&#45;&gt;elasticsearch</title>
<polygon fill="black" stroke="none" stroke-width="10" points="448.332,-114.041 449.893,-113.761 451.453,-113.455 452.966,-113.129 454.428,-112.78 455.837,-112.41 457.19,-112.018 458.485,-111.603 459.719,-111.166 460.891,-110.703 461.999,-110.214 463.043,-109.695 464.02,-109.142 464.931,-108.548 465.772,-107.902 466.54,-107.194 467.222,-106.406 467.796,-105.526 468.228,-104.55 468.476,-103.5 468.512,-102.419 468.337,-101.366 467.966,-100.396 467.435,-99.5429 466.785,-98.8166 466.048,-98.2061 465.241,-97.6929 464.373,-97.2596 463.445,-96.8923 462.458,-96.5811 461.412,-96.3192 460.308,-96.1018 459.147,-95.9253 457.929,-95.7875 456.657,-95.6864 455.334,-95.6207 453.961,-95.5892 452.542,-95.5909 451.079,-95.6252 449.576,-95.6911 448.036,-95.7881 448.036,-95.7881 449.55,-96.066 451.014,-96.3636 452.423,-96.6802 453.772,-97.0151 455.058,-97.3675 456.276,-97.7364 457.421,-98.1208 458.487,-98.5192 459.47,-98.9297 460.363,-99.3499 461.159,-99.7765 461.852,-100.205 462.434,-100.627 462.899,-101.035 463.24,-101.413 463.46,-101.745 463.566,-102.012 463.585,-102.202 463.55,-102.327 463.488,-102.419 463.41,-102.484 463.323,-102.528 463.205,-102.596 463.023,-102.709 462.749,-102.863 462.368,-103.046 461.876,-103.242 461.277,-103.437 460.574,-103.623 459.776,-103.793 458.887,-103.941 457.915,-104.066 456.865,-104.164 455.743,-104.235 454.555,-104.278 453.305,-104.292 451.998,-104.277 450.64,-104.232 449.234,-104.159 447.741,-104.059 448.332,-114.041"/>
</g>
<!-- elasticsearch&#45;&gt;elasticsearch -->
<g id="edge42" class="edge"><title>elasticsearch&#45;&gt;elasticsearch</title>
<polygon fill="#880000" stroke="none" stroke-width="10" points="447.812,-120.702 450.76,-120.681 453.725,-120.577 456.626,-120.387 459.453,-120.112 462.198,-119.75 464.851,-119.303 467.404,-118.769 469.848,-118.147 472.174,-117.436 474.374,-116.633 476.441,-115.734 478.364,-114.734 480.133,-113.626 481.737,-112.4 483.157,-111.047 484.371,-109.558 485.345,-107.932 486.044,-106.182 486.438,-104.333 486.509,-102.419 486.263,-100.535 485.714,-98.7734 484.888,-97.1584 483.82,-95.7066 482.542,-94.4187 481.083,-93.2858 479.462,-92.2949 477.693,-91.4337 475.785,-90.6919 473.747,-90.0619 471.586,-89.5377 469.312,-89.1153 466.931,-88.7913 464.453,-88.5636 461.887,-88.4301 459.242,-88.3893 456.528,-88.44 453.754,-88.581 450.931,-88.8113 448.068,-89.13 448.068,-89.13 450.943,-89.1544 453.759,-89.2614 456.503,-89.4498 459.166,-89.7188 461.735,-90.0673 464.2,-90.4938 466.548,-90.9969 468.768,-91.5748 470.847,-92.2249 472.772,-92.9443 474.531,-93.7285 476.109,-94.5719 477.495,-95.4668 478.678,-96.4028 479.648,-97.3677 480.406,-98.3485 480.957,-99.3361 481.314,-100.331 481.491,-101.351 481.491,-102.419 481.316,-103.458 480.984,-104.39 480.5,-105.249 479.855,-106.063 479.033,-106.843 478.024,-107.588 476.824,-108.289 475.439,-108.937 473.875,-109.522 472.145,-110.037 470.259,-110.478 468.232,-110.839 466.075,-111.119 463.802,-111.316 461.424,-111.429 458.955,-111.456 456.405,-111.399 453.787,-111.257 451.114,-111.03 448.324,-110.715 447.812,-120.702"/>
</g>
<!-- jobrunner -->
<g id="node15" class="node"><title>jobrunner</title>
<polygon fill="none" stroke="black" points="356.25,-48.4191 287.75,-48.4191 287.75,-12.4191 356.25,-12.4191 356.25,-48.4191"/>
<text text-anchor="middle" x="322" y="-26.7191" font-family="Times,serif" font-size="14.00">jobrunner</text>
</g>
<!-- elasticsearch&#45;&gt;jobrunner -->
<!-- swift&#45;&gt;memcached -->
<!-- swift&#45;&gt;job_service_collector -->
<!-- memcached&#45;&gt;jobrunner -->
<!-- imagescaler -->
<g id="node16" class="node"><title>imagescaler</title>
<polygon fill="none" stroke="black" points="269,-48.4191 187,-48.4191 187,-12.4191 269,-12.4191 269,-48.4191"/>
<text text-anchor="middle" x="228" y="-26.7191" font-family="Times,serif" font-size="14.00">imagescaler</text>
</g>
<!-- memcached&#45;&gt;imagescaler -->
<!-- job_service_collector&#45;&gt;mysql_master -->
<g id="edge34" class="edge"><title>job_service_collector:n&#45;&gt;mysql_master:s</title>
<path fill="none" stroke="#8800cc" d="M191,-103.419C191,-123.11 191,-130.456 191,-146.096"/>
<polygon fill="#8800cc" stroke="#8800cc" points="187.5,-146.419 191,-156.419 194.5,-146.419 187.5,-146.419"/>
</g>
<!-- job_service_collector&#45;&gt;mysql_slave -->
<g id="edge35" class="edge"><title>job_service_collector:n&#45;&gt;mysql_slave:s</title>
<path fill="none" stroke="#8800cc" d="M191,-103.419C191,-152.919 283.564,-110.365 297.304,-146.201"/>
<polygon fill="#8800cc" stroke="#8800cc" points="293.909,-147.127 299,-156.419 300.815,-145.981 293.909,-147.127"/>
</g>
<!-- job_service_collector&#45;&gt;redis -->
<g id="edge36" class="edge"><title>job_service_collector:n&#45;&gt;redis:s</title>
<path fill="none" stroke="#8800cc" d="M191,-103.419C191,-176.279 42.6246,-89.1822 28.1348,-146.422"/>
<polygon fill="#8800cc" stroke="#8800cc" points="24.6503,-146.088 27,-156.419 31.6056,-146.878 24.6503,-146.088"/>
</g>
<!-- job_service_collector&#45;&gt;swift -->
<g id="edge37" class="edge"><title>job_service_collector:n&#45;&gt;swift:s</title>
<path fill="none" stroke="#8800cc" d="M191,-103.419C191,-146.737 113.475,-115.423 100.756,-146.496"/>
<polygon fill="#8800cc" stroke="#8800cc" points="97.2959,-145.962 99,-156.419 104.189,-147.182 97.2959,-145.962"/>
</g>
<!-- job_service_collector&#45;&gt;jobrunner -->
<!-- job_service_collector&#45;&gt;imagescaler -->
<!-- job_es_spacer -->
<g id="node17" class="node"><title>job_es_spacer</title>
<ellipse fill="black" stroke="black" cx="169" cy="-30.4191" rx="0" ry="0"/>
</g>
<!-- job_service_collector&#45;&gt;job_es_spacer -->
<!-- jobrunner&#45;&gt;elasticsearch -->
<g id="edge38" class="edge"><title>jobrunner:n&#45;&gt;elasticsearch:s</title>
<path fill="none" stroke="#8800cc" d="M322,-48.4191C322,-84.5446 388.997,-52.3594 402.605,-74.6093"/>
<polygon fill="#8800cc" stroke="#8800cc" points="399.228,-75.5343 405,-84.4191 406.029,-73.8743 399.228,-75.5343"/>
</g>
<!-- jobrunner&#45;&gt;memcached -->
<g id="edge39" class="edge"><title>jobrunner:n&#45;&gt;memcached:s</title>
<polygon fill="#8800cc" stroke="none" stroke-width="10" points="317.01,-48.1104 317.163,-50.5117 317.077,-52.3656 316.762,-54.046 316.23,-55.6191 315.481,-57.1322 314.517,-58.6117 313.355,-60.07 312.023,-61.5156 310.559,-62.9587 309.006,-64.4145 307.411,-65.9023 305.819,-67.4451 304.279,-69.0678 302.839,-70.7955 301.551,-72.6516 300.466,-74.655 299.63,-76.8201 299.086,-79.1584 298.867,-81.6843 299,-84.4191 299,-84.4191 299.467,-81.7618 300.202,-79.4615 301.164,-77.4767 302.318,-75.7588 303.636,-74.2566 305.097,-72.9213 306.682,-71.7093 308.373,-70.5809 310.151,-69.4983 311.994,-68.4237 313.88,-67.317 315.785,-66.1348 317.685,-64.8292 319.547,-63.3477 321.332,-61.6359 322.986,-59.6434 324.443,-57.3335 325.635,-54.6908 326.503,-51.7186 326.99,-48.7277 317.01,-48.1104"/>
</g>
<!-- jobrunner&#45;&gt;job_service_collector -->
<g id="edge32" class="edge"><title>jobrunner:n&#45;&gt;job_service_collector:s</title>
<path fill="none" stroke="#8800cc" d="M322,-48.4191C322,-107.423 206.383,-46.9089 192.383,-91.44"/>
<polygon fill="#8800cc" stroke="#8800cc" points="188.906,-91.0333 191,-101.419 195.839,-91.994 188.906,-91.0333"/>
</g>
<!-- imagescaler&#45;&gt;memcached -->
<g id="edge40" class="edge"><title>imagescaler:n&#45;&gt;memcached:s</title>
<polygon fill="#8800cc" stroke="none" stroke-width="10" points="223.029,-48.9524 223.874,-54.3341 226.017,-59.2986 229.278,-63.1767 233.317,-65.9042 237.813,-67.6494 242.607,-68.66 247.629,-69.1444 252.825,-69.2627 258.13,-69.1477 263.47,-68.9189 268.758,-68.6894 273.904,-68.5692 278.812,-68.6657 283.386,-69.0832 287.528,-69.9225 291.153,-71.2819 294.189,-73.2672 296.576,-76.0136 298.224,-79.6835 299,-84.4191 299,-84.4191 298.747,-79.5577 297.448,-75.5243 295.185,-72.2509 292.079,-69.6893 288.284,-67.7643 283.942,-66.3713 279.179,-65.3983 274.112,-64.7354 268.856,-64.2768 263.53,-63.9193 258.255,-63.5624 253.159,-63.1089 248.379,-62.4679 244.065,-61.5617 240.374,-60.3401 237.451,-58.8009 235.348,-56.9815 233.959,-54.8398 233.156,-52.1011 232.971,-47.8858 223.029,-48.9524"/>
</g>
<!-- imagescaler&#45;&gt;job_service_collector -->
<g id="edge33" class="edge"><title>imagescaler:n&#45;&gt;job_service_collector:s</title>
<path fill="none" stroke="#8800cc" d="M228,-48.4191C228,-73.3314 200.175,-73.2895 192.785,-91.5734"/>
<polygon fill="#8800cc" stroke="#8800cc" points="189.34,-90.9552 191,-101.419 196.227,-92.2037 189.34,-90.9552"/>
</g>
<!-- job_memcached_spacer -->
<g id="node18" class="node"><title>job_memcached_spacer</title>
<ellipse fill="black" stroke="black" cx="474" cy="-592.419" rx="0" ry="0"/>
</g>
</g>
</svg>
