<?xml version="1.0" encoding="UTF-8" standalone="no"?>
<!DOCTYPE svg PUBLIC "-//W3C//DTD SVG 1.1//EN"
 "http://www.w3.org/Graphics/SVG/1.1/DTD/svg11.dtd">
<!-- Generated by graphviz version 2.36.0 (20140111.2315)
 -->
<!-- Title: WMF Pages: 1 -->
<svg width="592pt" height="590pt"
 viewBox="0.00 0.00 592.00 590.42" xmlns="http://www.w3.org/2000/svg" xmlns:xlink="http://www.w3.org/1999/xlink">
<g id="graph0" class="graph" transform="scale(1 1) rotate(0) translate(4 586.419)">
<title>WMF</title>
<polygon fill="white" stroke="none" points="-4,4 -4,-586.419 588,-586.419 588,4 -4,4"/>
<!-- the_internet -->
<g id="node1" class="node"><title>the_internet</title>
<polygon fill="none" stroke="black" points="335.537,-548.963 335.537,-563.875 302.418,-574.419 255.582,-574.419 222.463,-563.875 222.463,-548.963 255.582,-538.419 302.418,-538.419 335.537,-548.963"/>
<polygon fill="none" stroke="black" points="339.506,-546.032 339.506,-566.806 303.03,-578.419 254.97,-578.419 218.494,-566.806 218.494,-546.032 254.97,-534.419 303.03,-534.419 339.506,-546.032"/>
<polygon fill="none" stroke="black" points="343.474,-543.101 343.474,-569.737 303.642,-582.419 254.358,-582.419 214.526,-569.737 214.526,-543.101 254.358,-530.419 303.642,-530.419 343.474,-543.101"/>
<text text-anchor="middle" x="279" y="-552.719" font-family="Times,serif" font-size="14.00">the_internet</text>
</g>
<!-- ssl_terminators -->
<g id="node2" class="node"><title>ssl_terminators</title>
<polygon fill="none" stroke="black" points="290,-494.419 190,-494.419 190,-458.419 290,-458.419 290,-494.419"/>
<text text-anchor="middle" x="240" y="-472.719" font-family="Times,serif" font-size="14.00">ssl_terminators</text>
</g>
<!-- the_internet&#45;&gt;ssl_terminators -->
<g id="edge1" class="edge"><title>the_internet&#45;&gt;ssl_terminators</title>
<path fill="none" stroke="black" d="M266.445,-530.31C262.239,-521.897 257.537,-512.492 253.277,-503.973"/>
<polygon fill="black" stroke="black" points="256.308,-502.209 248.705,-494.83 250.047,-505.339 256.308,-502.209"/>
</g>
<!-- frontend_varnish -->
<g id="node3" class="node"><title>frontend_varnish</title>
<polygon fill="none" stroke="black" points="333.25,-422.419 224.75,-422.419 224.75,-386.419 333.25,-386.419 333.25,-422.419"/>
<text text-anchor="middle" x="279" y="-400.719" font-family="Times,serif" font-size="14.00">frontend_varnish</text>
</g>
<!-- the_internet&#45;&gt;frontend_varnish -->
<g id="edge2" class="edge"><title>the_internet&#45;&gt;frontend_varnish</title>
<path fill="none" stroke="black" stroke-dasharray="5,2" d="M289.208,-530.341C293.101,-519.49 297.066,-506.525 299,-494.419 301.524,-478.619 301.871,-474.159 299,-458.419 297.394,-449.615 294.403,-440.373 291.214,-432.117"/>
<polygon fill="black" stroke="black" points="294.351,-430.544 287.306,-422.631 287.879,-433.21 294.351,-430.544"/>
</g>
<!-- ssl_terminators&#45;&gt;frontend_varnish -->
<g id="edge3" class="edge"><title>ssl_terminators&#45;&gt;frontend_varnish</title>
<path fill="none" stroke="black" d="M249.64,-458.116C254.127,-450.063 259.559,-440.314 264.524,-431.402"/>
<polygon fill="black" stroke="black" points="267.661,-432.963 269.47,-422.523 261.546,-429.556 267.661,-432.963"/>
</g>
<!-- backend_varnish -->
<g id="node4" class="node"><title>backend_varnish</title>
<polygon fill="none" stroke="black" points="333,-350.419 225,-350.419 225,-314.419 333,-314.419 333,-350.419"/>
<text text-anchor="middle" x="279" y="-328.719" font-family="Times,serif" font-size="14.00">backend_varnish</text>
</g>
<!-- frontend_varnish&#45;&gt;backend_varnish -->
<g id="edge4" class="edge"><title>frontend_varnish&#45;&gt;backend_varnish</title>
<path fill="none" stroke="black" d="M279,-386.116C279,-378.995 279,-370.549 279,-362.527"/>
<polygon fill="black" stroke="black" points="279,-362.523 275,-356.523 279,-350.523 283,-356.523 279,-362.523"/>
</g>
<!-- web -->
<g id="node5" class="node"><title>web</title>
<polygon fill="none" stroke="black" points="160.5,-231.419 160.5,-277.419 253.5,-277.419 253.5,-231.419 160.5,-231.419"/>
<text text-anchor="middle" x="180" y="-250.719" font-family="Times,serif" font-size="14.00">web</text>
<polyline fill="none" stroke="black" points="199.5,-231.419 199.5,-277.419 "/>
<text text-anchor="middle" x="226.5" y="-262.219" font-family="Times,serif" font-size="14.00">apache</text>
<polyline fill="none" stroke="black" points="199.5,-254.419 253.5,-254.419 "/>
<text text-anchor="middle" x="226.5" y="-239.219" font-family="Times,serif" font-size="14.00">hhvm</text>
</g>
<!-- backend_varnish&#45;&gt;web -->
<g id="edge5" class="edge"><title>backend_varnish&#45;&gt;web:apache:n</title>
<path fill="none" stroke="black" d="M249.053,-314.387C240.203,-307.54 231.977,-298.783 228.608,-288.402"/>
<polygon fill="black" stroke="black" points="232.046,-287.735 227,-278.419 225.135,-288.848 232.046,-287.735"/>
</g>
<!-- api -->
<g id="node6" class="node"><title>api</title>
<polygon fill="none" stroke="black" points="271.5,-231.419 271.5,-277.419 358.5,-277.419 358.5,-231.419 271.5,-231.419"/>
<text text-anchor="middle" x="288" y="-250.719" font-family="Times,serif" font-size="14.00">api</text>
<polyline fill="none" stroke="black" points="304.5,-231.419 304.5,-277.419 "/>
<text text-anchor="middle" x="331.5" y="-262.219" font-family="Times,serif" font-size="14.00">apache</text>
<polyline fill="none" stroke="black" points="304.5,-254.419 358.5,-254.419 "/>
<text text-anchor="middle" x="331.5" y="-239.219" font-family="Times,serif" font-size="14.00">hhvm</text>
</g>
<!-- backend_varnish&#45;&gt;api -->
<g id="edge6" class="edge"><title>backend_varnish&#45;&gt;api:apache:n</title>
<path fill="none" stroke="black" d="M309.83,-314.282C318.757,-307.471 327.01,-298.763 330.389,-288.397"/>
<polygon fill="black" stroke="black" points="333.861,-288.849 332,-278.419 326.95,-287.733 333.861,-288.849"/>
</g>
<!-- web_service_collector -->
<g id="node7" class="node"><title>web_service_collector</title>
<ellipse fill="black" stroke="black" cx="279" cy="-194.419" rx="0" ry="0"/>
</g>
<!-- web&#45;&gt;web_service_collector -->
<g id="edge7" class="edge"><title>web:hhvm:s&#45;&gt;web_service_collector</title>
<path fill="none" stroke="black" d="M227,-230.419C227,-210.389 253.882,-201.069 268.989,-197.412"/>
<polygon fill="black" stroke="black" points="269.731,-200.833 278.851,-195.44 268.359,-193.969 269.731,-200.833"/>
</g>
<!-- api&#45;&gt;web_service_collector -->
<g id="edge8" class="edge"><title>api:hhvm:s&#45;&gt;web_service_collector</title>
<path fill="none" stroke="black" d="M332,-230.419C332,-210.123 304.602,-200.919 289.203,-197.349"/>
<polygon fill="black" stroke="black" points="289.63,-193.868 279.152,-195.439 288.323,-200.745 289.63,-193.868"/>
</g>
<!-- mysql_master -->
<g id="node8" class="node"><title>mysql_master</title>
<polygon fill="none" stroke="black" points="94,-158.419 -7.10543e-15,-158.419 -7.10543e-15,-122.419 94,-122.419 94,-158.419"/>
<text text-anchor="middle" x="47" y="-136.719" font-family="Times,serif" font-size="14.00">mysql_master</text>
</g>
<!-- web_service_collector&#45;&gt;mysql_master -->
<g id="edge9" class="edge"><title>web_service_collector&#45;&gt;mysql_master:n</title>
<path fill="none" stroke="black" d="M278.832,-193.413C272.548,-193.165 91.9976,-185.894 53.9828,-165.994"/>
<polygon fill="black" stroke="black" points="56.3514,-163.399 47,-158.419 51.2046,-168.144 56.3514,-163.399"/>
</g>
<!-- mysql_slave -->
<g id="node9" class="node"><title>mysql_slave</title>
<polygon fill="none" stroke="black" points="197.25,-158.419 112.75,-158.419 112.75,-122.419 197.25,-122.419 197.25,-158.419"/>
<text text-anchor="middle" x="155" y="-136.719" font-family="Times,serif" font-size="14.00">mysql_slave</text>
</g>
<!-- web_service_collector&#45;&gt;mysql_slave -->
<g id="edge10" class="edge"><title>web_service_collector&#45;&gt;mysql_slave:n</title>
<path fill="none" stroke="black" d="M278.91,-193.414C275.595,-193.238 181.563,-188.065 159.57,-167.463"/>
<polygon fill="black" stroke="black" points="162.633,-165.766 155,-158.419 156.386,-168.923 162.633,-165.766"/>
</g>
<!-- redis -->
<g id="node10" class="node"><title>redis</title>
<polygon fill="none" stroke="black" points="270,-158.419 216,-158.419 216,-122.419 270,-122.419 270,-158.419"/>
<text text-anchor="middle" x="243" y="-136.719" font-family="Times,serif" font-size="14.00">redis</text>
</g>
<!-- web_service_collector&#45;&gt;redis -->
<g id="edge11" class="edge"><title>web_service_collector&#45;&gt;redis:n</title>
<path fill="none" stroke="black" d="M278.897,-193.382C277.132,-192.742 253.233,-183.847 245.439,-168.317"/>
<polygon fill="black" stroke="black" points="248.791,-167.291 243,-158.419 241.994,-168.966 248.791,-167.291"/>
</g>
<!-- elasticsearch -->
<g id="node11" class="node"><title>elasticsearch</title>
<polygon fill="none" stroke="black" points="548,-158.419 462,-158.419 462,-122.419 548,-122.419 548,-158.419"/>
<text text-anchor="middle" x="505" y="-136.719" font-family="Times,serif" font-size="14.00">elasticsearch</text>
</g>
<!-- web_service_collector&#45;&gt;elasticsearch -->
<g id="edge12" class="edge"><title>web_service_collector&#45;&gt;elasticsearch:n</title>
<path fill="none" stroke="black" d="M279.164,-193.412C285.286,-193.147 461.166,-185.371 498.198,-165.829"/>
<polygon fill="black" stroke="black" points="500.816,-168.153 505,-158.419 495.659,-163.419 500.816,-168.153"/>
</g>
<!-- swift -->
<g id="node12" class="node"><title>swift</title>
<polygon fill="none" stroke="black" points="342,-158.419 288,-158.419 288,-122.419 342,-122.419 342,-158.419"/>
<text text-anchor="middle" x="315" y="-136.719" font-family="Times,serif" font-size="14.00">swift</text>
</g>
<!-- web_service_collector&#45;&gt;swift -->
<g id="edge13" class="edge"><title>web_service_collector&#45;&gt;swift:n</title>
<path fill="none" stroke="black" d="M279.103,-193.382C280.868,-192.742 304.767,-183.847 312.561,-168.317"/>
<polygon fill="black" stroke="black" points="316.006,-168.966 315,-158.419 309.209,-167.291 316.006,-168.966"/>
</g>
<!-- memcached -->
<g id="node13" class="node"><title>memcached</title>
<polygon fill="none" stroke="black" points="443.25,-158.419 360.75,-158.419 360.75,-122.419 443.25,-122.419 443.25,-158.419"/>
<text text-anchor="middle" x="402" y="-136.719" font-family="Times,serif" font-size="14.00">memcached</text>
</g>
<!-- web_service_collector&#45;&gt;memcached -->
<g id="edge14" class="edge"><title>web_service_collector&#45;&gt;memcached</title>
<path fill="none" stroke="black" d="M279.089,-193.381C281.126,-192.52 317.691,-177.062 350.412,-163.229"/>
<polygon fill="black" stroke="black" points="350.71,-163.103 354.678,-157.082 361.762,-158.43 357.794,-164.451 350.71,-163.103"/>
</g>
<!-- mysql_master&#45;&gt;mysql_slave -->
<g id="edge32" class="edge"><title>mysql_master&#45;&gt;mysql_slave</title>
<path fill="none" stroke="#880000" d="M94.25,-140.419C96.8801,-140.419 99.5103,-140.419 102.14,-140.419"/>
<polygon fill="#880000" stroke="#880000" points="102.285,-143.919 112.285,-140.419 102.285,-136.919 102.285,-143.919"/>
</g>
<!-- job_service_collector -->
<g id="node14" class="node"><title>job_service_collector</title>
<ellipse fill="black" stroke="black" cx="243" cy="-85.4191" rx="0" ry="0"/>
</g>
<!-- mysql_master&#45;&gt;job_service_collector -->
<!-- mysql_slave&#45;&gt;job_service_collector -->
<!-- redis&#45;&gt;job_service_collector -->
<!-- elasticsearch&#45;&gt;elasticsearch -->
<g id="edge15" class="edge"><title>elasticsearch&#45;&gt;elasticsearch</title>
<polygon fill="black" stroke="none" stroke-width="10" points="548.258,-150.387 549.81,-150.122 551.351,-149.841 552.844,-149.546 554.286,-149.237 555.675,-148.914 557.008,-148.578 558.281,-148.227 559.493,-147.863 560.642,-147.484 561.727,-147.089 562.747,-146.675 563.702,-146.241 564.593,-145.779 565.424,-145.282 566.195,-144.734 566.908,-144.113 567.549,-143.386 568.083,-142.519 568.434,-141.51 568.522,-140.419 568.325,-139.357 567.884,-138.427 567.283,-137.678 566.593,-137.094 565.845,-136.636 565.048,-136.271 564.198,-135.973 563.293,-135.73 562.329,-135.531 561.306,-135.372 560.221,-135.247 559.077,-135.156 557.875,-135.095 556.617,-135.064 555.304,-135.061 553.941,-135.086 552.529,-135.137 551.072,-135.215 549.573,-135.318 548.036,-135.446 548.036,-135.446 549.553,-135.709 551.021,-135.986 552.436,-136.276 553.793,-136.577 555.088,-136.89 556.317,-137.213 557.475,-137.546 558.557,-137.887 559.557,-138.236 560.469,-138.59 561.288,-138.947 562.004,-139.302 562.609,-139.651 563.092,-139.985 563.443,-140.288 563.652,-140.537 563.718,-140.698 563.667,-140.731 563.561,-140.622 563.478,-140.419 563.453,-140.187 563.469,-139.999 563.452,-139.915 563.337,-139.933 563.093,-140.018 562.716,-140.139 562.214,-140.272 561.595,-140.403 560.87,-140.523 560.048,-140.626 559.136,-140.709 558.141,-140.77 557.069,-140.808 555.926,-140.822 554.717,-140.812 553.447,-140.777 552.12,-140.717 550.742,-140.634 549.316,-140.527 547.814,-140.397 548.258,-150.387"/>
</g>
<!-- elasticsearch&#45;&gt;elasticsearch -->
<g id="edge33" class="edge"><title>elasticsearch&#45;&gt;elasticsearch</title>
<polygon fill="#880000" stroke="none" stroke-width="10" points="547.876,-155.382 550.805,-155.314 553.733,-155.185 556.598,-154.993 559.39,-154.739 562.099,-154.423 564.717,-154.046 567.234,-153.606 569.642,-153.105 571.932,-152.54 574.098,-151.911 576.13,-151.214 578.024,-150.446 579.772,-149.6 581.368,-148.666 582.803,-147.629 584.062,-146.467 585.116,-145.161 585.916,-143.697 586.399,-142.097 586.515,-140.419 586.262,-138.772 585.663,-137.26 584.774,-135.929 583.659,-134.785 582.361,-133.808 580.904,-132.973 579.298,-132.256 577.55,-131.643 575.666,-131.123 573.651,-130.689 571.512,-130.335 569.256,-130.06 566.891,-129.86 564.427,-129.734 561.871,-129.679 559.234,-129.696 556.525,-129.783 553.755,-129.938 550.932,-130.162 548.068,-130.452 548.068,-130.452 550.942,-130.522 553.758,-130.653 556.506,-130.844 559.174,-131.095 561.751,-131.403 564.226,-131.769 566.588,-132.191 568.824,-132.667 570.921,-133.196 572.868,-133.775 574.65,-134.402 576.252,-135.07 577.66,-135.774 578.857,-136.503 579.829,-137.241 580.567,-137.966 581.071,-138.652 581.366,-139.278 581.492,-139.852 581.485,-140.419 581.355,-140.955 581.112,-141.441 580.729,-141.935 580.164,-142.458 579.388,-142.998 578.393,-143.534 577.186,-144.045 575.778,-144.516 574.185,-144.937 572.421,-145.302 570.501,-145.605 568.438,-145.845 566.245,-146.019 563.937,-146.128 561.523,-146.17 559.018,-146.146 556.433,-146.056 553.779,-145.9 551.069,-145.678 548.26,-145.39 547.876,-155.382"/>
</g>
<!-- jobrunner -->
<g id="node15" class="node"><title>jobrunner</title>
<polygon fill="none" stroke="black" points="413.25,-48.4191 344.75,-48.4191 344.75,-12.4191 413.25,-12.4191 413.25,-48.4191"/>
<text text-anchor="middle" x="379" y="-26.7191" font-family="Times,serif" font-size="14.00">jobrunner</text>
</g>
<!-- elasticsearch&#45;&gt;jobrunner -->
<!-- swift&#45;&gt;job_service_collector -->
<!-- memcached&#45;&gt;job_service_collector -->
<!-- job_service_collector&#45;&gt;mysql_master -->
<g id="edge26" class="edge"><title>job_service_collector:n&#45;&gt;mysql_master:s</title>
<path fill="none" stroke="#8800cc" d="M243,-86.4191C243,-171.182 63.4819,-45.5556 48.0545,-112.238"/>
<polygon fill="#8800cc" stroke="#8800cc" points="44.549,-112.112 47,-122.419 51.5117,-112.833 44.549,-112.112"/>
</g>
<!-- job_service_collector&#45;&gt;mysql_slave -->
<g id="edge27" class="edge"><title>job_service_collector:n&#45;&gt;mysql_slave:s</title>
<path fill="none" stroke="#8800cc" d="M243,-86.4191C243,-124.55 171.348,-88.7716 157.354,-112.467"/>
<polygon fill="#8800cc" stroke="#8800cc" points="153.896,-111.882 155,-122.419 160.708,-113.493 153.896,-111.882"/>
</g>
<!-- job_service_collector&#45;&gt;redis -->
<g id="edge28" class="edge"><title>job_service_collector:n&#45;&gt;redis:s</title>
<path fill="none" stroke="#8800cc" d="M243,-86.4191C243,-98.4191 243,-103.669 243,-112.294"/>
<polygon fill="#8800cc" stroke="#8800cc" points="239.5,-112.419 243,-122.419 246.5,-112.419 239.5,-112.419"/>
</g>
<!-- job_service_collector&#45;&gt;swift -->
<g id="edge29" class="edge"><title>job_service_collector:n&#45;&gt;swift:s</title>
<path fill="none" stroke="#8800cc" d="M243,-86.4191C243,-118.004 299.114,-93.9954 312.265,-112.55"/>
<polygon fill="#8800cc" stroke="#8800cc" points="308.957,-113.717 315,-122.419 315.703,-111.848 308.957,-113.717"/>
</g>
<!-- job_service_collector&#45;&gt;memcached -->
<g id="edge30" class="edge"><title>job_service_collector:n&#45;&gt;memcached:s</title>
<path fill="none" stroke="#8800cc" d="M243,-86.4191C243,-154.063 381.584,-63.6286 399.99,-110.278"/>
<polygon fill="#8800cc" stroke="#8800cc" points="400.04,-110.58 404.966,-115.846 402,-122.419 397.074,-117.153 400.04,-110.58"/>
</g>
<!-- job_service_collector&#45;&gt;jobrunner -->
<!-- imagescaler -->
<g id="node16" class="node"><title>imagescaler</title>
<polygon fill="none" stroke="black" points="284,-48.4191 202,-48.4191 202,-12.4191 284,-12.4191 284,-48.4191"/>
<text text-anchor="middle" x="243" y="-26.7191" font-family="Times,serif" font-size="14.00">imagescaler</text>
</g>
<!-- job_service_collector&#45;&gt;imagescaler -->
<!-- jobrunner&#45;&gt;elasticsearch -->
<g id="edge31" class="edge"><title>jobrunner:n&#45;&gt;elasticsearch:s</title>
<path fill="none" stroke="#8800cc" d="M379,-48.4191C379,-109.557 490.667,-63.6099 503.753,-112.199"/>
<polygon fill="#8800cc" stroke="#8800cc" points="500.314,-112.917 505,-122.419 507.263,-112.069 500.314,-112.917"/>
</g>
<!-- jobrunner&#45;&gt;job_service_collector -->
<g id="edge24" class="edge"><title>jobrunner:n&#45;&gt;job_service_collector:s</title>
<path fill="none" stroke="#8800cc" d="M379,-48.4191C379,-107.037 259.469,-32.4323 244.527,-74.3977"/>
<polygon fill="#8800cc" stroke="#8800cc" points="241.047,-74.0059 243,-84.4191 247.967,-75.0606 241.047,-74.0059"/>
</g>
<!-- imagescaler&#45;&gt;job_service_collector -->
<g id="edge25" class="edge"><title>imagescaler:n&#45;&gt;job_service_collector:s</title>
<path fill="none" stroke="#8800cc" d="M243,-48.4191C243,-60.4191 243,-65.6691 243,-74.2941"/>
<polygon fill="#8800cc" stroke="#8800cc" points="239.5,-74.419 243,-84.4191 246.5,-74.4191 239.5,-74.419"/>
</g>
</g>
</svg>
