<?xml version="1.0" encoding="UTF-8" standalone="no"?>
<!DOCTYPE svg PUBLIC "-//W3C//DTD SVG 1.1//EN"
 "http://www.w3.org/Graphics/SVG/1.1/DTD/svg11.dtd">
<!-- Generated by graphviz version 2.36.0 (20140111.2315)
 -->
<!-- Title: WMF Pages: 1 -->
<svg width="328pt" height="504pt"
 viewBox="0.00 0.00 328.00 504.00" xmlns="http://www.w3.org/2000/svg" xmlns:xlink="http://www.w3.org/1999/xlink">
<g id="graph0" class="graph" transform="scale(1 1) rotate(0) translate(4 500)">
<title>WMF</title>
<polygon fill="white" stroke="none" points="-4,4 -4,-500 324,-500 324,4 -4,4"/>
<!-- the_internet -->
<g id="node1" class="node"><title>the_internet</title>
<polygon fill="none" stroke="black" points="224.537,-462.544 224.537,-477.456 191.418,-488 144.582,-488 111.463,-477.456 111.463,-462.544 144.582,-452 191.418,-452 224.537,-462.544"/>
<polygon fill="none" stroke="black" points="228.506,-459.613 228.506,-480.387 192.03,-492 143.97,-492 107.494,-480.387 107.494,-459.613 143.97,-448 192.03,-448 228.506,-459.613"/>
<polygon fill="none" stroke="black" points="232.474,-456.682 232.474,-483.318 192.642,-496 143.358,-496 103.526,-483.318 103.526,-456.682 143.358,-444 192.642,-444 232.474,-456.682"/>
<text text-anchor="middle" x="168" y="-466.3" font-family="Times,serif" font-size="14.00">the_internet</text>
</g>
<!-- ssl_terminators -->
<g id="node2" class="node"><title>ssl_terminators</title>
<polygon fill="none" stroke="black" points="257,-408 157,-408 157,-372 257,-372 257,-408"/>
<text text-anchor="middle" x="207" y="-386.3" font-family="Times,serif" font-size="14.00">ssl_terminators</text>
</g>
<!-- the_internet&#45;&gt;ssl_terminators -->
<g id="edge1" class="edge"><title>the_internet&#45;&gt;ssl_terminators</title>
<path fill="none" stroke="black" d="M180.555,-443.891C184.761,-435.478 189.463,-426.073 193.723,-417.553"/>
<polygon fill="black" stroke="black" points="196.953,-418.92 198.295,-408.411 190.692,-415.79 196.953,-418.92"/>
</g>
<!-- frontend_varnish -->
<g id="node3" class="node"><title>frontend_varnish</title>
<polygon fill="none" stroke="black" points="222.25,-336 113.75,-336 113.75,-300 222.25,-300 222.25,-336"/>
<text text-anchor="middle" x="168" y="-314.3" font-family="Times,serif" font-size="14.00">frontend_varnish</text>
</g>
<!-- the_internet&#45;&gt;frontend_varnish -->
<g id="edge2" class="edge"><title>the_internet&#45;&gt;frontend_varnish</title>
<path fill="none" stroke="black" stroke-dasharray="5,2" d="M157.792,-443.921C153.899,-433.071 149.934,-420.106 148,-408 145.476,-392.2 145.129,-387.74 148,-372 149.606,-363.196 152.597,-353.954 155.786,-345.698"/>
<polygon fill="black" stroke="black" points="159.121,-346.791 159.694,-336.212 152.649,-344.125 159.121,-346.791"/>
</g>
<!-- ssl_terminators&#45;&gt;frontend_varnish -->
<g id="edge3" class="edge"><title>ssl_terminators&#45;&gt;frontend_varnish</title>
<path fill="none" stroke="black" d="M197.36,-371.697C192.873,-363.644 187.441,-353.894 182.476,-344.982"/>
<polygon fill="black" stroke="black" points="185.454,-343.137 177.53,-336.104 179.339,-346.544 185.454,-343.137"/>
</g>
<!-- backend_varnish -->
<g id="node4" class="node"><title>backend_varnish</title>
<polygon fill="none" stroke="black" points="222,-264 114,-264 114,-228 222,-228 222,-264"/>
<text text-anchor="middle" x="168" y="-242.3" font-family="Times,serif" font-size="14.00">backend_varnish</text>
</g>
<!-- frontend_varnish&#45;&gt;backend_varnish -->
<g id="edge4" class="edge"><title>frontend_varnish&#45;&gt;backend_varnish</title>
<polygon fill="black" stroke="none" stroke-width="10" points="173,-299.697 172.768,-298.047 172.531,-296.355 172.288,-294.627 172.041,-292.866 171.789,-291.078 171.535,-289.267 171.278,-287.438 171.019,-285.595 170.759,-283.743 170.498,-281.886 170.237,-280.03 169.977,-278.179 169.718,-276.337 169.462,-274.51 169.208,-272.701 168.957,-270.916 168.71,-269.159 168.468,-267.435 168.231,-265.749 168,-264.104 168,-264.104 167.769,-265.749 167.532,-267.435 167.29,-269.159 167.043,-270.916 166.792,-272.701 166.538,-274.51 166.282,-276.337 166.023,-278.179 165.763,-280.03 165.502,-281.886 165.241,-283.743 164.981,-285.595 164.722,-287.438 164.465,-289.267 164.211,-291.078 163.959,-292.866 163.712,-294.627 163.469,-296.355 163.232,-298.047 163,-299.697 173,-299.697"/>
</g>
<!-- web -->
<g id="node5" class="node"><title>web</title>
<polygon fill="none" stroke="black" points="105,-145 105,-191 159,-191 159,-145 105,-145"/>
<text text-anchor="middle" x="132" y="-175.8" font-family="Times,serif" font-size="14.00">apache</text>
<polyline fill="none" stroke="black" points="105,-168 159,-168 "/>
<text text-anchor="middle" x="132" y="-152.8" font-family="Times,serif" font-size="14.00">hhvm</text>
</g>
<!-- backend_varnish&#45;&gt;web -->
<g id="edge5" class="edge"><title>backend_varnish&#45;&gt;web</title>
<path fill="none" stroke="black" d="M159.831,-227.754C155.972,-219.609 151.244,-209.627 146.788,-200.219"/>
<polygon fill="black" stroke="black" points="149.908,-198.63 142.464,-191.091 143.582,-201.627 149.908,-198.63"/>
</g>
<!-- api -->
<g id="node6" class="node"><title>api</title>
<polygon fill="none" stroke="black" points="177,-145 177,-191 231,-191 231,-145 177,-145"/>
<text text-anchor="middle" x="204" y="-175.8" font-family="Times,serif" font-size="14.00">apache</text>
<polyline fill="none" stroke="black" points="177,-168 231,-168 "/>
<text text-anchor="middle" x="204" y="-152.8" font-family="Times,serif" font-size="14.00">hhvm</text>
</g>
<!-- backend_varnish&#45;&gt;api -->
<g id="edge6" class="edge"><title>backend_varnish&#45;&gt;api</title>
<path fill="none" stroke="black" d="M176.169,-227.754C180.028,-219.609 184.756,-209.627 189.212,-200.219"/>
<polygon fill="black" stroke="black" points="192.418,-201.627 193.536,-191.091 186.092,-198.63 192.418,-201.627"/>
</g>
<!-- mysql -->
<g id="node7" class="node"><title>mysql</title>
<polygon fill="none" stroke="black" points="248,-108 194,-108 194,-72 248,-72 248,-108"/>
<text text-anchor="middle" x="221" y="-86.3" font-family="Times,serif" font-size="14.00">mysql</text>
</g>
<!-- web&#45;&gt;mysql -->
<g id="edge7" class="edge"><title>web&#45;&gt;mysql</title>
<path fill="none" stroke="black" d="M158.222,-144.609C169.197,-135.236 181.968,-124.331 193.114,-114.813"/>
<polygon fill="black" stroke="black" points="195.563,-117.324 200.895,-108.168 191.017,-112.001 195.563,-117.324"/>
</g>
<!-- redis -->
<g id="node8" class="node"><title>redis</title>
<polygon fill="none" stroke="black" points="54,-108 0,-108 0,-72 54,-72 54,-108"/>
<text text-anchor="middle" x="27" y="-86.3" font-family="Times,serif" font-size="14.00">redis</text>
</g>
<!-- web&#45;&gt;redis -->
<g id="edge8" class="edge"><title>web&#45;&gt;redis</title>
<path fill="none" stroke="black" d="M104.96,-147.428C90.9407,-137.281 73.7256,-124.82 59.0417,-114.192"/>
<polygon fill="black" stroke="black" points="60.8847,-111.205 50.7318,-108.177 56.7804,-116.876 60.8847,-111.205"/>
</g>
<!-- elasticsearch -->
<g id="node9" class="node"><title>elasticsearch</title>
<polygon fill="none" stroke="black" points="158,-108 72,-108 72,-72 158,-72 158,-108"/>
<text text-anchor="middle" x="115" y="-86.3" font-family="Times,serif" font-size="14.00">elasticsearch</text>
</g>
<!-- web&#45;&gt;elasticsearch -->
<g id="edge9" class="edge"><title>web&#45;&gt;elasticsearch</title>
<path fill="none" stroke="black" d="M126.991,-144.609C125.153,-136.391 123.051,-126.994 121.126,-118.387"/>
<polygon fill="black" stroke="black" points="124.493,-117.407 118.895,-108.412 117.662,-118.935 124.493,-117.407"/>
</g>
<!-- swift -->
<g id="node10" class="node"><title>swift</title>
<polygon fill="none" stroke="black" points="320,-108 266,-108 266,-72 320,-72 320,-108"/>
<text text-anchor="middle" x="293" y="-86.3" font-family="Times,serif" font-size="14.00">swift</text>
</g>
<!-- web&#45;&gt;swift -->
<g id="edge10" class="edge"><title>web&#45;&gt;swift</title>
<path fill="none" stroke="black" d="M159.209,-148.884C162.134,-147.158 165.1,-145.497 168,-144 203.325,-125.769 216.153,-125.118 256.583,-108.019"/>
<polygon fill="black" stroke="black" points="258.155,-111.153 265.949,-103.976 255.38,-104.726 258.155,-111.153"/>
</g>
<!-- api&#45;&gt;mysql -->
<g id="edge11" class="edge"><title>api&#45;&gt;mysql</title>
<path fill="none" stroke="black" d="M209.009,-144.609C210.847,-136.391 212.949,-126.994 214.874,-118.387"/>
<polygon fill="black" stroke="black" points="218.338,-118.935 217.105,-108.412 211.507,-117.407 218.338,-118.935"/>
</g>
<!-- api&#45;&gt;redis -->
<g id="edge12" class="edge"><title>api&#45;&gt;redis</title>
<path fill="none" stroke="black" d="M176.872,-148.722C173.932,-147.028 170.939,-145.418 168,-144 126.256,-123.866 110.616,-126.171 63.8278,-108.076"/>
<polygon fill="black" stroke="black" points="64.9633,-104.761 54.378,-104.312 62.3728,-111.264 64.9633,-104.761"/>
</g>
<!-- api&#45;&gt;elasticsearch -->
<g id="edge13" class="edge"><title>api&#45;&gt;elasticsearch</title>
<path fill="none" stroke="black" d="M177.778,-144.609C166.803,-135.236 154.032,-124.331 142.886,-114.813"/>
<polygon fill="black" stroke="black" points="144.983,-112.001 135.105,-108.168 140.437,-117.324 144.983,-112.001"/>
</g>
<!-- api&#45;&gt;swift -->
<g id="edge14" class="edge"><title>api&#45;&gt;swift</title>
<path fill="none" stroke="black" d="M230.222,-144.609C241.197,-135.236 253.968,-124.331 265.114,-114.813"/>
<polygon fill="black" stroke="black" points="267.563,-117.324 272.895,-108.168 263.017,-112.001 267.563,-117.324"/>
</g>
<!-- jobrunner -->
<g id="node11" class="node"><title>jobrunner</title>
<polygon fill="none" stroke="black" points="149.25,-36 80.75,-36 80.75,-0 149.25,-0 149.25,-36"/>
<text text-anchor="middle" x="115" y="-14.3" font-family="Times,serif" font-size="14.00">jobrunner</text>
</g>
<!-- mysql&#45;&gt;jobrunner -->
<g id="edge16" class="edge"><title>mysql&#45;&gt;jobrunner</title>
<path fill="none" stroke="#8800cc" d="M186.644,-66.3119C171.825,-56.5258 154.777,-45.2681 141.03,-36.1898"/>
<polygon fill="#8800cc" stroke="#8800cc" points="184.796,-69.286 195.069,-71.8761 188.654,-63.4448 184.796,-69.286"/>
</g>
<!-- imagescaler -->
<g id="node12" class="node"><title>imagescaler</title>
<polygon fill="none" stroke="black" points="298,-36 216,-36 216,-0 298,-0 298,-36"/>
<text text-anchor="middle" x="257" y="-14.3" font-family="Times,serif" font-size="14.00">imagescaler</text>
</g>
<!-- mysql&#45;&gt;imagescaler -->
<g id="edge19" class="edge"><title>mysql&#45;&gt;imagescaler</title>
<path fill="none" stroke="#8800cc" d="M234.476,-62.7967C239.066,-53.871 244.076,-44.1291 248.203,-36.1043"/>
<polygon fill="#8800cc" stroke="#8800cc" points="231.36,-61.203 229.899,-71.6966 237.585,-64.4045 231.36,-61.203"/>
</g>
<!-- redis&#45;&gt;jobrunner -->
<g id="edge17" class="edge"><title>redis&#45;&gt;jobrunner</title>
<path fill="none" stroke="#8800cc" d="M56.7825,-65.3094C68.8223,-55.7323 82.4533,-44.8894 93.4974,-36.1043"/>
<polygon fill="#8800cc" stroke="#8800cc" points="54.4,-62.7322 48.7528,-71.6966 58.7577,-68.2105 54.4,-62.7322"/>
</g>
<!-- elasticsearch&#45;&gt;elasticsearch -->
<g id="edge15" class="edge"><title>elasticsearch&#45;&gt;elasticsearch</title>
<polygon fill="black" stroke="none" stroke-width="10" points="158.624,-108.227 160.222,-107.88 161.861,-107.47 163.452,-107.005 164.992,-106.486 166.476,-105.91 167.902,-105.278 169.267,-104.587 170.565,-103.836 171.793,-103.022 172.945,-102.143 174.014,-101.198 174.993,-100.184 175.873,-99.1025 176.645,-97.9536 177.297,-96.7412 177.821,-95.4716 178.208,-94.1532 178.452,-92.7956 178.55,-91.4088 178.503,-90 178.318,-88.6147 178.002,-87.2978 177.561,-86.0546 177.002,-84.8911 176.334,-83.8117 175.566,-82.8188 174.708,-81.9125 173.769,-81.091 172.757,-80.3515 171.677,-79.6903 170.534,-79.1037 169.334,-78.5883 168.079,-78.1411 166.774,-77.7592 165.42,-77.4405 164.021,-77.1831 162.58,-76.9854 161.1,-76.8461 159.584,-76.764 158.036,-76.7381 158.036,-76.7381 159.542,-77.074 160.993,-77.4552 162.384,-77.8806 163.712,-78.3492 164.972,-78.8596 166.16,-79.4103 167.271,-79.9993 168.3,-80.6244 169.244,-81.2829 170.098,-81.9718 170.86,-82.6875 171.528,-83.4264 172.099,-84.185 172.574,-84.9602 172.955,-85.7503 173.243,-86.5555 173.44,-87.3781 173.549,-88.2225 173.569,-89.0947 173.497,-90 173.336,-90.8818 173.1,-91.6842 172.794,-92.4142 172.424,-93.0818 171.991,-93.6968 171.495,-94.2675 170.934,-94.8001 170.304,-95.2982 169.603,-95.7633 168.83,-96.1949 167.985,-96.5916 167.069,-96.9515 166.083,-97.2725 165.031,-97.5524 163.916,-97.7894 162.742,-97.982 161.512,-98.1288 160.232,-98.229 158.904,-98.2816 157.448,-98.2966 158.624,-108.227"/>
</g>
<!-- elasticsearch&#45;&gt;jobrunner -->
<g id="edge18" class="edge"><title>elasticsearch&#45;&gt;jobrunner</title>
<path fill="none" stroke="#8800cc" d="M115,-61.6651C115,-53.0537 115,-43.7913 115,-36.1043"/>
<polygon fill="#8800cc" stroke="#8800cc" points="111.5,-61.6966 115,-71.6966 118.5,-61.6967 111.5,-61.6966"/>
</g>
<!-- swift&#45;&gt;imagescaler -->
<g id="edge20" class="edge"><title>swift&#45;&gt;imagescaler</title>
<path fill="none" stroke="#8800cc" d="M279.524,-62.7967C274.934,-53.871 269.924,-44.1291 265.797,-36.1043"/>
<polygon fill="#8800cc" stroke="#8800cc" points="276.415,-64.4045 284.101,-71.6966 282.64,-61.203 276.415,-64.4045"/>
</g>
</g>
</svg>
