<?xml version="1.0" encoding="UTF-8" standalone="no"?>
<!DOCTYPE svg PUBLIC "-//W3C//DTD SVG 1.1//EN"
 "http://www.w3.org/Graphics/SVG/1.1/DTD/svg11.dtd">
<!-- Generated by graphviz version 2.36.0 (20140111.2315)
 -->
<!-- Title: WMF Pages: 1 -->
<svg width="490pt" height="626pt"
 viewBox="0.00 0.00 490.00 626.42" xmlns="http://www.w3.org/2000/svg" xmlns:xlink="http://www.w3.org/1999/xlink">
<g id="graph0" class="graph" transform="scale(1 1) rotate(0) translate(4 622.419)">
<title>WMF</title>
<polygon fill="white" stroke="none" points="-4,4 -4,-622.419 486,-622.419 486,4 -4,4"/>
<!-- the_internet -->
<g id="node1" class="node"><title>the_internet</title>
<polygon fill="none" stroke="black" points="447.537,-584.963 447.537,-599.875 414.418,-610.419 367.582,-610.419 334.463,-599.875 334.463,-584.963 367.582,-574.419 414.418,-574.419 447.537,-584.963"/>
<polygon fill="none" stroke="black" points="451.506,-582.032 451.506,-602.806 415.03,-614.419 366.97,-614.419 330.494,-602.806 330.494,-582.032 366.97,-570.419 415.03,-570.419 451.506,-582.032"/>
<polygon fill="none" stroke="black" points="455.474,-579.101 455.474,-605.737 415.642,-618.419 366.358,-618.419 326.526,-605.737 326.526,-579.101 366.358,-566.419 415.642,-566.419 455.474,-579.101"/>
<text text-anchor="middle" x="391" y="-588.719" font-family="Times,serif" font-size="14.00">the_internet</text>
</g>
<!-- ssl_terminators -->
<g id="node2" class="node"><title>ssl_terminators</title>
<polygon fill="none" stroke="black" points="480,-530.419 380,-530.419 380,-494.419 480,-494.419 480,-530.419"/>
<text text-anchor="middle" x="430" y="-508.719" font-family="Times,serif" font-size="14.00">ssl_terminators</text>
</g>
<!-- the_internet&#45;&gt;ssl_terminators -->
<g id="edge1" class="edge"><title>the_internet&#45;&gt;ssl_terminators</title>
<path fill="none" stroke="black" d="M403.555,-566.31C407.761,-557.897 412.463,-548.492 416.723,-539.973"/>
<polygon fill="black" stroke="black" points="419.953,-541.339 421.295,-530.83 413.692,-538.209 419.953,-541.339"/>
</g>
<!-- frontend_varnish -->
<g id="node3" class="node"><title>frontend_varnish</title>
<polygon fill="none" stroke="black" points="445.25,-458.419 336.75,-458.419 336.75,-422.419 445.25,-422.419 445.25,-458.419"/>
<text text-anchor="middle" x="391" y="-436.719" font-family="Times,serif" font-size="14.00">frontend_varnish</text>
</g>
<!-- the_internet&#45;&gt;frontend_varnish -->
<g id="edge2" class="edge"><title>the_internet&#45;&gt;frontend_varnish</title>
<path fill="none" stroke="black" stroke-dasharray="5,2" d="M380.792,-566.341C376.899,-555.49 372.934,-542.525 371,-530.419 368.476,-514.619 368.129,-510.159 371,-494.419 372.606,-485.615 375.597,-476.373 378.786,-468.117"/>
<polygon fill="black" stroke="black" points="382.121,-469.21 382.694,-458.631 375.649,-466.544 382.121,-469.21"/>
</g>
<!-- ssl_terminators&#45;&gt;frontend_varnish -->
<g id="edge3" class="edge"><title>ssl_terminators&#45;&gt;frontend_varnish</title>
<path fill="none" stroke="black" d="M420.36,-494.116C415.873,-486.063 410.441,-476.314 405.476,-467.402"/>
<polygon fill="black" stroke="black" points="408.454,-465.556 400.53,-458.523 402.339,-468.963 408.454,-465.556"/>
</g>
<!-- backend_varnish -->
<g id="node4" class="node"><title>backend_varnish</title>
<polygon fill="none" stroke="black" points="445,-386.419 337,-386.419 337,-350.419 445,-350.419 445,-386.419"/>
<text text-anchor="middle" x="391" y="-364.719" font-family="Times,serif" font-size="14.00">backend_varnish</text>
</g>
<!-- frontend_varnish&#45;&gt;backend_varnish -->
<g id="edge4" class="edge"><title>frontend_varnish&#45;&gt;backend_varnish</title>
<polygon fill="black" stroke="none" stroke-width="10" points="396,-422.116 395.768,-420.466 395.531,-418.774 395.288,-417.046 395.041,-415.286 394.789,-413.497 394.535,-411.686 394.278,-409.857 394.019,-408.014 393.759,-406.162 393.498,-404.305 393.237,-402.449 392.977,-400.598 392.718,-398.756 392.462,-396.929 392.208,-395.12 391.957,-393.335 391.71,-391.578 391.468,-389.854 391.231,-388.168 391,-386.523 391,-386.523 390.769,-388.168 390.532,-389.854 390.29,-391.578 390.043,-393.335 389.792,-395.12 389.538,-396.929 389.282,-398.756 389.023,-400.598 388.763,-402.449 388.502,-404.305 388.241,-406.162 387.981,-408.014 387.722,-409.857 387.465,-411.686 387.211,-413.497 386.959,-415.286 386.712,-417.046 386.469,-418.774 386.232,-420.466 386,-422.116 396,-422.116"/>
</g>
<!-- web -->
<g id="node5" class="node"><title>web</title>
<polygon fill="none" stroke="black" points="272.5,-267.419 272.5,-313.419 365.5,-313.419 365.5,-267.419 272.5,-267.419"/>
<text text-anchor="middle" x="292" y="-286.719" font-family="Times,serif" font-size="14.00">web</text>
<polyline fill="none" stroke="black" points="311.5,-267.419 311.5,-313.419 "/>
<text text-anchor="middle" x="338.5" y="-298.219" font-family="Times,serif" font-size="14.00">apache</text>
<polyline fill="none" stroke="black" points="311.5,-290.419 365.5,-290.419 "/>
<text text-anchor="middle" x="338.5" y="-275.219" font-family="Times,serif" font-size="14.00">hhvm</text>
</g>
<!-- backend_varnish&#45;&gt;web -->
<g id="edge5" class="edge"><title>backend_varnish&#45;&gt;web:apache:n</title>
<path fill="none" stroke="black" d="M361.053,-350.387C352.203,-343.54 343.977,-334.783 340.608,-324.402"/>
<polygon fill="black" stroke="black" points="344.046,-323.735 339,-314.419 337.135,-324.848 344.046,-323.735"/>
</g>
<!-- api -->
<g id="node6" class="node"><title>api</title>
<polygon fill="none" stroke="black" points="383.5,-267.419 383.5,-313.419 470.5,-313.419 470.5,-267.419 383.5,-267.419"/>
<text text-anchor="middle" x="400" y="-286.719" font-family="Times,serif" font-size="14.00">api</text>
<polyline fill="none" stroke="black" points="416.5,-267.419 416.5,-313.419 "/>
<text text-anchor="middle" x="443.5" y="-298.219" font-family="Times,serif" font-size="14.00">apache</text>
<polyline fill="none" stroke="black" points="416.5,-290.419 470.5,-290.419 "/>
<text text-anchor="middle" x="443.5" y="-275.219" font-family="Times,serif" font-size="14.00">hhvm</text>
</g>
<!-- backend_varnish&#45;&gt;api -->
<g id="edge6" class="edge"><title>backend_varnish&#45;&gt;api:apache:n</title>
<path fill="none" stroke="black" d="M421.83,-350.282C430.757,-343.471 439.01,-334.763 442.389,-324.397"/>
<polygon fill="black" stroke="black" points="445.861,-324.849 444,-314.419 438.95,-323.733 445.861,-324.849"/>
</g>
<!-- web_service_collector -->
<g id="node7" class="node"><title>web_service_collector</title>
<ellipse fill="black" stroke="black" cx="319" cy="-229.419" rx="0" ry="0"/>
</g>
<!-- web&#45;&gt;web_service_collector -->
<g id="edge7" class="edge"><title>web:hhvm:s&#45;&gt;web_service_collector</title>
<path fill="none" stroke="black" d="M339,-266.419C339,-255.476 331.85,-244.749 326.101,-237.892"/>
<polygon fill="black" stroke="black" points="328.48,-235.315 319.057,-230.47 323.402,-240.133 328.48,-235.315"/>
</g>
<!-- memcached -->
<g id="node13" class="node"><title>memcached</title>
<polygon fill="none" stroke="black" points="331.25,-120.419 248.75,-120.419 248.75,-84.4191 331.25,-84.4191 331.25,-120.419"/>
<text text-anchor="middle" x="290" y="-98.7191" font-family="Times,serif" font-size="14.00">memcached</text>
</g>
<!-- web&#45;&gt;memcached -->
<g id="edge15" class="edge"><title>web:hhvm:s&#45;&gt;memcached:n</title>
<polygon fill="black" stroke="none" stroke-width="10" points="343.993,-266.689 344.203,-259.616 345.082,-253.215 346.555,-247.151 348.538,-241.37 350.945,-235.828 353.688,-230.485 356.674,-225.305 359.806,-220.251 362.981,-215.287 366.097,-210.371 369.047,-205.459 371.722,-200.504 374.007,-195.458 375.779,-190.275 376.907,-184.921 377.261,-179.378 376.723,-173.645 375.195,-167.725 372.598,-161.603 368.836,-155.211 365.221,-150.707 361.098,-147.131 356.588,-144.416 351.79,-142.448 346.785,-141.105 341.641,-140.263 336.422,-139.807 331.187,-139.622 325.998,-139.6 320.915,-139.636 316.005,-139.624 311.331,-139.462 306.96,-139.048 302.959,-138.281 299.389,-137.064 296.307,-135.296 293.764,-132.869 291.815,-129.659 290.533,-125.546 290,-120.419 290,-120.419 290.294,-125.589 291.402,-129.834 293.264,-133.251 295.815,-135.924 298.969,-137.935 302.639,-139.382 306.74,-140.368 311.195,-141.002 315.93,-141.389 320.873,-141.632 325.949,-141.834 331.081,-142.095 336.193,-142.516 341.206,-143.192 346.04,-144.217 350.618,-145.678 354.868,-147.659 358.733,-150.241 362.171,-153.518 365.164,-157.627 368.329,-163.635 370.4,-169.234 371.487,-174.444 371.715,-179.341 371.195,-184.014 370.013,-188.552 368.245,-193.026 365.966,-197.489 363.26,-201.984 360.217,-206.552 356.932,-211.234 353.507,-216.075 350.043,-221.122 346.645,-226.426 343.422,-232.04 340.487,-238.016 337.955,-244.403 335.949,-251.244 334.589,-258.575 334.007,-266.149 343.993,-266.689"/>
</g>
<!-- api&#45;&gt;web_service_collector -->
<g id="edge8" class="edge"><title>api:hhvm:s&#45;&gt;web_service_collector</title>
<path fill="none" stroke="black" d="M444,-266.419C444,-242.632 359.359,-233.616 329.376,-231.168"/>
<polygon fill="black" stroke="black" points="329.317,-227.655 319.091,-230.424 328.812,-234.637 329.317,-227.655"/>
</g>
<!-- api&#45;&gt;memcached -->
<g id="edge16" class="edge"><title>api:hhvm:s&#45;&gt;memcached:n</title>
<polygon fill="black" stroke="none" stroke-width="10" points="448.999,-266.338 448.702,-258.206 448.141,-250.503 447.311,-243.266 446.202,-236.455 444.806,-230.03 443.115,-223.955 441.122,-218.195 438.822,-212.715 436.213,-207.481 433.293,-202.458 430.063,-197.607 426.521,-192.89 422.667,-188.264 418.498,-183.685 414.008,-179.108 409.193,-174.489 404.045,-169.782 398.556,-164.941 392.72,-159.923 386.462,-154.625 380.897,-150.612 374.95,-147.531 368.777,-145.311 362.452,-143.823 356.04,-142.935 349.602,-142.52 343.197,-142.455 336.881,-142.62 330.715,-142.896 324.759,-143.168 319.074,-143.318 313.723,-143.235 308.77,-142.804 304.277,-141.915 300.301,-140.46 296.891,-138.326 294.094,-135.389 291.963,-131.51 290.573,-126.56 290,-120.419 290,-120.419 290.321,-126.601 291.524,-131.679 293.555,-135.766 296.353,-138.958 299.843,-141.348 303.936,-143.04 308.55,-144.152 313.61,-144.803 319.046,-145.112 324.79,-145.196 330.771,-145.17 336.919,-145.148 343.162,-145.242 349.427,-145.564 355.64,-146.222 361.726,-147.322 367.614,-148.966 373.237,-151.254 378.537,-154.284 383.538,-158.213 389.425,-163.628 395.012,-168.847 400.236,-173.852 405.101,-178.683 409.61,-183.379 413.765,-187.98 417.573,-192.524 421.039,-197.052 424.171,-201.603 426.978,-206.219 429.471,-210.946 431.659,-215.83 433.552,-220.92 435.158,-226.265 436.483,-231.917 437.531,-237.923 438.305,-244.332 438.806,-251.189 439.037,-258.538 439.001,-266.5 448.999,-266.338"/>
</g>
<!-- mysql_master -->
<g id="node8" class="node"><title>mysql_master</title>
<polygon fill="none" stroke="black" points="238,-192.419 144,-192.419 144,-156.419 238,-156.419 238,-192.419"/>
<text text-anchor="middle" x="191" y="-170.719" font-family="Times,serif" font-size="14.00">mysql_master</text>
</g>
<!-- web_service_collector&#45;&gt;mysql_master -->
<g id="edge9" class="edge"><title>web_service_collector&#45;&gt;mysql_master:n</title>
<path fill="none" stroke="black" d="M318.907,-228.414C315.47,-228.235 217.559,-222.941 195.42,-201.465"/>
<polygon fill="black" stroke="black" points="198.535,-199.867 191,-192.419 192.245,-202.94 198.535,-199.867"/>
</g>
<!-- mysql_slave -->
<g id="node9" class="node"><title>mysql_slave</title>
<polygon fill="none" stroke="black" points="341.25,-192.419 256.75,-192.419 256.75,-156.419 341.25,-156.419 341.25,-192.419"/>
<text text-anchor="middle" x="299" y="-170.719" font-family="Times,serif" font-size="14.00">mysql_slave</text>
</g>
<!-- web_service_collector&#45;&gt;mysql_slave -->
<g id="edge10" class="edge"><title>web_service_collector&#45;&gt;mysql_slave:n</title>
<path fill="none" stroke="black" d="M318.943,-228.368C317.999,-227.519 305.661,-216.24 300.877,-202.628"/>
<polygon fill="black" stroke="black" points="304.251,-201.621 299,-192.419 297.366,-202.887 304.251,-201.621"/>
</g>
<!-- redis -->
<g id="node10" class="node"><title>redis</title>
<polygon fill="none" stroke="black" points="54,-192.419 0,-192.419 0,-156.419 54,-156.419 54,-192.419"/>
<text text-anchor="middle" x="27" y="-170.719" font-family="Times,serif" font-size="14.00">redis</text>
</g>
<!-- web_service_collector&#45;&gt;redis -->
<g id="edge11" class="edge"><title>web_service_collector&#45;&gt;redis:n</title>
<path fill="none" stroke="black" d="M318.947,-228.418C314.85,-228.37 75.3434,-225.444 33.2743,-200.318"/>
<polygon fill="black" stroke="black" points="35.9604,-198.073 27,-192.419 30.4791,-202.426 35.9604,-198.073"/>
</g>
<!-- elasticsearch -->
<g id="node11" class="node"><title>elasticsearch</title>
<polygon fill="none" stroke="black" points="446,-120.419 360,-120.419 360,-84.4191 446,-84.4191 446,-120.419"/>
<text text-anchor="middle" x="403" y="-98.7191" font-family="Times,serif" font-size="14.00">elasticsearch</text>
</g>
<!-- web_service_collector&#45;&gt;elasticsearch -->
<g id="edge12" class="edge"><title>web_service_collector&#45;&gt;elasticsearch:n</title>
<path fill="none" stroke="black" d="M319.089,-228.374C320.919,-227.444 350.447,-212.253 367,-192.419 387.596,-167.741 400.242,-158.168 402.599,-130.532"/>
<polygon fill="black" stroke="black" points="406.101,-130.55 403,-120.419 399.106,-130.272 406.101,-130.55"/>
</g>
<!-- swift -->
<g id="node12" class="node"><title>swift</title>
<polygon fill="none" stroke="black" points="126,-192.419 72,-192.419 72,-156.419 126,-156.419 126,-192.419"/>
<text text-anchor="middle" x="99" y="-170.719" font-family="Times,serif" font-size="14.00">swift</text>
</g>
<!-- web_service_collector&#45;&gt;swift -->
<g id="edge13" class="edge"><title>web_service_collector&#45;&gt;swift:n</title>
<path fill="none" stroke="black" d="M318.841,-228.411C312.907,-228.103 143.162,-219.135 106.102,-199.952"/>
<polygon fill="black" stroke="black" points="108.407,-197.294 99,-192.419 103.313,-202.096 108.407,-197.294"/>
</g>
<!-- web_service_collector&#45;&gt;memcached -->
<!-- mysql_master&#45;&gt;mysql_slave -->
<g id="edge40" class="edge"><title>mysql_master&#45;&gt;mysql_slave</title>
<path fill="none" stroke="#880000" d="M238.25,-174.419C240.88,-174.419 243.51,-174.419 246.14,-174.419"/>
<polygon fill="#880000" stroke="#880000" points="246.285,-177.919 256.285,-174.419 246.285,-170.919 246.285,-177.919"/>
</g>
<!-- mysql_master&#45;&gt;memcached -->
<!-- job_service_collector -->
<g id="node14" class="node"><title>job_service_collector</title>
<ellipse fill="black" stroke="black" cx="191" cy="-102.419" rx="0" ry="0"/>
</g>
<!-- mysql_master&#45;&gt;job_service_collector -->
<!-- mysql_slave&#45;&gt;memcached -->
<!-- mysql_slave&#45;&gt;job_service_collector -->
<!-- redis&#45;&gt;memcached -->
<!-- redis&#45;&gt;job_service_collector -->
<!-- elasticsearch&#45;&gt;elasticsearch -->
<g id="edge17" class="edge"><title>elasticsearch&#45;&gt;elasticsearch</title>
<polygon fill="black" stroke="none" stroke-width="10" points="446.332,-114.041 447.893,-113.761 449.453,-113.455 450.966,-113.129 452.428,-112.78 453.837,-112.41 455.19,-112.018 456.485,-111.603 457.719,-111.166 458.891,-110.703 459.999,-110.214 461.043,-109.695 462.02,-109.142 462.931,-108.548 463.772,-107.902 464.54,-107.194 465.222,-106.406 465.796,-105.526 466.228,-104.55 466.476,-103.5 466.512,-102.419 466.337,-101.366 465.966,-100.396 465.435,-99.5429 464.785,-98.8166 464.048,-98.2061 463.241,-97.6929 462.373,-97.2596 461.445,-96.8923 460.458,-96.5811 459.412,-96.3192 458.308,-96.1018 457.147,-95.9253 455.929,-95.7875 454.657,-95.6864 453.334,-95.6207 451.961,-95.5892 450.542,-95.5909 449.079,-95.6252 447.576,-95.6911 446.036,-95.7881 446.036,-95.7881 447.55,-96.066 449.014,-96.3636 450.423,-96.6802 451.772,-97.0151 453.058,-97.3675 454.276,-97.7364 455.421,-98.1208 456.487,-98.5192 457.47,-98.9297 458.363,-99.3499 459.159,-99.7765 459.852,-100.205 460.434,-100.627 460.899,-101.035 461.24,-101.413 461.46,-101.745 461.566,-102.012 461.585,-102.202 461.55,-102.327 461.488,-102.419 461.41,-102.484 461.323,-102.528 461.205,-102.596 461.023,-102.709 460.749,-102.863 460.368,-103.046 459.876,-103.242 459.277,-103.437 458.574,-103.623 457.776,-103.793 456.887,-103.941 455.915,-104.066 454.865,-104.164 453.743,-104.235 452.555,-104.278 451.305,-104.292 449.998,-104.277 448.64,-104.232 447.234,-104.159 445.741,-104.059 446.332,-114.041"/>
</g>
<!-- elasticsearch&#45;&gt;elasticsearch -->
<g id="edge41" class="edge"><title>elasticsearch&#45;&gt;elasticsearch</title>
<polygon fill="#880000" stroke="none" stroke-width="10" points="445.812,-120.702 448.76,-120.681 451.725,-120.577 454.626,-120.387 457.453,-120.112 460.198,-119.75 462.851,-119.303 465.404,-118.769 467.848,-118.147 470.174,-117.436 472.374,-116.633 474.441,-115.734 476.364,-114.734 478.133,-113.626 479.737,-112.4 481.157,-111.047 482.371,-109.558 483.345,-107.932 484.044,-106.182 484.438,-104.333 484.509,-102.419 484.263,-100.535 483.714,-98.7734 482.888,-97.1584 481.82,-95.7066 480.542,-94.4187 479.083,-93.2858 477.462,-92.2949 475.693,-91.4337 473.785,-90.6919 471.747,-90.0619 469.586,-89.5377 467.312,-89.1153 464.931,-88.7913 462.453,-88.5636 459.887,-88.4301 457.242,-88.3893 454.528,-88.44 451.754,-88.581 448.931,-88.8113 446.068,-89.13 446.068,-89.13 448.943,-89.1544 451.759,-89.2614 454.503,-89.4498 457.166,-89.7188 459.735,-90.0673 462.2,-90.4938 464.548,-90.9969 466.768,-91.5748 468.847,-92.2249 470.772,-92.9443 472.531,-93.7285 474.109,-94.5719 475.495,-95.4668 476.678,-96.4028 477.648,-97.3677 478.406,-98.3485 478.957,-99.3361 479.314,-100.331 479.491,-101.351 479.491,-102.419 479.316,-103.458 478.984,-104.39 478.5,-105.249 477.855,-106.063 477.033,-106.843 476.024,-107.588 474.824,-108.289 473.439,-108.937 471.875,-109.522 470.145,-110.037 468.259,-110.478 466.232,-110.839 464.075,-111.119 461.802,-111.316 459.424,-111.429 456.955,-111.456 454.405,-111.399 451.787,-111.257 449.114,-111.03 446.324,-110.715 445.812,-120.702"/>
</g>
<!-- jobrunner -->
<g id="node15" class="node"><title>jobrunner</title>
<polygon fill="none" stroke="black" points="324.25,-48.4191 255.75,-48.4191 255.75,-12.4191 324.25,-12.4191 324.25,-48.4191"/>
<text text-anchor="middle" x="290" y="-26.7191" font-family="Times,serif" font-size="14.00">jobrunner</text>
</g>
<!-- elasticsearch&#45;&gt;jobrunner -->
<!-- swift&#45;&gt;memcached -->
<!-- swift&#45;&gt;job_service_collector -->
<!-- memcached&#45;&gt;jobrunner -->
<!-- imagescaler -->
<g id="node16" class="node"><title>imagescaler</title>
<polygon fill="none" stroke="black" points="232,-48.4191 150,-48.4191 150,-12.4191 232,-12.4191 232,-48.4191"/>
<text text-anchor="middle" x="191" y="-26.7191" font-family="Times,serif" font-size="14.00">imagescaler</text>
</g>
<!-- memcached&#45;&gt;imagescaler -->
<!-- job_service_collector&#45;&gt;mysql_master -->
<g id="edge33" class="edge"><title>job_service_collector:n&#45;&gt;mysql_master:s</title>
<path fill="none" stroke="#8800cc" d="M191,-103.419C191,-123.11 191,-130.456 191,-146.096"/>
<polygon fill="#8800cc" stroke="#8800cc" points="187.5,-146.419 191,-156.419 194.5,-146.419 187.5,-146.419"/>
</g>
<!-- job_service_collector&#45;&gt;mysql_slave -->
<g id="edge34" class="edge"><title>job_service_collector:n&#45;&gt;mysql_slave:s</title>
<path fill="none" stroke="#8800cc" d="M191,-103.419C191,-152.919 283.564,-110.365 297.304,-146.201"/>
<polygon fill="#8800cc" stroke="#8800cc" points="293.909,-147.127 299,-156.419 300.815,-145.981 293.909,-147.127"/>
</g>
<!-- job_service_collector&#45;&gt;redis -->
<g id="edge35" class="edge"><title>job_service_collector:n&#45;&gt;redis:s</title>
<path fill="none" stroke="#8800cc" d="M191,-103.419C191,-176.279 42.6246,-89.1822 28.1348,-146.422"/>
<polygon fill="#8800cc" stroke="#8800cc" points="24.6503,-146.088 27,-156.419 31.6056,-146.878 24.6503,-146.088"/>
</g>
<!-- job_service_collector&#45;&gt;swift -->
<g id="edge36" class="edge"><title>job_service_collector:n&#45;&gt;swift:s</title>
<path fill="none" stroke="#8800cc" d="M191,-103.419C191,-146.737 113.475,-115.423 100.756,-146.496"/>
<polygon fill="#8800cc" stroke="#8800cc" points="97.2959,-145.962 99,-156.419 104.189,-147.182 97.2959,-145.962"/>
</g>
<!-- job_service_collector&#45;&gt;jobrunner -->
<!-- job_service_collector&#45;&gt;imagescaler -->
<!-- jobrunner&#45;&gt;elasticsearch -->
<g id="edge37" class="edge"><title>jobrunner:n&#45;&gt;elasticsearch:s</title>
<path fill="none" stroke="#8800cc" d="M290,-48.4191C290,-97.0105 386.033,-41.811 401.039,-74.1851"/>
<polygon fill="#8800cc" stroke="#8800cc" points="397.68,-75.2566 403,-84.4191 404.555,-73.939 397.68,-75.2566"/>
</g>
<!-- jobrunner&#45;&gt;memcached -->
<g id="edge38" class="edge"><title>jobrunner:n&#45;&gt;memcached:s</title>
<polygon fill="#8800cc" stroke="none" stroke-width="10" points="285,-48.4191 285.321,-50.7321 285.62,-52.8831 285.899,-54.8901 286.16,-56.7711 286.406,-58.5441 286.64,-60.2271 286.864,-61.8381 287.08,-63.3951 287.291,-64.9161 287.5,-66.4191 287.709,-67.9221 287.92,-69.4431 288.136,-71.0001 288.36,-72.6111 288.594,-74.2941 288.84,-76.0671 289.101,-77.9481 289.38,-79.9551 289.679,-82.1061 290,-84.4191 290,-84.4191 290.321,-82.1061 290.62,-79.9551 290.899,-77.9481 291.16,-76.0671 291.406,-74.2941 291.64,-72.6111 291.864,-71.0001 292.08,-69.4431 292.291,-67.9221 292.5,-66.4191 292.709,-64.9161 292.92,-63.3951 293.136,-61.8381 293.36,-60.2271 293.594,-58.5441 293.84,-56.7711 294.101,-54.8901 294.38,-52.8831 294.679,-50.7321 295,-48.4191 285,-48.4191"/>
</g>
<!-- jobrunner&#45;&gt;job_service_collector -->
<g id="edge31" class="edge"><title>jobrunner:n&#45;&gt;job_service_collector:s</title>
<path fill="none" stroke="#8800cc" d="M290,-48.4191C290,-94.4285 205.865,-58.2353 192.718,-91.4006"/>
<polygon fill="#8800cc" stroke="#8800cc" points="189.241,-90.9713 191,-101.419 196.14,-92.1547 189.241,-90.9713"/>
</g>
<!-- imagescaler&#45;&gt;memcached -->
<g id="edge39" class="edge"><title>imagescaler:n&#45;&gt;memcached:s</title>
<polygon fill="#8800cc" stroke="none" stroke-width="10" points="186.032,-48.9881 187.085,-55.9029 189.901,-62.0027 194.249,-66.5362 199.635,-69.4518 205.643,-71.0378 212.1,-71.6441 218.93,-71.5394 226.052,-70.9307 233.369,-69.9968 240.764,-68.9051 248.111,-67.8185 255.277,-66.8977 262.124,-66.3014 268.512,-66.1862 274.299,-66.7039 279.351,-68.0008 283.555,-70.2249 286.822,-73.5567 289.029,-78.22 290,-84.4191 290,-84.4191 289.535,-78.0871 287.634,-73.0397 284.416,-69.1678 280.057,-66.3817 274.764,-64.5486 268.72,-63.5033 262.089,-63.0784 255.027,-63.1127 247.69,-63.449 240.236,-63.933 232.831,-64.4119 225.644,-64.7353 218.857,-64.757 212.668,-64.3427 207.295,-63.3859 202.957,-61.842 199.78,-59.7474 197.643,-57.0771 196.351,-53.4663 195.968,-47.85 186.032,-48.9881"/>
</g>
<!-- imagescaler&#45;&gt;job_service_collector -->
<g id="edge32" class="edge"><title>imagescaler:n&#45;&gt;job_service_collector:s</title>
<path fill="none" stroke="#8800cc" d="M191,-48.4191C191,-68.11 191,-75.4557 191,-91.0959"/>
<polygon fill="#8800cc" stroke="#8800cc" points="187.5,-91.419 191,-101.419 194.5,-91.4191 187.5,-91.419"/>
</g>
</g>
</svg>
