<?xml version="1.0" encoding="UTF-8" standalone="no"?>
<!DOCTYPE svg PUBLIC "-//W3C//DTD SVG 1.1//EN"
 "http://www.w3.org/Graphics/SVG/1.1/DTD/svg11.dtd">
<!-- Generated by graphviz version 2.36.0 (20140111.2315)
 -->
<!-- Title: WMF Pages: 1 -->
<svg width="850pt" height="636pt"
 viewBox="0.00 0.00 850.00 636.42" xmlns="http://www.w3.org/2000/svg" xmlns:xlink="http://www.w3.org/1999/xlink">
<g id="graph0" class="graph" transform="scale(1 1) rotate(0) translate(4 632.419)">
<title>WMF</title>
<polygon fill="white" stroke="none" points="-4,4 -4,-632.419 846,-632.419 846,4 -4,4"/>
<!-- the_internet -->
<g id="node1" class="node"><title>the_internet</title>
<polygon fill="none" stroke="black" points="371.537,-594.963 371.537,-609.875 338.418,-620.419 291.582,-620.419 258.463,-609.875 258.463,-594.963 291.582,-584.419 338.418,-584.419 371.537,-594.963"/>
<polygon fill="none" stroke="black" points="375.506,-592.032 375.506,-612.806 339.03,-624.419 290.97,-624.419 254.494,-612.806 254.494,-592.032 290.97,-580.419 339.03,-580.419 375.506,-592.032"/>
<polygon fill="none" stroke="black" points="379.474,-589.101 379.474,-615.737 339.642,-628.419 290.358,-628.419 250.526,-615.737 250.526,-589.101 290.358,-576.419 339.642,-576.419 379.474,-589.101"/>
<text text-anchor="middle" x="315" y="-598.719" font-family="Times,serif" font-size="14.00">the_internet</text>
</g>
<!-- ssl_terminators -->
<g id="node2" class="node"><title>ssl_terminators</title>
<polygon fill="none" stroke="black" points="326,-540.419 226,-540.419 226,-504.419 326,-504.419 326,-540.419"/>
<text text-anchor="middle" x="276" y="-518.719" font-family="Times,serif" font-size="14.00">ssl_terminators</text>
</g>
<!-- the_internet&#45;&gt;ssl_terminators -->
<g id="edge1" class="edge"><title>the_internet&#45;&gt;ssl_terminators</title>
<path fill="none" stroke="black" d="M302.445,-576.31C297.922,-567.264 292.826,-557.071 288.323,-548.065"/>
<ellipse fill="black" stroke="black" cx="286.494" cy="-544.407" rx="4.00002" ry="4.00002"/>
</g>
<!-- frontend_varnish -->
<g id="node3" class="node"><title>frontend_varnish</title>
<polygon fill="none" stroke="black" points="369.25,-468.419 260.75,-468.419 260.75,-432.419 369.25,-432.419 369.25,-468.419"/>
<text text-anchor="middle" x="315" y="-446.719" font-family="Times,serif" font-size="14.00">frontend_varnish</text>
</g>
<!-- the_internet&#45;&gt;frontend_varnish -->
<g id="edge2" class="edge"><title>the_internet&#45;&gt;frontend_varnish</title>
<path fill="none" stroke="black" stroke-dasharray="5,2" d="M325.208,-576.341C329.101,-565.49 333.066,-552.525 335,-540.419 337.524,-524.619 337.871,-520.159 335,-504.419 333.271,-494.937 329.934,-484.948 326.475,-476.23"/>
<ellipse fill="black" stroke="black" cx="324.846" cy="-472.323" rx="4.00001" ry="4.00001"/>
</g>
<!-- ssl_terminators&#45;&gt;frontend_varnish -->
<g id="edge3" class="edge"><title>ssl_terminators&#45;&gt;frontend_varnish</title>
<path fill="none" stroke="black" d="M285.64,-504.116C290.127,-496.063 295.559,-486.314 300.524,-477.402"/>
<polygon fill="black" stroke="black" points="301.976,-466.577 308.965,-470.47 305.071,-477.459 298.083,-473.565 301.976,-466.577"/>
<polyline fill="none" stroke="black" points="301.577,-475.512 300.603,-477.259 "/>
</g>
<!-- backend_varnish -->
<g id="node4" class="node"><title>backend_varnish</title>
<polygon fill="none" stroke="black" points="369,-396.419 261,-396.419 261,-360.419 369,-360.419 369,-396.419"/>
<text text-anchor="middle" x="315" y="-374.719" font-family="Times,serif" font-size="14.00">backend_varnish</text>
</g>
<!-- frontend_varnish&#45;&gt;backend_varnish -->
<g id="edge4" class="edge"><title>frontend_varnish&#45;&gt;backend_varnish</title>
<path fill="none" stroke="black" d="M315,-432.116C315,-424.995 315,-416.549 315,-408.527"/>
<polygon fill="black" stroke="black" points="315,-408.523 311,-402.523 315,-396.523 319,-402.523 315,-408.523"/>
</g>
<!-- web -->
<g id="node5" class="node"><title>web</title>
<polygon fill="none" stroke="black" points="196.5,-277.419 196.5,-323.419 289.5,-323.419 289.5,-277.419 196.5,-277.419"/>
<text text-anchor="middle" x="216" y="-296.719" font-family="Times,serif" font-size="14.00">web</text>
<polyline fill="none" stroke="black" points="235.5,-277.419 235.5,-323.419 "/>
<text text-anchor="middle" x="262.5" y="-308.219" font-family="Times,serif" font-size="14.00">apache</text>
<polyline fill="none" stroke="black" points="235.5,-300.419 289.5,-300.419 "/>
<text text-anchor="middle" x="262.5" y="-285.219" font-family="Times,serif" font-size="14.00">hhvm</text>
</g>
<!-- backend_varnish&#45;&gt;web -->
<g id="edge5" class="edge"><title>backend_varnish&#45;&gt;web:apache:n</title>
<path fill="none" stroke="black" d="M285.053,-360.387C276.203,-353.54 267.977,-344.783 264.608,-334.402"/>
<polygon fill="black" stroke="black" points="259.051,-325.055 266.949,-323.783 268.221,-331.681 260.323,-332.953 259.051,-325.055"/>
<polyline fill="none" stroke="black" points="264.272,-332.317 264.59,-334.292 "/>
</g>
<!-- api -->
<g id="node6" class="node"><title>api</title>
<polygon fill="none" stroke="black" points="307.5,-277.419 307.5,-323.419 394.5,-323.419 394.5,-277.419 307.5,-277.419"/>
<text text-anchor="middle" x="324" y="-296.719" font-family="Times,serif" font-size="14.00">api</text>
<polyline fill="none" stroke="black" points="340.5,-277.419 340.5,-323.419 "/>
<text text-anchor="middle" x="367.5" y="-308.219" font-family="Times,serif" font-size="14.00">apache</text>
<polyline fill="none" stroke="black" points="340.5,-300.419 394.5,-300.419 "/>
<text text-anchor="middle" x="367.5" y="-285.219" font-family="Times,serif" font-size="14.00">hhvm</text>
</g>
<!-- backend_varnish&#45;&gt;api -->
<g id="edge6" class="edge"><title>backend_varnish&#45;&gt;api:apache:n</title>
<path fill="none" stroke="black" d="M345.83,-360.282C354.757,-353.471 363.01,-344.763 366.389,-334.397"/>
<polygon fill="black" stroke="black" points="364.051,-323.781 371.949,-325.057 370.673,-332.955 362.776,-331.679 364.051,-323.781"/>
<polyline fill="none" stroke="black" points="366.724,-332.317 366.406,-334.291 "/>
</g>
<!-- web_service_collector -->
<g id="node7" class="node"><title>web_service_collector</title>
<ellipse fill="black" stroke="black" cx="315" cy="-240.419" rx="0" ry="0"/>
</g>
<!-- web&#45;&gt;web_service_collector -->
<g id="edge7" class="edge"><title>web:hhvm:s&#45;&gt;web_service_collector</title>
<path fill="none" stroke="black" d="M263,-276.419C263,-249.431 311.801,-241.886 314.851,-241.44"/>
</g>
<!-- api&#45;&gt;web_service_collector -->
<g id="edge8" class="edge"><title>api:hhvm:s&#45;&gt;web_service_collector</title>
<path fill="none" stroke="black" d="M368,-276.419C368,-249.073 318.261,-241.863 315.152,-241.439"/>
</g>
<!-- mysql_master -->
<g id="node8" class="node"><title>mysql_master</title>
<polygon fill="none" stroke="black" points="94,-204.419 -7.10543e-15,-204.419 -7.10543e-15,-168.419 94,-168.419 94,-204.419"/>
<text text-anchor="middle" x="47" y="-182.719" font-family="Times,serif" font-size="14.00">mysql_master</text>
</g>
<!-- web_service_collector&#45;&gt;mysql_master -->
<g id="edge9" class="edge"><title>web_service_collector&#45;&gt;mysql_master:n</title>
<path fill="none" stroke="black" d="M314.951,-239.418C311.215,-239.347 94.1853,-235.132 53.525,-212.165"/>
<polygon fill="black" stroke="black" points="43.9408,-206.996 50.0592,-201.842 55.2134,-207.96 49.095,-213.115 43.9408,-206.996"/>
<polyline fill="none" stroke="black" points="52.1542,-210.537 53.4427,-212.067 "/>
</g>
<!-- mysql_slave -->
<g id="node9" class="node"><title>mysql_slave</title>
<polygon fill="none" stroke="black" points="197.25,-204.419 112.75,-204.419 112.75,-168.419 197.25,-168.419 197.25,-204.419"/>
<text text-anchor="middle" x="155" y="-182.719" font-family="Times,serif" font-size="14.00">mysql_slave</text>
</g>
<!-- web_service_collector&#45;&gt;mysql_slave -->
<g id="edge10" class="edge"><title>web_service_collector&#45;&gt;mysql_slave:n</title>
<path fill="none" stroke="black" d="M314.884,-239.42C310.512,-239.45 183.849,-240.099 159.151,-213.903"/>
<polygon fill="black" stroke="black" points="151.336,-206.023 158.664,-202.815 161.872,-210.144 154.544,-213.352 151.336,-206.023"/>
<polyline fill="none" stroke="black" points="158.208,-211.748 159.01,-213.58 "/>
</g>
<!-- redis -->
<g id="node10" class="node"><title>redis</title>
<polygon fill="none" stroke="black" points="270,-204.419 216,-204.419 216,-168.419 270,-168.419 270,-204.419"/>
<text text-anchor="middle" x="243" y="-182.719" font-family="Times,serif" font-size="14.00">redis</text>
</g>
<!-- web_service_collector&#45;&gt;redis -->
<g id="edge11" class="edge"><title>web_service_collector&#45;&gt;redis:n</title>
<path fill="none" stroke="black" d="M314.948,-239.419C312.998,-239.427 256.965,-239.441 245.167,-214.373"/>
<polygon fill="black" stroke="black" points="239.092,-205.27 246.908,-203.568 248.61,-211.385 240.793,-213.087 239.092,-205.27"/>
<polyline fill="none" stroke="black" points="244.702,-212.236 245.127,-214.19 "/>
</g>
<!-- elasticsearch -->
<g id="node11" class="node"><title>elasticsearch</title>
<polygon fill="none" stroke="black" points="548,-204.419 462,-204.419 462,-168.419 548,-168.419 548,-204.419"/>
<text text-anchor="middle" x="505" y="-182.719" font-family="Times,serif" font-size="14.00">elasticsearch</text>
</g>
<!-- web_service_collector&#45;&gt;elasticsearch -->
<g id="edge12" class="edge"><title>web_service_collector&#45;&gt;elasticsearch:n</title>
<path fill="none" stroke="black" d="M315.138,-239.425C320.419,-239.636 475.995,-245.574 501.483,-213.855"/>
<polygon fill="black" stroke="black" points="501.252,-203.022 508.748,-205.816 505.954,-213.312 498.458,-210.519 501.252,-203.022"/>
<polyline fill="none" stroke="black" points="502.206,-211.915 501.508,-213.79 "/>
</g>
<!-- swift -->
<g id="node12" class="node"><title>swift</title>
<polygon fill="none" stroke="black" points="342,-204.419 288,-204.419 288,-168.419 342,-168.419 342,-204.419"/>
<text text-anchor="middle" x="315" y="-182.719" font-family="Times,serif" font-size="14.00">swift</text>
</g>
<!-- web_service_collector&#45;&gt;swift -->
<g id="edge13" class="edge"><title>web_service_collector&#45;&gt;swift:n</title>
<path fill="none" stroke="black" d="M315,-239.363C315,-238.46 315,-226.838 315,-214.61"/>
<polygon fill="black" stroke="black" points="311,-204.419 319,-204.419 319,-212.419 311,-212.419 311,-204.419"/>
<polyline fill="none" stroke="black" points="315,-212.419 315,-214.419 "/>
</g>
<!-- logstash -->
<g id="node13" class="node"><title>logstash</title>
<polygon fill="none" stroke="black" points="681.25,-204.419 620.75,-204.419 620.75,-168.419 681.25,-168.419 681.25,-204.419"/>
<text text-anchor="middle" x="651" y="-182.719" font-family="Times,serif" font-size="14.00">logstash</text>
</g>
<!-- web_service_collector&#45;&gt;logstash -->
<g id="edge14" class="edge"><title>web_service_collector&#45;&gt;logstash:n</title>
<path fill="none" stroke="black" d="M315.061,-239.42C319.816,-239.453 600.113,-241.322 644.974,-212.628"/>
<polygon fill="black" stroke="black" points="647.775,-202.052 654.225,-206.786 649.491,-213.235 643.041,-208.501 647.775,-202.052"/>
<polyline fill="none" stroke="black" points="646.266,-210.868 645.083,-212.48 "/>
</g>
<!-- memcached -->
<g id="node14" class="node"><title>memcached</title>
<polygon fill="none" stroke="black" points="443.25,-204.419 360.75,-204.419 360.75,-168.419 443.25,-168.419 443.25,-204.419"/>
<text text-anchor="middle" x="402" y="-182.719" font-family="Times,serif" font-size="14.00">memcached</text>
</g>
<!-- web_service_collector&#45;&gt;memcached -->
<g id="edge15" class="edge"><title>web_service_collector&#45;&gt;memcached:n</title>
<path fill="none" stroke="black" d="M315.063,-239.424C317.409,-239.595 384.536,-244.238 399.192,-216.268"/>
<polygon fill="black" stroke="black" points="399.232,-216.096 396.724,-209.335 402,-204.419 404.508,-211.18 399.232,-216.096"/>
</g>
<!-- mysql_master&#45;&gt;mysql_slave -->
<g id="edge40" class="edge"><title>mysql_master&#45;&gt;mysql_slave</title>
<path fill="none" stroke="#880000" d="M94.25,-186.419C96.8801,-186.419 99.5103,-186.419 102.14,-186.419"/>
<polygon fill="#880000" stroke="#880000" points="102.285,-189.919 112.285,-186.419 102.285,-182.919 102.285,-189.919"/>
</g>
<!-- job_service_collector -->
<g id="node16" class="node"><title>job_service_collector</title>
<ellipse fill="black" stroke="black" cx="243" cy="-108.419" rx="0" ry="0"/>
</g>
<!-- mysql_master&#45;&gt;job_service_collector -->
<!-- mysql_slave&#45;&gt;job_service_collector -->
<!-- redis&#45;&gt;job_service_collector -->
<!-- elasticsearch&#45;&gt;elasticsearch -->
<g id="edge16" class="edge"><title>elasticsearch:n&#45;&gt;elasticsearch:e</title>
<path fill="none" stroke="black" d="M505,-204.419C525.333,-208.919 566,-208.919 566,-195.419 566,-189.091 563.363,-185.729 559.944,-184.407"/>
<polygon fill="black" stroke="black" points="559.833,-184.425 554.581,-189.367 548,-186.419 553.252,-181.478 559.833,-184.425"/>
</g>
<!-- elasticsearch&#45;&gt;elasticsearch -->
<g id="edge35" class="edge"><title>elasticsearch:n&#45;&gt;elasticsearch:e</title>
<path fill="none" stroke="#8800cc" d="M505,-204.419C531.333,-213.419 584,-213.419 584,-195.419 584,-182.06 570.78,-178.615 559.057,-181.407"/>
<polygon fill="#8800cc" stroke="#8800cc" points="558.93,-181.465 555.116,-187.585 548,-186.419 551.813,-180.299 558.93,-181.465"/>
</g>
<!-- elasticsearch&#45;&gt;elasticsearch -->
<g id="edge41" class="edge"><title>elasticsearch:n&#45;&gt;elasticsearch:e</title>
<path fill="none" stroke="#880000" d="M505,-204.419C537.333,-217.919 602,-217.919 602,-195.419 602,-176.786 577.312,-173.584 558.602,-180.7"/>
<polygon fill="#880000" stroke="#880000" points="558.562,-180.722 555.18,-187.091 548,-186.419 551.382,-180.05 558.562,-180.722"/>
</g>
<!-- jobrunner -->
<g id="node17" class="node"><title>jobrunner</title>
<polygon fill="none" stroke="black" points="413.25,-48.4191 344.75,-48.4191 344.75,-12.4191 413.25,-12.4191 413.25,-48.4191"/>
<text text-anchor="middle" x="379" y="-26.7191" font-family="Times,serif" font-size="14.00">jobrunner</text>
</g>
<!-- elasticsearch&#45;&gt;jobrunner -->
<!-- swift&#45;&gt;job_service_collector -->
<!-- logstash_elasticsearch -->
<g id="node15" class="node"><title>logstash_elasticsearch</title>
<polygon fill="none" stroke="black" points="608,-85.4191 608,-131.419 694,-131.419 694,-85.4191 608,-85.4191"/>
<text text-anchor="middle" x="651" y="-116.219" font-family="Times,serif" font-size="14.00">elasticsearch</text>
<polyline fill="none" stroke="black" points="608,-108.419 694,-108.419 "/>
<text text-anchor="middle" x="651" y="-93.2191" font-family="Times,serif" font-size="14.00">kibana</text>
</g>
<!-- logstash&#45;&gt;logstash_elasticsearch -->
<g id="edge17" class="edge"><title>logstash&#45;&gt;logstash_elasticsearch</title>
<path fill="none" stroke="black" d="M651,-168.173C651,-160.876 651,-152.106 651,-143.594"/>
<polygon fill="black" stroke="black" points="651,-143.51 647,-137.51 651,-131.51 655,-137.51 651,-143.51"/>
</g>
<!-- memcached&#45;&gt;job_service_collector -->
<!-- logstash_elasticsearch&#45;&gt;logstash_elasticsearch -->
<g id="edge18" class="edge"><title>logstash_elasticsearch:elasticsearch:n&#45;&gt;logstash_elasticsearch:elasticsearch:e</title>
<path fill="none" stroke="black" d="M651,-131.419C671.333,-141.169 712,-141.169 712,-125.919 712,-117.579 708.411,-113.8 704.177,-113.683"/>
<polygon fill="black" stroke="black" points="704.007,-113.796 701.211,-120.443 694,-120.419 696.795,-113.772 704.007,-113.796"/>
</g>
<!-- logstash_elasticsearch&#45;&gt;logstash_elasticsearch -->
<g id="edge42" class="edge"><title>logstash_elasticsearch:elasticsearch:n&#45;&gt;logstash_elasticsearch:elasticsearch:e</title>
<path fill="none" stroke="#880000" d="M651,-131.419C677.333,-150.919 730,-150.919 730,-125.919 730,-105.802 714.459,-101.873 702.136,-111.266"/>
<polygon fill="#880000" stroke="#880000" points="701.972,-111.45 700.976,-118.592 694,-120.419 694.997,-113.277 701.972,-111.45"/>
</g>
<!-- admin -->
<g id="node19" class="node"><title>admin</title>
<polygon fill="none" stroke="black" points="726.234,-12.4684 728.376,-12.567 730.495,-12.7144 732.583,-12.9104 734.632,-13.1544 736.634,-13.4457 738.58,-13.7835 740.464,-14.167 742.277,-14.5949 744.013,-15.0663 745.667,-15.5797 747.231,-16.1338 748.702,-16.7271 750.073,-17.3579 751.342,-18.0244 752.505,-18.725 753.558,-19.4576 754.501,-20.2203 755.33,-21.0109 756.045,-21.8273 756.645,-22.6672 757.131,-23.5284 757.503,-24.4085 757.763,-25.305 757.911,-26.2156 757.951,-27.1377 757.885,-28.0688 757.716,-29.0063 757.447,-29.9477 757.083,-30.8904 756.626,-31.8318 756.082,-32.7694 755.455,-33.7004 754.748,-34.6225 753.968,-35.5331 753.119,-36.4297 752.205,-37.3097 751.231,-38.1709 750.202,-39.0109 749.122,-39.8273 747.996,-40.6179 746.829,-41.3805 745.624,-42.1131 744.385,-42.8137 743.116,-43.4803 741.82,-44.1111 740.502,-44.7043 739.163,-45.2584 737.806,-45.7719 736.434,-46.2432 735.049,-46.6712 733.654,-47.0546 732.25,-47.3924 730.838,-47.6837 729.42,-47.9277 727.998,-48.1237 726.572,-48.2712 725.144,-48.3697 723.715,-48.4191 722.285,-48.4191 720.856,-48.3697 719.428,-48.2712 718.002,-48.1237 716.58,-47.9277 715.162,-47.6837 713.75,-47.3924 712.346,-47.0546 710.951,-46.6712 709.566,-46.2432 708.194,-45.7719 706.837,-45.2584 705.498,-44.7043 704.18,-44.1111 702.884,-43.4803 701.615,-42.8137 700.376,-42.1131 699.171,-41.3805 698.004,-40.6179 696.878,-39.8273 695.798,-39.0109 694.769,-38.1709 693.795,-37.3097 692.881,-36.4297 692.032,-35.5331 691.252,-34.6225 690.545,-33.7004 689.918,-32.7694 689.374,-31.8318 688.917,-30.8904 688.553,-29.9477 688.284,-29.0063 688.115,-28.0688 688.049,-27.1377 688.089,-26.2156 688.237,-25.305 688.497,-24.4085 688.869,-23.5284 689.355,-22.6672 689.955,-21.8273 690.67,-21.0109 691.499,-20.2203 692.442,-19.4576 693.495,-18.725 694.658,-18.0244 695.927,-17.3579 697.298,-16.7271 698.769,-16.1338 700.333,-15.5797 701.987,-15.0663 703.723,-14.5949 705.536,-14.167 707.42,-13.7835 709.366,-13.4457 711.368,-13.1544 713.417,-12.9104 715.505,-12.7144 717.624,-12.567 719.766,-12.4684 721.92,-12.4191 724.08,-12.4191 726.234,-12.4684"/>
<text text-anchor="middle" x="723" y="-26.7191" font-family="Times,serif" font-size="14.00">admin</text>
</g>
<!-- logstash_elasticsearch&#45;&gt;admin -->
<!-- job_service_collector&#45;&gt;mysql_master -->
<g id="edge29" class="edge"><title>job_service_collector:n&#45;&gt;mysql_master:s</title>
<path fill="none" stroke="#8800cc" d="M243,-109.419C243,-196.66 62.7484,-87.1722 47.9621,-158.275"/>
<polygon fill="#8800cc" stroke="#8800cc" points="50.9821,-168.797 43.0179,-168.041 43.7734,-160.077 51.7376,-160.833 50.9821,-168.797"/>
<polyline fill="none" stroke="#8800cc" points="47.7555,-160.455 47.9443,-158.464 "/>
</g>
<!-- job_service_collector&#45;&gt;mysql_slave -->
<g id="edge30" class="edge"><title>job_service_collector:n&#45;&gt;mysql_slave:s</title>
<path fill="none" stroke="#8800cc" d="M243,-109.419C243,-152.644 168.845,-126.549 156.679,-158.401"/>
<polygon fill="#8800cc" stroke="#8800cc" points="158.945,-169.08 151.055,-167.758 152.378,-159.868 160.268,-161.19 158.945,-169.08"/>
<polyline fill="none" stroke="#8800cc" points="156.323,-160.529 156.653,-158.557 "/>
</g>
<!-- job_service_collector&#45;&gt;redis -->
<g id="edge31" class="edge"><title>job_service_collector:n&#45;&gt;redis:s</title>
<path fill="none" stroke="#8800cc" d="M243,-109.419C243,-131.954 243,-139.964 243,-158.414"/>
<polygon fill="#8800cc" stroke="#8800cc" points="247,-168.419 239,-168.419 239,-160.419 247,-160.419 247,-168.419"/>
<polyline fill="none" stroke="#8800cc" points="243,-160.419 243,-158.419 "/>
</g>
<!-- job_service_collector&#45;&gt;swift -->
<g id="edge32" class="edge"><title>job_service_collector:n&#45;&gt;swift:s</title>
<path fill="none" stroke="#8800cc" d="M243,-109.419C243,-146.912 302.133,-130.927 313.22,-158.393"/>
<polygon fill="#8800cc" stroke="#8800cc" points="318.938,-167.72 311.062,-169.118 309.663,-161.241 317.54,-159.843 318.938,-167.72"/>
<polyline fill="none" stroke="#8800cc" points="313.602,-160.542 313.252,-158.573 "/>
</g>
<!-- job_service_collector&#45;&gt;memcached -->
<g id="edge33" class="edge"><title>job_service_collector:n&#45;&gt;memcached:s</title>
<path fill="none" stroke="#8800cc" d="M243,-109.419C243,-180.23 383.329,-103.542 400.322,-156.492"/>
<polygon fill="#8800cc" stroke="#8800cc" points="400.328,-156.536 405.125,-161.92 402,-168.419 397.203,-163.035 400.328,-156.536"/>
</g>
<!-- job_service_collector&#45;&gt;jobrunner -->
<!-- imagescaler -->
<g id="node18" class="node"><title>imagescaler</title>
<polygon fill="none" stroke="black" points="284,-48.4191 202,-48.4191 202,-12.4191 284,-12.4191 284,-48.4191"/>
<text text-anchor="middle" x="243" y="-26.7191" font-family="Times,serif" font-size="14.00">imagescaler</text>
</g>
<!-- job_service_collector&#45;&gt;imagescaler -->
<!-- jobrunner&#45;&gt;elasticsearch -->
<g id="edge34" class="edge"><title>jobrunner:n&#45;&gt;elasticsearch:s</title>
<path fill="none" stroke="#8800cc" d="M379,-48.4191C379,-122.127 493.464,-94.0896 504.195,-158.259"/>
<polygon fill="#8800cc" stroke="#8800cc" points="508.988,-168.103 501.012,-168.735 500.381,-160.76 508.356,-160.128 508.988,-168.103"/>
<polyline fill="none" stroke="#8800cc" points="504.368,-160.444 504.21,-158.45 "/>
</g>
<!-- jobrunner&#45;&gt;job_service_collector -->
<g id="edge27" class="edge"><title>jobrunner:n&#45;&gt;job_service_collector:s</title>
<path fill="none" stroke="#8800cc" d="M379,-48.4191C379,-114.306 243,-41.5318 243,-107.419"/>
</g>
<!-- imagescaler&#45;&gt;job_service_collector -->
<g id="edge28" class="edge"><title>imagescaler:n&#45;&gt;job_service_collector:s</title>
<path fill="none" stroke="#8800cc" d="M243,-48.4191C243,-74.6413 243,-81.1969 243,-107.419"/>
</g>
<!-- admin&#45;&gt;logstash_elasticsearch -->
<g id="edge38" class="edge"><title>admin&#45;&gt;logstash_elasticsearch:kibana</title>
<path fill="none" stroke="black" d="M722.715,-48.4971C721.569,-65.0472 717.351,-88.5434 702.93,-94.8244"/>
<ellipse fill="black" stroke="black" cx="698.922" cy="-95.6305" rx="4.00001" ry="4.00001"/>
</g>
<!-- event_logging -->
<g id="node20" class="node"><title>event_logging</title>
<polygon fill="none" stroke="black" points="842,-126.419 748,-126.419 748,-90.4191 842,-90.4191 842,-126.419"/>
<text text-anchor="middle" x="795" y="-104.719" font-family="Times,serif" font-size="14.00">event_logging</text>
</g>
<!-- admin&#45;&gt;event_logging -->
<g id="edge39" class="edge"><title>admin&#45;&gt;event_logging</title>
<path fill="none" stroke="black" d="M740.979,-44.8137C752.783,-55.6636 767.841,-71.2086 779.184,-84.0939"/>
<ellipse fill="black" stroke="black" cx="781.812" cy="-87.1434" rx="4.00002" ry="4.00002"/>
</g>
<!-- event_logging&#45;&gt;admin -->
</g>
</svg>
