<?xml version="1.0" encoding="UTF-8" standalone="no"?>
<!DOCTYPE svg PUBLIC "-//W3C//DTD SVG 1.1//EN"
 "http://www.w3.org/Graphics/SVG/1.1/DTD/svg11.dtd">
<!-- Generated by graphviz version 2.36.0 (20140111.2315)
 -->
<!-- Title: WMF Pages: 1 -->
<svg width="440pt" height="576pt"
 viewBox="0.00 0.00 440.08 576.00" xmlns="http://www.w3.org/2000/svg" xmlns:xlink="http://www.w3.org/1999/xlink">
<g id="graph0" class="graph" transform="scale(1 1) rotate(0) translate(4 572)">
<title>WMF</title>
<polygon fill="white" stroke="none" points="-4,4 -4,-572 436.076,-572 436.076,4 -4,4"/>
<!-- the_internet -->
<g id="node1" class="node"><title>the_internet</title>
<polygon fill="none" stroke="black" points="263.537,-534.544 263.537,-549.456 230.418,-560 183.582,-560 150.463,-549.456 150.463,-534.544 183.582,-524 230.418,-524 263.537,-534.544"/>
<polygon fill="none" stroke="black" points="267.506,-531.613 267.506,-552.387 231.03,-564 182.97,-564 146.494,-552.387 146.494,-531.613 182.97,-520 231.03,-520 267.506,-531.613"/>
<polygon fill="none" stroke="black" points="271.474,-528.682 271.474,-555.318 231.642,-568 182.358,-568 142.526,-555.318 142.526,-528.682 182.358,-516 231.642,-516 271.474,-528.682"/>
<text text-anchor="middle" x="207" y="-538.3" font-family="Times,serif" font-size="14.00">the_internet</text>
</g>
<!-- ssl_terminators -->
<g id="node2" class="node"><title>ssl_terminators</title>
<polygon fill="none" stroke="black" points="296,-480 196,-480 196,-444 296,-444 296,-480"/>
<text text-anchor="middle" x="246" y="-458.3" font-family="Times,serif" font-size="14.00">ssl_terminators</text>
</g>
<!-- the_internet&#45;&gt;ssl_terminators -->
<g id="edge1" class="edge"><title>the_internet&#45;&gt;ssl_terminators</title>
<path fill="none" stroke="black" d="M219.555,-515.891C223.761,-507.478 228.463,-498.073 232.723,-489.553"/>
<polygon fill="black" stroke="black" points="235.953,-490.92 237.295,-480.411 229.692,-487.79 235.953,-490.92"/>
</g>
<!-- frontend_varnish -->
<g id="node3" class="node"><title>frontend_varnish</title>
<polygon fill="none" stroke="black" points="261.25,-408 152.75,-408 152.75,-372 261.25,-372 261.25,-408"/>
<text text-anchor="middle" x="207" y="-386.3" font-family="Times,serif" font-size="14.00">frontend_varnish</text>
</g>
<!-- the_internet&#45;&gt;frontend_varnish -->
<g id="edge2" class="edge"><title>the_internet&#45;&gt;frontend_varnish</title>
<path fill="none" stroke="black" stroke-dasharray="5,2" d="M196.792,-515.921C192.899,-505.071 188.934,-492.106 187,-480 184.476,-464.2 184.129,-459.74 187,-444 188.606,-435.196 191.597,-425.954 194.786,-417.698"/>
<polygon fill="black" stroke="black" points="198.121,-418.791 198.694,-408.212 191.649,-416.125 198.121,-418.791"/>
</g>
<!-- ssl_terminators&#45;&gt;frontend_varnish -->
<g id="edge3" class="edge"><title>ssl_terminators&#45;&gt;frontend_varnish</title>
<path fill="none" stroke="black" d="M236.36,-443.697C231.873,-435.644 226.441,-425.894 221.476,-416.982"/>
<polygon fill="black" stroke="black" points="224.454,-415.137 216.53,-408.104 218.339,-418.544 224.454,-415.137"/>
</g>
<!-- backend_varnish -->
<g id="node4" class="node"><title>backend_varnish</title>
<polygon fill="none" stroke="black" points="261,-336 153,-336 153,-300 261,-300 261,-336"/>
<text text-anchor="middle" x="207" y="-314.3" font-family="Times,serif" font-size="14.00">backend_varnish</text>
</g>
<!-- frontend_varnish&#45;&gt;backend_varnish -->
<g id="edge4" class="edge"><title>frontend_varnish&#45;&gt;backend_varnish</title>
<polygon fill="black" stroke="none" stroke-width="10" points="212,-371.697 211.768,-370.047 211.531,-368.355 211.288,-366.627 211.041,-364.866 210.789,-363.078 210.535,-361.267 210.278,-359.438 210.019,-357.595 209.759,-355.743 209.498,-353.886 209.237,-352.03 208.977,-350.179 208.718,-348.337 208.462,-346.51 208.208,-344.701 207.957,-342.916 207.71,-341.159 207.468,-339.435 207.231,-337.749 207,-336.104 207,-336.104 206.769,-337.749 206.532,-339.435 206.29,-341.159 206.043,-342.916 205.792,-344.701 205.538,-346.51 205.282,-348.337 205.023,-350.179 204.763,-352.03 204.502,-353.886 204.241,-355.743 203.981,-357.595 203.722,-359.438 203.465,-361.267 203.211,-363.078 202.959,-364.866 202.712,-366.627 202.469,-368.355 202.232,-370.047 202,-371.697 212,-371.697"/>
</g>
<!-- web -->
<g id="node5" class="node"><title>web</title>
<polygon fill="none" stroke="black" points="144,-217 144,-263 198,-263 198,-217 144,-217"/>
<text text-anchor="middle" x="171" y="-247.8" font-family="Times,serif" font-size="14.00">apache</text>
<polyline fill="none" stroke="black" points="144,-240 198,-240 "/>
<text text-anchor="middle" x="171" y="-224.8" font-family="Times,serif" font-size="14.00">hhvm</text>
</g>
<!-- backend_varnish&#45;&gt;web -->
<g id="edge5" class="edge"><title>backend_varnish&#45;&gt;web</title>
<path fill="none" stroke="black" d="M198.831,-299.754C194.972,-291.609 190.244,-281.627 185.788,-272.219"/>
<polygon fill="black" stroke="black" points="188.908,-270.63 181.464,-263.091 182.582,-273.627 188.908,-270.63"/>
</g>
<!-- api -->
<g id="node6" class="node"><title>api</title>
<polygon fill="none" stroke="black" points="252,-217 252,-263 306,-263 306,-217 252,-217"/>
<text text-anchor="middle" x="279" y="-247.8" font-family="Times,serif" font-size="14.00">apache</text>
<polyline fill="none" stroke="black" points="252,-240 306,-240 "/>
<text text-anchor="middle" x="279" y="-224.8" font-family="Times,serif" font-size="14.00">hhvm</text>
</g>
<!-- backend_varnish&#45;&gt;api -->
<g id="edge6" class="edge"><title>backend_varnish&#45;&gt;api</title>
<path fill="none" stroke="black" d="M223.338,-299.754C231.537,-291.099 241.7,-280.372 251.089,-270.462"/>
<polygon fill="black" stroke="black" points="253.735,-272.757 258.072,-263.091 248.654,-267.943 253.735,-272.757"/>
</g>
<!-- mysql_master -->
<g id="node7" class="node"><title>mysql_master</title>
<polygon fill="none" stroke="black" points="344,-180 250,-180 250,-144 344,-144 344,-180"/>
<text text-anchor="middle" x="297" y="-158.3" font-family="Times,serif" font-size="14.00">mysql_master</text>
</g>
<!-- web&#45;&gt;mysql_master -->
<g id="edge7" class="edge"><title>web&#45;&gt;mysql_master</title>
<path fill="none" stroke="black" d="M198.03,-222.696C216.09,-211.803 240.08,-197.333 259.917,-185.367"/>
<polygon fill="black" stroke="black" points="261.948,-188.23 268.704,-180.068 258.333,-182.236 261.948,-188.23"/>
</g>
<!-- mysql_slave -->
<g id="node8" class="node"><title>mysql_slave</title>
<polygon fill="none" stroke="black" points="318.25,-108 233.75,-108 233.75,-72 318.25,-72 318.25,-108"/>
<text text-anchor="middle" x="276" y="-86.3" font-family="Times,serif" font-size="14.00">mysql_slave</text>
</g>
<!-- web&#45;&gt;mysql_slave -->
<g id="edge8" class="edge"><title>web&#45;&gt;mysql_slave</title>
<path fill="none" stroke="black" d="M143.614,-222.158C116.184,-203.148 80.7352,-171.311 101,-144 128.901,-106.397 182.746,-94.5312 223.376,-91.2274"/>
<polygon fill="black" stroke="black" points="223.651,-94.7169 233.397,-90.5615 223.187,-87.7324 223.651,-94.7169"/>
</g>
<!-- redis -->
<g id="node9" class="node"><title>redis</title>
<polygon fill="none" stroke="black" points="54,-180 0,-180 0,-144 54,-144 54,-180"/>
<text text-anchor="middle" x="27" y="-158.3" font-family="Times,serif" font-size="14.00">redis</text>
</g>
<!-- web&#45;&gt;redis -->
<g id="edge9" class="edge"><title>web&#45;&gt;redis</title>
<path fill="none" stroke="black" d="M143.915,-224.705C121.131,-212.68 88.356,-195.382 63.3018,-182.159"/>
<polygon fill="black" stroke="black" points="64.931,-179.062 54.4534,-177.489 61.6636,-185.252 64.931,-179.062"/>
</g>
<!-- elasticsearch -->
<g id="node10" class="node"><title>elasticsearch</title>
<polygon fill="none" stroke="black" points="196,-180 110,-180 110,-144 196,-144 196,-180"/>
<text text-anchor="middle" x="153" y="-158.3" font-family="Times,serif" font-size="14.00">elasticsearch</text>
</g>
<!-- web&#45;&gt;elasticsearch -->
<g id="edge10" class="edge"><title>web&#45;&gt;elasticsearch</title>
<path fill="none" stroke="black" d="M165.697,-216.609C163.75,-208.391 161.525,-198.994 159.486,-190.387"/>
<polygon fill="black" stroke="black" points="162.834,-189.336 157.124,-180.412 156.023,-190.95 162.834,-189.336"/>
</g>
<!-- swift -->
<g id="node11" class="node"><title>swift</title>
<polygon fill="none" stroke="black" points="416,-180 362,-180 362,-144 416,-144 416,-180"/>
<text text-anchor="middle" x="389" y="-158.3" font-family="Times,serif" font-size="14.00">swift</text>
</g>
<!-- web&#45;&gt;swift -->
<g id="edge11" class="edge"><title>web&#45;&gt;swift</title>
<path fill="none" stroke="black" d="M198.048,-230.332C240.811,-216.616 321.7,-190.616 352.008,-179.925"/>
<polygon fill="black" stroke="black" points="353.477,-183.113 361.642,-176.361 351.048,-176.548 353.477,-183.113"/>
</g>
<!-- api&#45;&gt;mysql_master -->
<g id="edge12" class="edge"><title>api&#45;&gt;mysql_master</title>
<path fill="none" stroke="black" d="M284.303,-216.609C286.25,-208.391 288.475,-198.994 290.514,-190.387"/>
<polygon fill="black" stroke="black" points="293.977,-190.95 292.876,-180.412 287.166,-189.336 293.977,-190.95"/>
</g>
<!-- api&#45;&gt;mysql_slave -->
<g id="edge13" class="edge"><title>api&#45;&gt;mysql_slave</title>
<path fill="none" stroke="black" d="M306.101,-233.507C357.016,-221.928 458.913,-192.057 425,-144 403.337,-113.302 362.259,-100.279 328.712,-94.8062"/>
<polygon fill="black" stroke="black" points="328.97,-91.3072 318.572,-93.3389 327.968,-98.2351 328.97,-91.3072"/>
</g>
<!-- api&#45;&gt;redis -->
<g id="edge14" class="edge"><title>api&#45;&gt;redis</title>
<path fill="none" stroke="black" d="M251.694,-230.116C238.257,-225.785 221.803,-220.543 207,-216 157.611,-200.842 100.335,-184.125 63.8987,-173.597"/>
<polygon fill="black" stroke="black" points="64.7765,-170.208 54.1982,-170.799 62.836,-176.934 64.7765,-170.208"/>
</g>
<!-- api&#45;&gt;elasticsearch -->
<g id="edge15" class="edge"><title>api&#45;&gt;elasticsearch</title>
<path fill="none" stroke="black" d="M251.97,-222.696C233.91,-211.803 209.92,-197.333 190.083,-185.367"/>
<polygon fill="black" stroke="black" points="191.667,-182.236 181.296,-180.068 188.052,-188.23 191.667,-182.236"/>
</g>
<!-- api&#45;&gt;swift -->
<g id="edge16" class="edge"><title>api&#45;&gt;swift</title>
<path fill="none" stroke="black" d="M306.191,-220.213C321.222,-209.829 340.012,-196.846 355.893,-185.874"/>
<polygon fill="black" stroke="black" points="358.136,-188.578 364.374,-180.014 354.157,-182.819 358.136,-188.578"/>
</g>
<!-- mysql_master&#45;&gt;mysql_slave -->
<g id="edge25" class="edge"><title>mysql_master&#45;&gt;mysql_slave</title>
<path fill="none" stroke="#880000" d="M291.809,-143.697C289.469,-135.898 286.653,-126.509 284.049,-117.829"/>
<polygon fill="#880000" stroke="#880000" points="287.357,-116.677 281.131,-108.104 280.652,-118.688 287.357,-116.677"/>
</g>
<!-- jobrunner -->
<g id="node12" class="node"><title>jobrunner</title>
<polygon fill="none" stroke="black" points="211.25,-36 142.75,-36 142.75,-0 211.25,-0 211.25,-36"/>
<text text-anchor="middle" x="177" y="-14.3" font-family="Times,serif" font-size="14.00">jobrunner</text>
</g>
<!-- mysql_master&#45;&gt;jobrunner -->
<g id="edge18" class="edge"><title>mysql_master&#45;&gt;jobrunner</title>
<path fill="none" stroke="#8800cc" d="M258.549,-138.018C246.514,-129.6 233.825,-119.331 224,-108 204.997,-86.0851 190.877,-55.1692 183.297,-36.14"/>
<polygon fill="#8800cc" stroke="#8800cc" points="256.897,-141.125 267.147,-143.808 260.808,-135.319 256.897,-141.125"/>
</g>
<!-- imagescaler -->
<g id="node13" class="node"><title>imagescaler</title>
<polygon fill="none" stroke="black" points="388,-36 306,-36 306,-0 388,-0 388,-36"/>
<text text-anchor="middle" x="347" y="-14.3" font-family="Times,serif" font-size="14.00">imagescaler</text>
</g>
<!-- mysql_master&#45;&gt;imagescaler -->
<g id="edge22" class="edge"><title>mysql_master&#45;&gt;imagescaler</title>
<path fill="none" stroke="#8800cc" d="M313.54,-135.33C318.429,-126.882 323.424,-117.273 327,-108 336.288,-83.915 341.857,-54.4192 344.677,-36.1672"/>
<polygon fill="#8800cc" stroke="#8800cc" points="310.499,-133.596 308.348,-143.97 316.499,-137.202 310.499,-133.596"/>
</g>
<!-- mysql_slave&#45;&gt;jobrunner -->
<g id="edge19" class="edge"><title>mysql_slave&#45;&gt;jobrunner</title>
<path fill="none" stroke="#8800cc" d="M243.524,-66.0371C229.775,-56.3156 214.031,-45.1832 201.311,-36.1898"/>
<polygon fill="#8800cc" stroke="#8800cc" points="241.596,-68.9605 251.782,-71.8761 245.637,-63.2449 241.596,-68.9605"/>
</g>
<!-- mysql_slave&#45;&gt;imagescaler -->
<g id="edge23" class="edge"><title>mysql_slave&#45;&gt;imagescaler</title>
<path fill="none" stroke="#8800cc" d="M300.873,-64.4775C310.376,-55.1084 320.998,-44.636 329.651,-36.1043"/>
<polygon fill="#8800cc" stroke="#8800cc" points="298.214,-62.1835 293.551,-71.6966 303.129,-67.1682 298.214,-62.1835"/>
</g>
<!-- redis&#45;&gt;jobrunner -->
<g id="edge20" class="edge"><title>redis&#45;&gt;jobrunner</title>
<path fill="none" stroke="#8800cc" d="M52.708,-136.663C82.9365,-108.047 132.34,-61.2785 158.842,-36.1893"/>
<polygon fill="#8800cc" stroke="#8800cc" points="49.9494,-134.455 45.0935,-143.871 54.7618,-139.538 49.9494,-134.455"/>
</g>
<!-- elasticsearch&#45;&gt;elasticsearch -->
<g id="edge17" class="edge"><title>elasticsearch&#45;&gt;elasticsearch</title>
<polygon fill="black" stroke="none" stroke-width="10" points="196.332,-173.622 197.893,-173.342 199.453,-173.036 200.966,-172.71 202.428,-172.361 203.837,-171.991 205.19,-171.599 206.485,-171.184 207.719,-170.747 208.891,-170.284 209.999,-169.795 211.043,-169.276 212.02,-168.723 212.931,-168.129 213.772,-167.483 214.54,-166.775 215.222,-165.987 215.796,-165.107 216.228,-164.131 216.476,-163.081 216.512,-162 216.337,-160.947 215.966,-159.977 215.435,-159.124 214.785,-158.398 214.048,-157.787 213.241,-157.274 212.373,-156.841 211.445,-156.473 210.458,-156.162 209.412,-155.9 208.308,-155.683 207.147,-155.506 205.929,-155.368 204.657,-155.267 203.334,-155.202 201.961,-155.17 200.542,-155.172 199.079,-155.206 197.576,-155.272 196.036,-155.369 196.036,-155.369 197.55,-155.647 199.014,-155.945 200.423,-156.261 201.772,-156.596 203.058,-156.948 204.276,-157.317 205.421,-157.702 206.487,-158.1 207.47,-158.511 208.363,-158.931 209.159,-159.357 209.852,-159.786 210.434,-160.208 210.899,-160.616 211.24,-160.994 211.46,-161.326 211.566,-161.592 211.585,-161.783 211.55,-161.908 211.488,-162 211.41,-162.064 211.323,-162.109 211.205,-162.177 211.023,-162.29 210.749,-162.444 210.368,-162.627 209.876,-162.823 209.277,-163.018 208.574,-163.204 207.776,-163.374 206.887,-163.522 205.915,-163.647 204.865,-163.745 203.743,-163.816 202.555,-163.859 201.305,-163.873 199.998,-163.857 198.64,-163.813 197.234,-163.739 195.741,-163.64 196.332,-173.622"/>
</g>
<!-- elasticsearch&#45;&gt;elasticsearch -->
<g id="edge26" class="edge"><title>elasticsearch&#45;&gt;elasticsearch</title>
<polygon fill="#880000" stroke="none" stroke-width="10" points="195.812,-180.283 198.76,-180.262 201.725,-180.158 204.626,-179.968 207.453,-179.693 210.198,-179.331 212.851,-178.884 215.404,-178.35 217.848,-177.728 220.174,-177.017 222.374,-176.214 224.441,-175.315 226.364,-174.315 228.133,-173.206 229.737,-171.981 231.157,-170.628 232.371,-169.139 233.345,-167.513 234.044,-165.763 234.438,-163.914 234.509,-162 234.263,-160.116 233.714,-158.354 232.888,-156.739 231.82,-155.287 230.542,-154 229.083,-152.867 227.462,-151.876 225.693,-151.015 223.785,-150.273 221.747,-149.643 219.586,-149.119 217.312,-148.696 214.931,-148.372 212.453,-148.145 209.887,-148.011 207.242,-147.97 204.528,-148.021 201.754,-148.162 198.931,-148.392 196.068,-148.711 196.068,-148.711 198.943,-148.735 201.759,-148.842 204.503,-149.031 207.166,-149.3 209.735,-149.648 212.2,-150.075 214.548,-150.578 216.768,-151.156 218.847,-151.806 220.772,-152.525 222.531,-153.309 224.109,-154.153 225.495,-155.048 226.678,-155.984 227.648,-156.949 228.406,-157.929 228.957,-158.917 229.314,-159.912 229.491,-160.932 229.491,-162 229.316,-163.039 228.984,-163.971 228.5,-164.83 227.855,-165.644 227.033,-166.424 226.024,-167.169 224.824,-167.87 223.439,-168.518 221.875,-169.103 220.145,-169.618 218.259,-170.059 216.232,-170.42 214.075,-170.7 211.802,-170.897 209.424,-171.01 206.955,-171.037 204.405,-170.98 201.787,-170.838 199.114,-170.611 196.324,-170.296 195.812,-180.283"/>
</g>
<!-- elasticsearch&#45;&gt;jobrunner -->
<g id="edge21" class="edge"><title>elasticsearch&#45;&gt;jobrunner</title>
<path fill="none" stroke="#8800cc" d="M157.618,-133.679C162.484,-104.888 169.999,-60.4244 174.095,-36.1893"/>
<polygon fill="#8800cc" stroke="#8800cc" points="154.11,-133.428 155.895,-143.871 161.013,-134.595 154.11,-133.428"/>
</g>
<!-- swift&#45;&gt;imagescaler -->
<g id="edge24" class="edge"><title>swift&#45;&gt;imagescaler</title>
<path fill="none" stroke="#8800cc" d="M381.031,-134.059C372.519,-105.28 359.284,-60.5311 352.084,-36.1893"/>
<polygon fill="#8800cc" stroke="#8800cc" points="377.741,-135.275 383.934,-143.871 384.454,-133.289 377.741,-135.275"/>
</g>
</g>
</svg>
