<?xml version="1.0" encoding="UTF-8" standalone="no"?>
<!DOCTYPE svg PUBLIC "-//W3C//DTD SVG 1.1//EN"
 "http://www.w3.org/Graphics/SVG/1.1/DTD/svg11.dtd">
<!-- Generated by graphviz version 2.36.0 (20140111.2315)
 -->
<!-- Title: WMF Pages: 1 -->
<svg width="610pt" height="590pt"
 viewBox="0.00 0.00 610.00 590.42" xmlns="http://www.w3.org/2000/svg" xmlns:xlink="http://www.w3.org/1999/xlink">
<g id="graph0" class="graph" transform="scale(1 1) rotate(0) translate(4 586.419)">
<title>WMF</title>
<polygon fill="white" stroke="none" points="-4,4 -4,-586.419 606,-586.419 606,4 -4,4"/>
<!-- the_internet -->
<g id="node1" class="node"><title>the_internet</title>
<polygon fill="none" stroke="black" points="335.537,-548.963 335.537,-563.875 302.418,-574.419 255.582,-574.419 222.463,-563.875 222.463,-548.963 255.582,-538.419 302.418,-538.419 335.537,-548.963"/>
<polygon fill="none" stroke="black" points="339.506,-546.032 339.506,-566.806 303.03,-578.419 254.97,-578.419 218.494,-566.806 218.494,-546.032 254.97,-534.419 303.03,-534.419 339.506,-546.032"/>
<polygon fill="none" stroke="black" points="343.474,-543.101 343.474,-569.737 303.642,-582.419 254.358,-582.419 214.526,-569.737 214.526,-543.101 254.358,-530.419 303.642,-530.419 343.474,-543.101"/>
<text text-anchor="middle" x="279" y="-552.719" font-family="Times,serif" font-size="14.00">the_internet</text>
</g>
<!-- ssl_terminators -->
<g id="node2" class="node"><title>ssl_terminators</title>
<polygon fill="none" stroke="black" points="290,-494.419 190,-494.419 190,-458.419 290,-458.419 290,-494.419"/>
<text text-anchor="middle" x="240" y="-472.719" font-family="Times,serif" font-size="14.00">ssl_terminators</text>
</g>
<!-- the_internet&#45;&gt;ssl_terminators -->
<g id="edge1" class="edge"><title>the_internet&#45;&gt;ssl_terminators</title>
<path fill="none" stroke="black" d="M266.445,-530.31C261.922,-521.264 256.826,-511.071 252.323,-502.065"/>
<ellipse fill="black" stroke="black" cx="250.494" cy="-498.407" rx="4.00002" ry="4.00002"/>
</g>
<!-- frontend_varnish -->
<g id="node3" class="node"><title>frontend_varnish</title>
<polygon fill="none" stroke="black" points="333.25,-422.419 224.75,-422.419 224.75,-386.419 333.25,-386.419 333.25,-422.419"/>
<text text-anchor="middle" x="279" y="-400.719" font-family="Times,serif" font-size="14.00">frontend_varnish</text>
</g>
<!-- the_internet&#45;&gt;frontend_varnish -->
<g id="edge2" class="edge"><title>the_internet&#45;&gt;frontend_varnish</title>
<path fill="none" stroke="black" stroke-dasharray="5,2" d="M289.208,-530.341C293.101,-519.49 297.066,-506.525 299,-494.419 301.524,-478.619 301.871,-474.159 299,-458.419 297.271,-448.937 293.934,-438.948 290.475,-430.23"/>
<ellipse fill="black" stroke="black" cx="288.846" cy="-426.323" rx="4.00001" ry="4.00001"/>
</g>
<!-- ssl_terminators&#45;&gt;frontend_varnish -->
<g id="edge3" class="edge"><title>ssl_terminators&#45;&gt;frontend_varnish</title>
<path fill="none" stroke="black" d="M249.64,-458.116C254.127,-450.063 259.559,-440.314 264.524,-431.402"/>
<polygon fill="black" stroke="black" points="265.976,-420.577 272.965,-424.47 269.071,-431.459 262.083,-427.565 265.976,-420.577"/>
<polyline fill="none" stroke="black" points="265.577,-429.512 264.603,-431.259 "/>
</g>
<!-- backend_varnish -->
<g id="node4" class="node"><title>backend_varnish</title>
<polygon fill="none" stroke="black" points="333,-350.419 225,-350.419 225,-314.419 333,-314.419 333,-350.419"/>
<text text-anchor="middle" x="279" y="-328.719" font-family="Times,serif" font-size="14.00">backend_varnish</text>
</g>
<!-- frontend_varnish&#45;&gt;backend_varnish -->
<g id="edge4" class="edge"><title>frontend_varnish&#45;&gt;backend_varnish</title>
<path fill="none" stroke="black" d="M279,-386.116C279,-378.995 279,-370.549 279,-362.527"/>
<polygon fill="black" stroke="black" points="279,-362.523 275,-356.523 279,-350.523 283,-356.523 279,-362.523"/>
</g>
<!-- web -->
<g id="node5" class="node"><title>web</title>
<polygon fill="none" stroke="black" points="160.5,-231.419 160.5,-277.419 253.5,-277.419 253.5,-231.419 160.5,-231.419"/>
<text text-anchor="middle" x="180" y="-250.719" font-family="Times,serif" font-size="14.00">web</text>
<polyline fill="none" stroke="black" points="199.5,-231.419 199.5,-277.419 "/>
<text text-anchor="middle" x="226.5" y="-262.219" font-family="Times,serif" font-size="14.00">apache</text>
<polyline fill="none" stroke="black" points="199.5,-254.419 253.5,-254.419 "/>
<text text-anchor="middle" x="226.5" y="-239.219" font-family="Times,serif" font-size="14.00">hhvm</text>
</g>
<!-- backend_varnish&#45;&gt;web -->
<g id="edge5" class="edge"><title>backend_varnish&#45;&gt;web:apache:n</title>
<path fill="none" stroke="black" d="M249.053,-314.387C240.203,-307.54 231.977,-298.783 228.608,-288.402"/>
<polygon fill="black" stroke="black" points="223.051,-279.055 230.949,-277.783 232.221,-285.681 224.323,-286.953 223.051,-279.055"/>
<polyline fill="none" stroke="black" points="228.272,-286.317 228.59,-288.292 "/>
</g>
<!-- api -->
<g id="node6" class="node"><title>api</title>
<polygon fill="none" stroke="black" points="271.5,-231.419 271.5,-277.419 358.5,-277.419 358.5,-231.419 271.5,-231.419"/>
<text text-anchor="middle" x="288" y="-250.719" font-family="Times,serif" font-size="14.00">api</text>
<polyline fill="none" stroke="black" points="304.5,-231.419 304.5,-277.419 "/>
<text text-anchor="middle" x="331.5" y="-262.219" font-family="Times,serif" font-size="14.00">apache</text>
<polyline fill="none" stroke="black" points="304.5,-254.419 358.5,-254.419 "/>
<text text-anchor="middle" x="331.5" y="-239.219" font-family="Times,serif" font-size="14.00">hhvm</text>
</g>
<!-- backend_varnish&#45;&gt;api -->
<g id="edge6" class="edge"><title>backend_varnish&#45;&gt;api:apache:n</title>
<path fill="none" stroke="black" d="M309.83,-314.282C318.757,-307.471 327.01,-298.763 330.389,-288.397"/>
<polygon fill="black" stroke="black" points="328.051,-277.781 335.949,-279.057 334.673,-286.955 326.776,-285.679 328.051,-277.781"/>
<polyline fill="none" stroke="black" points="330.724,-286.317 330.406,-288.291 "/>
</g>
<!-- web_service_collector -->
<g id="node7" class="node"><title>web_service_collector</title>
<ellipse fill="black" stroke="black" cx="279" cy="-194.419" rx="0" ry="0"/>
</g>
<!-- web&#45;&gt;web_service_collector -->
<g id="edge7" class="edge"><title>web:hhvm:s&#45;&gt;web_service_collector</title>
<path fill="none" stroke="black" d="M227,-230.419C227,-203.431 275.801,-195.886 278.851,-195.44"/>
</g>
<!-- api&#45;&gt;web_service_collector -->
<g id="edge8" class="edge"><title>api:hhvm:s&#45;&gt;web_service_collector</title>
<path fill="none" stroke="black" d="M332,-230.419C332,-203.073 282.261,-195.863 279.152,-195.439"/>
</g>
<!-- mysql_master -->
<g id="node8" class="node"><title>mysql_master</title>
<polygon fill="none" stroke="black" points="94,-158.419 -7.10543e-15,-158.419 -7.10543e-15,-122.419 94,-122.419 94,-158.419"/>
<text text-anchor="middle" x="47" y="-136.719" font-family="Times,serif" font-size="14.00">mysql_master</text>
</g>
<!-- web_service_collector&#45;&gt;mysql_master -->
<g id="edge9" class="edge"><title>web_service_collector&#45;&gt;mysql_master:n</title>
<path fill="none" stroke="black" d="M278.832,-193.413C272.548,-193.165 91.9976,-185.894 53.9828,-165.994"/>
<polygon fill="black" stroke="black" points="44.059,-161.13 49.941,-155.708 55.3634,-161.59 49.4814,-167.012 44.059,-161.13"/>
<polyline fill="none" stroke="black" points="52.4224,-164.301 53.778,-165.772 "/>
</g>
<!-- mysql_slave -->
<g id="node9" class="node"><title>mysql_slave</title>
<polygon fill="none" stroke="black" points="197.25,-158.419 112.75,-158.419 112.75,-122.419 197.25,-122.419 197.25,-158.419"/>
<text text-anchor="middle" x="155" y="-136.719" font-family="Times,serif" font-size="14.00">mysql_slave</text>
</g>
<!-- web_service_collector&#45;&gt;mysql_slave -->
<g id="edge10" class="edge"><title>web_service_collector&#45;&gt;mysql_slave:n</title>
<path fill="none" stroke="black" d="M278.91,-193.414C275.595,-193.238 181.563,-188.065 159.57,-167.463"/>
<polygon fill="black" stroke="black" points="151.43,-160.223 158.57,-156.615 162.178,-163.756 155.037,-167.363 151.43,-160.223"/>
<polyline fill="none" stroke="black" points="158.608,-165.559 159.51,-167.345 "/>
</g>
<!-- redis -->
<g id="node10" class="node"><title>redis</title>
<polygon fill="none" stroke="black" points="270,-158.419 216,-158.419 216,-122.419 270,-122.419 270,-158.419"/>
<text text-anchor="middle" x="243" y="-136.719" font-family="Times,serif" font-size="14.00">redis</text>
</g>
<!-- web_service_collector&#45;&gt;redis -->
<g id="edge11" class="edge"><title>web_service_collector&#45;&gt;redis:n</title>
<path fill="none" stroke="black" d="M278.897,-193.382C277.132,-192.742 253.233,-183.847 245.439,-168.317"/>
<polygon fill="black" stroke="black" points="239.116,-159.376 246.884,-157.462 248.798,-165.23 241.03,-167.144 239.116,-159.376"/>
<polyline fill="none" stroke="black" points="244.914,-166.187 245.393,-168.129 "/>
</g>
<!-- elasticsearch -->
<g id="node11" class="node"><title>elasticsearch</title>
<polygon fill="none" stroke="black" points="548,-158.419 462,-158.419 462,-122.419 548,-122.419 548,-158.419"/>
<text text-anchor="middle" x="505" y="-136.719" font-family="Times,serif" font-size="14.00">elasticsearch</text>
</g>
<!-- web_service_collector&#45;&gt;elasticsearch -->
<g id="edge12" class="edge"><title>web_service_collector&#45;&gt;elasticsearch:n</title>
<path fill="none" stroke="black" d="M279.164,-193.412C285.286,-193.147 461.166,-185.371 498.198,-165.829"/>
<polygon fill="black" stroke="black" points="502.053,-155.714 507.947,-161.124 502.537,-167.017 496.643,-161.607 502.053,-155.714"/>
<polyline fill="none" stroke="black" points="499.59,-164.312 498.237,-165.786 "/>
</g>
<!-- swift -->
<g id="node12" class="node"><title>swift</title>
<polygon fill="none" stroke="black" points="342,-158.419 288,-158.419 288,-122.419 342,-122.419 342,-158.419"/>
<text text-anchor="middle" x="315" y="-136.719" font-family="Times,serif" font-size="14.00">swift</text>
</g>
<!-- web_service_collector&#45;&gt;swift -->
<g id="edge13" class="edge"><title>web_service_collector&#45;&gt;swift:n</title>
<path fill="none" stroke="black" d="M279.103,-193.382C280.868,-192.742 304.767,-183.847 312.561,-168.317"/>
<polygon fill="black" stroke="black" points="311.116,-157.462 318.884,-159.376 316.97,-167.144 309.202,-165.23 311.116,-157.462"/>
<polyline fill="none" stroke="black" points="313.086,-166.187 312.607,-168.129 "/>
</g>
<!-- memcached -->
<g id="node13" class="node"><title>memcached</title>
<polygon fill="none" stroke="black" points="443.25,-158.419 360.75,-158.419 360.75,-122.419 443.25,-122.419 443.25,-158.419"/>
<text text-anchor="middle" x="402" y="-136.719" font-family="Times,serif" font-size="14.00">memcached</text>
</g>
<!-- web_service_collector&#45;&gt;memcached -->
<g id="edge14" class="edge"><title>web_service_collector&#45;&gt;memcached:n</title>
<path fill="none" stroke="black" d="M279.089,-193.414C282.29,-193.237 370.762,-188.179 395.582,-169.006"/>
<polygon fill="black" stroke="black" points="395.779,-168.681 395.469,-161.476 402,-158.419 402.31,-165.624 395.779,-168.681"/>
</g>
<!-- mysql_master&#45;&gt;mysql_slave -->
<g id="edge33" class="edge"><title>mysql_master&#45;&gt;mysql_slave</title>
<path fill="none" stroke="#880000" d="M94.25,-140.419C96.8801,-140.419 99.5103,-140.419 102.14,-140.419"/>
<polygon fill="#880000" stroke="#880000" points="102.285,-143.919 112.285,-140.419 102.285,-136.919 102.285,-143.919"/>
</g>
<!-- job_service_collector -->
<g id="node14" class="node"><title>job_service_collector</title>
<ellipse fill="black" stroke="black" cx="243" cy="-85.4191" rx="0" ry="0"/>
</g>
<!-- mysql_master&#45;&gt;job_service_collector -->
<!-- mysql_slave&#45;&gt;job_service_collector -->
<!-- redis&#45;&gt;job_service_collector -->
<!-- elasticsearch&#45;&gt;elasticsearch -->
<g id="edge15" class="edge"><title>elasticsearch:s&#45;&gt;elasticsearch:e</title>
<path fill="none" stroke="black" d="M505,-122.419C525.333,-117.919 566,-117.919 566,-131.419 566,-137.747 563.363,-141.109 559.944,-142.431"/>
<polygon fill="black" stroke="black" points="559.833,-142.413 553.252,-145.36 548,-140.419 554.581,-137.472 559.833,-142.413"/>
</g>
<!-- elasticsearch&#45;&gt;elasticsearch -->
<g id="edge32" class="edge"><title>elasticsearch:s&#45;&gt;elasticsearch:e</title>
<path fill="none" stroke="#8800cc" d="M505,-122.419C531.333,-113.419 584,-113.419 584,-131.419 584,-144.778 570.78,-148.223 559.057,-145.431"/>
<polygon fill="#8800cc" stroke="#8800cc" points="558.93,-145.373 551.813,-146.539 548,-140.419 555.116,-139.253 558.93,-145.373"/>
</g>
<!-- elasticsearch&#45;&gt;elasticsearch -->
<g id="edge34" class="edge"><title>elasticsearch:s&#45;&gt;elasticsearch:e</title>
<path fill="none" stroke="#880000" d="M505,-122.419C537.333,-108.919 602,-108.919 602,-131.419 602,-150.052 577.312,-153.254 558.602,-146.138"/>
<polygon fill="#880000" stroke="#880000" points="558.562,-146.116 551.382,-146.788 548,-140.419 555.18,-139.747 558.562,-146.116"/>
</g>
<!-- jobrunner -->
<g id="node15" class="node"><title>jobrunner</title>
<polygon fill="none" stroke="black" points="413.25,-48.4191 344.75,-48.4191 344.75,-12.4191 413.25,-12.4191 413.25,-48.4191"/>
<text text-anchor="middle" x="379" y="-26.7191" font-family="Times,serif" font-size="14.00">jobrunner</text>
</g>
<!-- elasticsearch&#45;&gt;jobrunner -->
<!-- swift&#45;&gt;job_service_collector -->
<!-- memcached&#45;&gt;job_service_collector -->
<!-- job_service_collector&#45;&gt;mysql_master -->
<g id="edge26" class="edge"><title>job_service_collector:n&#45;&gt;mysql_master:s</title>
<path fill="none" stroke="#8800cc" d="M243,-86.4191C243,-171.182 63.4819,-45.5556 48.0545,-112.238"/>
<polygon fill="#8800cc" stroke="#8800cc" points="50.9787,-122.831 43.0213,-122.007 43.8456,-114.05 51.803,-114.874 50.9787,-122.831"/>
<polyline fill="none" stroke="#8800cc" points="47.8243,-114.462 48.0303,-112.472 "/>
</g>
<!-- job_service_collector&#45;&gt;mysql_slave -->
<g id="edge27" class="edge"><title>job_service_collector:n&#45;&gt;mysql_slave:s</title>
<path fill="none" stroke="#8800cc" d="M243,-86.4191C243,-124.55 171.348,-88.7716 157.354,-112.467"/>
<polygon fill="#8800cc" stroke="#8800cc" points="158.893,-123.34 151.107,-121.498 152.949,-113.713 160.734,-115.555 158.893,-123.34"/>
<polyline fill="none" stroke="#8800cc" points="156.841,-114.634 157.302,-112.688 "/>
</g>
<!-- job_service_collector&#45;&gt;redis -->
<g id="edge28" class="edge"><title>job_service_collector:n&#45;&gt;redis:s</title>
<path fill="none" stroke="#8800cc" d="M243,-86.4191C243,-98.4191 243,-103.669 243,-112.294"/>
<polygon fill="#8800cc" stroke="#8800cc" points="247,-122.419 239,-122.419 239,-114.419 247,-114.419 247,-122.419"/>
<polyline fill="none" stroke="#8800cc" points="243,-114.419 243,-112.419 "/>
</g>
<!-- job_service_collector&#45;&gt;swift -->
<g id="edge29" class="edge"><title>job_service_collector:n&#45;&gt;swift:s</title>
<path fill="none" stroke="#8800cc" d="M243,-86.4191C243,-118.004 299.114,-93.9954 312.265,-112.55"/>
<polygon fill="#8800cc" stroke="#8800cc" points="318.855,-121.351 311.145,-123.487 309.009,-115.778 316.718,-113.641 318.855,-121.351"/>
<polyline fill="none" stroke="#8800cc" points="312.864,-114.71 312.33,-112.782 "/>
</g>
<!-- job_service_collector&#45;&gt;memcached -->
<g id="edge30" class="edge"><title>job_service_collector:n&#45;&gt;memcached:s</title>
<path fill="none" stroke="#8800cc" d="M243,-86.4191C243,-154.063 381.584,-63.6286 399.99,-110.278"/>
<polygon fill="#8800cc" stroke="#8800cc" points="400.04,-110.58 404.966,-115.846 402,-122.419 397.074,-117.153 400.04,-110.58"/>
</g>
<!-- job_service_collector&#45;&gt;jobrunner -->
<!-- imagescaler -->
<g id="node16" class="node"><title>imagescaler</title>
<polygon fill="none" stroke="black" points="284,-48.4191 202,-48.4191 202,-12.4191 284,-12.4191 284,-48.4191"/>
<text text-anchor="middle" x="243" y="-26.7191" font-family="Times,serif" font-size="14.00">imagescaler</text>
</g>
<!-- job_service_collector&#45;&gt;imagescaler -->
<!-- jobrunner&#45;&gt;elasticsearch -->
<g id="edge31" class="edge"><title>jobrunner:n&#45;&gt;elasticsearch:s</title>
<path fill="none" stroke="#8800cc" d="M379,-48.4191C379,-109.557 490.667,-63.6099 503.753,-112.199"/>
<polygon fill="#8800cc" stroke="#8800cc" points="508.971,-121.935 501.029,-122.904 500.06,-114.963 508.001,-113.993 508.971,-121.935"/>
<polyline fill="none" stroke="#8800cc" points="504.031,-114.478 503.789,-112.493 "/>
</g>
<!-- jobrunner&#45;&gt;job_service_collector -->
<g id="edge24" class="edge"><title>jobrunner:n&#45;&gt;job_service_collector:s</title>
<path fill="none" stroke="#8800cc" d="M379,-48.4191C379,-110.945 243,-21.8928 243,-84.4191"/>
</g>
<!-- imagescaler&#45;&gt;job_service_collector -->
<g id="edge25" class="edge"><title>imagescaler:n&#45;&gt;job_service_collector:s</title>
<path fill="none" stroke="#8800cc" d="M243,-48.4191C243,-64.4191 243,-68.4191 243,-84.4191"/>
</g>
</g>
</svg>
