<?xml version="1.0" encoding="UTF-8" standalone="no"?>
<!DOCTYPE svg PUBLIC "-//W3C//DTD SVG 1.1//EN"
 "http://www.w3.org/Graphics/SVG/1.1/DTD/svg11.dtd">
<!-- Generated by graphviz version 2.36.0 (20140111.2315)
 -->
<!-- Title: WMF Pages: 1 -->
<svg width="339pt" height="492pt"
 viewBox="0.00 0.00 339.00 492.00" xmlns="http://www.w3.org/2000/svg" xmlns:xlink="http://www.w3.org/1999/xlink">
<g id="graph0" class="graph" transform="scale(1 1) rotate(0) translate(4 488)">
<title>WMF</title>
<polygon fill="white" stroke="none" points="-4,4 -4,-488 335,-488 335,4 -4,4"/>
<!-- the_internet -->
<g id="node1" class="node"><title>the_internet</title>
<polygon fill="none" stroke="black" points="254.537,-450.544 254.537,-465.456 221.418,-476 174.582,-476 141.463,-465.456 141.463,-450.544 174.582,-440 221.418,-440 254.537,-450.544"/>
<polygon fill="none" stroke="black" points="258.506,-447.613 258.506,-468.387 222.03,-480 173.97,-480 137.494,-468.387 137.494,-447.613 173.97,-436 222.03,-436 258.506,-447.613"/>
<polygon fill="none" stroke="black" points="262.474,-444.682 262.474,-471.318 222.642,-484 173.358,-484 133.526,-471.318 133.526,-444.682 173.358,-432 222.642,-432 262.474,-444.682"/>
<text text-anchor="middle" x="198" y="-454.3" font-family="Times,serif" font-size="14.00">the_internet</text>
</g>
<!-- ssl_terminators -->
<g id="node2" class="node"><title>ssl_terminators</title>
<polygon fill="none" stroke="black" points="287,-396 187,-396 187,-360 287,-360 287,-396"/>
<text text-anchor="middle" x="237" y="-374.3" font-family="Times,serif" font-size="14.00">ssl_terminators</text>
</g>
<!-- the_internet&#45;&gt;ssl_terminators -->
<g id="edge1" class="edge"><title>the_internet&#45;&gt;ssl_terminators</title>
<path fill="none" stroke="black" d="M210.555,-431.891C214.761,-423.478 219.463,-414.073 223.723,-405.553"/>
<polygon fill="black" stroke="black" points="226.953,-406.92 228.295,-396.411 220.692,-403.79 226.953,-406.92"/>
</g>
<!-- frontend_varnish -->
<g id="node3" class="node"><title>frontend_varnish</title>
<polygon fill="none" stroke="black" points="252.25,-324 143.75,-324 143.75,-288 252.25,-288 252.25,-324"/>
<text text-anchor="middle" x="198" y="-302.3" font-family="Times,serif" font-size="14.00">frontend_varnish</text>
</g>
<!-- the_internet&#45;&gt;frontend_varnish -->
<g id="edge2" class="edge"><title>the_internet&#45;&gt;frontend_varnish</title>
<path fill="none" stroke="black" stroke-dasharray="5,2" d="M187.792,-431.921C183.899,-421.071 179.934,-408.106 178,-396 175.476,-380.2 175.129,-375.74 178,-360 179.606,-351.196 182.597,-341.954 185.786,-333.698"/>
<polygon fill="black" stroke="black" points="189.121,-334.791 189.694,-324.212 182.649,-332.125 189.121,-334.791"/>
</g>
<!-- ssl_terminators&#45;&gt;frontend_varnish -->
<g id="edge3" class="edge"><title>ssl_terminators&#45;&gt;frontend_varnish</title>
<path fill="none" stroke="black" d="M227.36,-359.697C222.873,-351.644 217.441,-341.894 212.476,-332.982"/>
<polygon fill="black" stroke="black" points="215.454,-331.137 207.53,-324.104 209.339,-334.544 215.454,-331.137"/>
</g>
<!-- backend_varnish -->
<g id="node4" class="node"><title>backend_varnish</title>
<polygon fill="none" stroke="black" points="252,-252 144,-252 144,-216 252,-216 252,-252"/>
<text text-anchor="middle" x="198" y="-230.3" font-family="Times,serif" font-size="14.00">backend_varnish</text>
</g>
<!-- frontend_varnish&#45;&gt;backend_varnish -->
<g id="edge4" class="edge"><title>frontend_varnish&#45;&gt;backend_varnish</title>
<polygon fill="black" stroke="none" stroke-width="10" points="203,-287.697 202.768,-286.047 202.531,-284.355 202.288,-282.627 202.041,-280.866 201.789,-279.078 201.535,-277.267 201.278,-275.438 201.019,-273.595 200.759,-271.743 200.498,-269.886 200.237,-268.03 199.977,-266.179 199.718,-264.337 199.462,-262.51 199.208,-260.701 198.957,-258.916 198.71,-257.159 198.468,-255.435 198.231,-253.749 198,-252.104 198,-252.104 197.769,-253.749 197.532,-255.435 197.29,-257.159 197.043,-258.916 196.792,-260.701 196.538,-262.51 196.282,-264.337 196.023,-266.179 195.763,-268.03 195.502,-269.886 195.241,-271.743 194.981,-273.595 194.722,-275.438 194.465,-277.267 194.211,-279.078 193.959,-280.866 193.712,-282.627 193.469,-284.355 193.232,-286.047 193,-287.697 203,-287.697"/>
</g>
<!-- apache -->
<g id="node5" class="node"><title>apache</title>
<polygon fill="none" stroke="black" points="225,-180 171,-180 171,-144 225,-144 225,-180"/>
<text text-anchor="middle" x="198" y="-158.3" font-family="Times,serif" font-size="14.00">apache</text>
</g>
<!-- backend_varnish&#45;&gt;apache -->
<g id="edge5" class="edge"><title>backend_varnish&#45;&gt;apache</title>
<path fill="none" stroke="black" d="M198,-215.697C198,-207.983 198,-198.712 198,-190.112"/>
<polygon fill="black" stroke="black" points="201.5,-190.104 198,-180.104 194.5,-190.104 201.5,-190.104"/>
</g>
<!-- hhvm -->
<g id="node6" class="node"><title>hhvm</title>
<polygon fill="none" stroke="black" points="225,-108 171,-108 171,-72 225,-72 225,-108"/>
<text text-anchor="middle" x="198" y="-86.3" font-family="Times,serif" font-size="14.00">hhvm</text>
</g>
<!-- apache&#45;&gt;hhvm -->
<g id="edge6" class="edge"><title>apache&#45;&gt;hhvm</title>
<path fill="none" stroke="black" d="M198,-143.697C198,-135.983 198,-126.712 198,-118.112"/>
<polygon fill="black" stroke="black" points="201.5,-118.104 198,-108.104 194.5,-118.104 201.5,-118.104"/>
</g>
<!-- mysql -->
<g id="node7" class="node"><title>mysql</title>
<polygon fill="none" stroke="black" points="248,-36 194,-36 194,-0 248,-0 248,-36"/>
<text text-anchor="middle" x="221" y="-14.3" font-family="Times,serif" font-size="14.00">mysql</text>
</g>
<!-- hhvm&#45;&gt;mysql -->
<g id="edge7" class="edge"><title>hhvm&#45;&gt;mysql</title>
<path fill="none" stroke="black" d="M203.685,-71.6966C206.248,-63.8979 209.333,-54.5085 212.185,-45.8292"/>
<polygon fill="black" stroke="black" points="215.584,-46.6972 215.38,-36.1043 208.933,-44.5121 215.584,-46.6972"/>
</g>
<!-- redis -->
<g id="node8" class="node"><title>redis</title>
<polygon fill="none" stroke="black" points="54,-36 0,-36 0,-0 54,-0 54,-36"/>
<text text-anchor="middle" x="27" y="-14.3" font-family="Times,serif" font-size="14.00">redis</text>
</g>
<!-- hhvm&#45;&gt;redis -->
<g id="edge8" class="edge"><title>hhvm&#45;&gt;redis</title>
<path fill="none" stroke="black" d="M170.949,-77.332C166.63,-75.5184 162.201,-73.6879 158,-72 118.804,-56.2513 106.172,-53.9125 63.3272,-35.9791"/>
<polygon fill="black" stroke="black" points="64.5965,-32.7158 54.0231,-32.0411 61.868,-39.1621 64.5965,-32.7158"/>
</g>
<!-- elasticsearch -->
<g id="node9" class="node"><title>elasticsearch</title>
<polygon fill="none" stroke="black" points="158,-36 72,-36 72,-0 158,-0 158,-36"/>
<text text-anchor="middle" x="115" y="-14.3" font-family="Times,serif" font-size="14.00">elasticsearch</text>
</g>
<!-- hhvm&#45;&gt;elasticsearch -->
<g id="edge9" class="edge"><title>hhvm&#45;&gt;elasticsearch</title>
<path fill="none" stroke="black" d="M177.483,-71.6966C167.131,-62.9655 154.414,-52.2405 143.161,-42.7503"/>
<polygon fill="black" stroke="black" points="145.182,-39.8759 135.281,-36.1043 140.669,-45.2269 145.182,-39.8759"/>
</g>
<!-- swift -->
<g id="node10" class="node"><title>swift</title>
<polygon fill="none" stroke="black" points="320,-36 266,-36 266,-0 320,-0 320,-36"/>
<text text-anchor="middle" x="293" y="-14.3" font-family="Times,serif" font-size="14.00">swift</text>
</g>
<!-- hhvm&#45;&gt;swift -->
<g id="edge10" class="edge"><title>hhvm&#45;&gt;swift</title>
<path fill="none" stroke="black" d="M221.483,-71.6966C233.563,-62.796 248.454,-51.8232 261.516,-42.1989"/>
<polygon fill="black" stroke="black" points="263.813,-44.8541 269.787,-36.1043 259.66,-39.2187 263.813,-44.8541"/>
</g>
<!-- elasticsearch&#45;&gt;elasticsearch -->
<g id="edge11" class="edge"><title>elasticsearch&#45;&gt;elasticsearch</title>
<polygon fill="black" stroke="none" stroke-width="10" points="158.624,-36.2272 160.222,-35.8804 161.861,-35.4698 163.452,-35.0051 164.992,-34.4857 166.476,-33.9105 167.902,-33.2782 169.267,-32.5872 170.565,-31.8358 171.793,-31.0218 172.945,-30.1431 174.014,-29.1978 174.993,-28.1843 175.873,-27.1025 176.645,-25.9536 177.297,-24.7412 177.821,-23.4716 178.208,-22.1532 178.452,-20.7956 178.55,-19.4088 178.503,-18 178.318,-16.6147 178.002,-15.2978 177.561,-14.0546 177.002,-12.8911 176.334,-11.8117 175.566,-10.8188 174.708,-9.91248 173.769,-9.09103 172.757,-8.35149 171.677,-7.69027 170.534,-7.10372 169.334,-6.58834 168.079,-6.14106 166.774,-5.7592 165.42,-5.44051 164.021,-5.1831 162.58,-4.98539 161.1,-4.84605 159.584,-4.76396 158.036,-4.73813 158.036,-4.73813 159.542,-5.07403 160.993,-5.45518 162.384,-5.88062 163.712,-6.3492 164.972,-6.85961 166.16,-7.41026 167.271,-7.99926 168.3,-8.62436 169.244,-9.28289 170.098,-9.97176 170.86,-10.6875 171.528,-11.4264 172.099,-12.185 172.574,-12.9602 172.955,-13.7503 173.243,-14.5555 173.44,-15.3781 173.549,-16.2225 173.569,-17.0947 173.497,-18 173.336,-18.8818 173.1,-19.6842 172.794,-20.4142 172.424,-21.0818 171.991,-21.6968 171.495,-22.2675 170.934,-22.8001 170.304,-23.2982 169.603,-23.7633 168.83,-24.1949 167.985,-24.5916 167.069,-24.9515 166.083,-25.2725 165.031,-25.5524 163.916,-25.7894 162.742,-25.982 161.512,-26.1288 160.232,-26.229 158.904,-26.2816 157.448,-26.2966 158.624,-36.2272"/>
</g>
<!-- jobrunner -->
<g id="node11" class="node"><title>jobrunner</title>
<polygon fill="none" stroke="black" points="149.25,-108 80.75,-108 80.75,-72 149.25,-72 149.25,-108"/>
<text text-anchor="middle" x="115" y="-86.3" font-family="Times,serif" font-size="14.00">jobrunner</text>
</g>
<!-- jobrunner&#45;&gt;mysql -->
<g id="edge12" class="edge"><title>jobrunner&#45;&gt;mysql</title>
<path fill="none" stroke="#8800cc" d="M140.931,-71.8761C154.662,-62.8083 171.706,-51.5523 186.536,-41.7592"/>
<polygon fill="#8800cc" stroke="#8800cc" points="188.554,-44.621 194.97,-36.1898 184.696,-38.7798 188.554,-44.621"/>
</g>
<!-- jobrunner&#45;&gt;redis -->
<g id="edge13" class="edge"><title>jobrunner&#45;&gt;redis</title>
<path fill="none" stroke="#8800cc" d="M93.2472,-71.6966C82.1643,-62.8807 68.526,-52.0321 56.5104,-42.4742"/>
<polygon fill="#8800cc" stroke="#8800cc" points="58.5075,-39.5905 48.5026,-36.1043 54.1498,-45.0687 58.5075,-39.5905"/>
</g>
<!-- jobrunner&#45;&gt;elasticsearch -->
<g id="edge14" class="edge"><title>jobrunner&#45;&gt;elasticsearch</title>
<path fill="none" stroke="#8800cc" d="M115,-71.6966C115,-63.9827 115,-54.7125 115,-46.1124"/>
<polygon fill="#8800cc" stroke="#8800cc" points="118.5,-46.1043 115,-36.1043 111.5,-46.1044 118.5,-46.1043"/>
</g>
<!-- imagescaler -->
<g id="node12" class="node"><title>imagescaler</title>
<polygon fill="none" stroke="black" points="331,-108 249,-108 249,-72 331,-72 331,-108"/>
<text text-anchor="middle" x="290" y="-86.3" font-family="Times,serif" font-size="14.00">imagescaler</text>
</g>
<!-- imagescaler&#45;&gt;mysql -->
<g id="edge15" class="edge"><title>imagescaler&#45;&gt;mysql</title>
<path fill="none" stroke="#8800cc" d="M272.944,-71.6966C264.505,-63.135 254.175,-52.6562 244.957,-43.3045"/>
<polygon fill="#8800cc" stroke="#8800cc" points="247.373,-40.7691 237.86,-36.1043 242.387,-45.6831 247.373,-40.7691"/>
</g>
<!-- imagescaler&#45;&gt;swift -->
<g id="edge16" class="edge"><title>imagescaler&#45;&gt;swift</title>
<path fill="none" stroke="#8800cc" d="M290.742,-71.6966C291.072,-63.9827 291.469,-54.7125 291.838,-46.1124"/>
<polygon fill="#8800cc" stroke="#8800cc" points="295.335,-46.2451 292.267,-36.1043 288.342,-45.9453 295.335,-46.2451"/>
</g>
</g>
</svg>
