<?xml version="1.0" encoding="UTF-8" standalone="no"?>
<!DOCTYPE svg PUBLIC "-//W3C//DTD SVG 1.1//EN"
 "http://www.w3.org/Graphics/SVG/1.1/DTD/svg11.dtd">
<!-- Generated by graphviz version 2.36.0 (20140111.2315)
 -->
<!-- Title: key Pages: 1 -->
<svg width="200pt" height="311pt"
 viewBox="0.00 0.00 200.00 311.00" xmlns="http://www.w3.org/2000/svg" xmlns:xlink="http://www.w3.org/1999/xlink">
<g id="graph0" class="graph" transform="scale(1 1) rotate(0) translate(4 307)">
<title>key</title>
<polygon fill="white" stroke="none" points="-4,4 -4,-307 196,-307 196,4 -4,4"/>
<!-- disabled_from -->
<!-- disabled -->
<g id="node2" class="node"><title>disabled</title>
<text text-anchor="middle" x="115" y="-22.8" font-family="Times,serif" font-size="14.00">Theoretical or</text>
<text text-anchor="middle" x="115" y="-7.8" font-family="Times,serif" font-size="14.00">Currently disabled</text>
</g>
<!-- disabled_from&#45;&gt;disabled -->
<g id="edge1" class="edge"><title>disabled_from&#45;&gt;disabled</title>
<path fill="none" stroke="black" stroke-dasharray="5,2" d="M2.08118,-19C3.7173,-19 29.8218,-19 56.4057,-19"/>
</g>
<!-- replication_color_from -->
<!-- replication_color -->
<g id="node4" class="node"><title>replication_color</title>
<text text-anchor="middle" x="115" y="-53.3" font-family="Times,serif" font-size="14.00" fill="#880000">Replication</text>
</g>
<!-- replication_color_from&#45;&gt;replication_color -->
<g id="edge2" class="edge"><title>replication_color_from&#45;&gt;replication_color</title>
<path fill="none" stroke="#880000" d="M2.08118,-57C4.10812,-57 43.6888,-57 75.2108,-57"/>
</g>
<!-- job_color_from -->
<!-- job_color -->
<g id="node6" class="node"><title>job_color</title>
<text text-anchor="middle" x="115" y="-90.3" font-family="Times,serif" font-size="14.00" fill="#8800cc">Job Queue</text>
</g>
<!-- job_color_from&#45;&gt;job_color -->
<g id="edge3" class="edge"><title>job_color_from&#45;&gt;job_color</title>
<path fill="none" stroke="#8800cc" d="M2.08118,-94C4.16773,-94 46.0496,-94 77.9701,-94"/>
</g>
<!-- web_color_from -->
<!-- web_color -->
<g id="node8" class="node"><title>web_color</title>
<text text-anchor="middle" x="115" y="-127.3" font-family="Times,serif" font-size="14.00">Web traffic</text>
</g>
<!-- web_color_from&#45;&gt;web_color -->
<g id="edge4" class="edge"><title>web_color_from&#45;&gt;web_color</title>
<path fill="none" stroke="black" d="M2.08118,-131C4.10149,-131 43.4306,-131 74.9016,-131"/>
</g>
<!-- direct_from -->
<!-- direct -->
<g id="node10" class="node"><title>direct</title>
<text text-anchor="middle" x="115" y="-172.8" font-family="Times,serif" font-size="14.00">Direct communiction</text>
<text text-anchor="middle" x="115" y="-157.8" font-family="Times,serif" font-size="14.00">ips are configured</text>
</g>
<!-- direct_from&#45;&gt;direct -->
<g id="edge5" class="edge"><title>direct_from&#45;&gt;direct</title>
<path fill="none" stroke="black" d="M2.08118,-169C3.32214,-169 18.6394,-169 37.5657,-169"/>
<polygon fill="black" stroke="black" points="37.7365,-172.5 47.7364,-169 37.7364,-165.5 37.7365,-172.5"/>
</g>
<!-- fancy_from -->
<!-- fancy -->
<g id="node12" class="node"><title>fancy</title>
<text text-anchor="middle" x="115" y="-211.8" font-family="Times,serif" font-size="14.00">Fancy routing like</text>
<text text-anchor="middle" x="115" y="-196.8" font-family="Times,serif" font-size="14.00">consistent hashing</text>
</g>
<!-- fancy_from&#45;&gt;fancy -->
<g id="edge6" class="edge"><title>fancy_from&#45;&gt;fancy</title>
<path fill="none" stroke="black" d="M2.08118,-208C3.47366,-208 22.5898,-208 44.6408,-208"/>
<polygon fill="black" stroke="black" points="44.7286,-208 50.7286,-204 56.7286,-208 50.7286,-212 44.7286,-208"/>
</g>
<!-- unknown_from -->
<!-- unknown -->
<g id="node14" class="node"><title>unknown</title>
<text text-anchor="middle" x="115" y="-242.3" font-family="Times,serif" font-size="14.00">Unknown communiction</text>
</g>
<!-- unknown_from&#45;&gt;unknown -->
<g id="edge7" class="edge"><title>unknown_from&#45;&gt;unknown</title>
<path fill="none" stroke="black" d="M2.08118,-246C3.15292,-246 14.7237,-246 30.051,-246"/>
<ellipse fill="black" stroke="black" cx="34.3729" cy="-246" rx="4" ry="4"/>
</g>
<!-- lvs_from -->
<!-- lvs -->
<g id="node16" class="node"><title>lvs</title>
<text text-anchor="middle" x="115" y="-287.8" font-family="Times,serif" font-size="14.00">LVS load balancing</text>
<text text-anchor="middle" x="115" y="-272.8" font-family="Times,serif" font-size="14.00">round robin</text>
</g>
<!-- lvs_from&#45;&gt;lvs -->
<g id="edge8" class="edge"><title>lvs_from&#45;&gt;lvs</title>
<path fill="none" stroke="black" d="M2.08118,-284C3.41927,-284 21.1235,-284 42.0713,-284"/>
<polygon fill="black" stroke="black" points="52.2157,-280 52.2158,-288 44.2158,-288 44.2157,-280 52.2157,-280"/>
<polyline fill="none" stroke="black" points="44.2157,-284 42.2157,-284 "/>
</g>
</g>
</svg>
