<?xml version="1.0" encoding="UTF-8" standalone="no"?>
<!DOCTYPE svg PUBLIC "-//W3C//DTD SVG 1.1//EN"
 "http://www.w3.org/Graphics/SVG/1.1/DTD/svg11.dtd">
<!-- Generated by graphviz version 2.36.0 (20140111.2315)
 -->
<!-- Title: key Pages: 1 -->
<svg width="188pt" height="214pt"
 viewBox="0.00 0.00 188.00 214.00" xmlns="http://www.w3.org/2000/svg" xmlns:xlink="http://www.w3.org/1999/xlink">
<g id="graph0" class="graph" transform="scale(1 1) rotate(0) translate(4 210)">
<title>key</title>
<polygon fill="white" stroke="none" points="-4,4 -4,-210 184,-210 184,4 -4,4"/>
<!-- job_color_from -->
<!-- job_color -->
<g id="node2" class="node"><title>job_color</title>
<text text-anchor="middle" x="109" y="-14.3" font-family="Times,serif" font-size="14.00" fill="#8800cc">Job Queue</text>
</g>
<!-- job_color_from&#45;&gt;job_color -->
<g id="edge1" class="edge"><title>job_color_from&#45;&gt;job_color</title>
<path fill="none" stroke="#8800cc" d="M2.07683,-18C3.79653,-18 34.0783,-18 61.8233,-18"/>
<polygon fill="#8800cc" stroke="#8800cc" points="61.8729,-21.5001 71.8728,-18 61.8728,-14.5001 61.8729,-21.5001"/>
</g>
<!-- web_color_from -->
<!-- web_color -->
<g id="node4" class="node"><title>web_color</title>
<text text-anchor="middle" x="109" y="-51.3" font-family="Times,serif" font-size="14.00">Web traffic</text>
</g>
<!-- web_color_from&#45;&gt;web_color -->
<g id="edge2" class="edge"><title>web_color_from&#45;&gt;web_color</title>
<path fill="none" stroke="black" d="M2.07683,-55C3.7334,-55 31.8935,-55 58.759,-55"/>
<polygon fill="black" stroke="black" points="58.9341,-58.5001 68.9341,-55 58.9341,-51.5001 58.9341,-58.5001"/>
</g>
<!-- fancy_from -->
<!-- fancy -->
<g id="node6" class="node"><title>fancy</title>
<text text-anchor="middle" x="109" y="-112.3" font-family="Times,serif" font-size="14.00">Fancy routing</text>
<text text-anchor="middle" x="109" y="-97.3" font-family="Times,serif" font-size="14.00">Consistent hashing or</text>
<text text-anchor="middle" x="109" y="-82.3" font-family="Times,serif" font-size="14.00">otherwise intelligent</text>
</g>
<!-- fancy_from&#45;&gt;fancy -->
<g id="edge3" class="edge"><title>fancy_from&#45;&gt;fancy</title>
<polygon fill="black" stroke="none" stroke-width="10" points="2.07683,-106 2.396,-105.96 2.95356,-105.89 3.73919,-105.792 4.74257,-105.666 5.9534,-105.514 7.36135,-105.338 8.95611,-105.138 10.7274,-104.916 12.6648,-104.674 14.7581,-104.412 16.9969,-104.131 19.371,-103.834 21.8699,-103.521 24.4835,-103.193 27.2014,-102.853 30.0132,-102.501 32.9087,-102.138 35.8775,-101.766 38.9093,-101.386 41.9938,-101 41.9938,-101 38.9093,-100.614 35.8775,-100.234 32.9087,-99.862 30.0132,-99.4993 27.2014,-99.1471 24.4835,-98.8067 21.8699,-98.4793 19.371,-98.1663 16.9969,-97.8689 14.7581,-97.5885 12.6648,-97.3262 10.7274,-97.0836 8.95611,-96.8617 7.36135,-96.6619 5.9534,-96.4856 4.74257,-96.3339 3.73919,-96.2082 2.95356,-96.1098 2.396,-96.04 2.07683,-96 2.07683,-106"/>
</g>
<!-- disabled_from -->
<!-- disabled -->
<g id="node8" class="node"><title>disabled</title>
<text text-anchor="middle" x="109" y="-151.8" font-family="Times,serif" font-size="14.00">Theoretical</text>
<text text-anchor="middle" x="109" y="-136.8" font-family="Times,serif" font-size="14.00">Currently disabled</text>
</g>
<!-- disabled_from&#45;&gt;disabled -->
<g id="edge4" class="edge"><title>disabled_from&#45;&gt;disabled</title>
<path fill="none" stroke="black" stroke-dasharray="5,2" d="M2.07683,-148C3.35367,-148 20.3762,-148 40.4152,-148"/>
<polygon fill="black" stroke="black" points="40.439,-151.5 50.439,-148 40.439,-144.5 40.439,-151.5"/>
</g>
<!-- noraml_from -->
<!-- normal -->
<g id="node10" class="node"><title>normal</title>
<text text-anchor="middle" x="109" y="-190.8" font-family="Times,serif" font-size="14.00">Normal load balancing</text>
<text text-anchor="middle" x="109" y="-175.8" font-family="Times,serif" font-size="14.00">LVS and round robin</text>
</g>
<!-- noraml_from&#45;&gt;normal -->
<g id="edge5" class="edge"><title>noraml_from&#45;&gt;normal</title>
<path fill="none" stroke="black" d="M2.07683,-187C3.07009,-187 13.5916,-187 27.6493,-187"/>
<polygon fill="black" stroke="black" points="27.8729,-190.5 37.8729,-187 27.8729,-183.5 27.8729,-190.5"/>
</g>
</g>
</svg>
