<?xml version="1.0" encoding="UTF-8" standalone="no"?>
<!DOCTYPE svg PUBLIC "-//W3C//DTD SVG 1.1//EN"
 "http://www.w3.org/Graphics/SVG/1.1/DTD/svg11.dtd">
<!-- Generated by graphviz version 2.36.0 (20140111.2315)
 -->
<!-- Title: key Pages: 1 -->
<svg width="188pt" height="214pt"
 viewBox="0.00 0.00 188.00 214.00" xmlns="http://www.w3.org/2000/svg" xmlns:xlink="http://www.w3.org/1999/xlink">
<g id="graph0" class="graph" transform="scale(1 1) rotate(0) translate(4 210)">
<title>key</title>
<polygon fill="white" stroke="none" points="-4,4 -4,-210 184,-210 184,4 -4,4"/>
<!-- job_color_from -->
<!-- job_color -->
<g id="node2" class="node"><title>job_color</title>
<text text-anchor="middle" x="109" y="-14.3" font-family="Times,serif" font-size="14.00" fill="#8800cc">Job Queue</text>
</g>
<!-- job_color_from&#45;&gt;job_color -->
<g id="edge1" class="edge"><title>job_color_from&#45;&gt;job_color</title>
<path fill="none" stroke="#8800cc" d="M2.07683,-18C3.79653,-18 34.0783,-18 61.8233,-18"/>
<polygon fill="#8800cc" stroke="#8800cc" points="61.8729,-21.5001 71.8728,-18 61.8728,-14.5001 61.8729,-21.5001"/>
</g>
<!-- web_color_from -->
<!-- web_color -->
<g id="node4" class="node"><title>web_color</title>
<text text-anchor="middle" x="109" y="-51.3" font-family="Times,serif" font-size="14.00">Web traffic</text>
</g>
<!-- web_color_from&#45;&gt;web_color -->
<g id="edge2" class="edge"><title>web_color_from&#45;&gt;web_color</title>
<path fill="none" stroke="black" d="M2.07683,-55C3.7334,-55 31.8935,-55 58.759,-55"/>
<polygon fill="black" stroke="black" points="58.9341,-58.5001 68.9341,-55 58.9341,-51.5001 58.9341,-58.5001"/>
</g>
<!-- fancy_from -->
<!-- fancy -->
<g id="node6" class="node"><title>fancy</title>
<text text-anchor="middle" x="109" y="-112.3" font-family="Times,serif" font-size="14.00">Fancy routing</text>
<text text-anchor="middle" x="109" y="-97.3" font-family="Times,serif" font-size="14.00">Consistent hashing</text>
<text text-anchor="middle" x="109" y="-82.3" font-family="Times,serif" font-size="14.00">or intelligent</text>
</g>
<!-- fancy_from&#45;&gt;fancy -->
<g id="edge3" class="edge"><title>fancy_from&#45;&gt;fancy</title>
<polygon fill="black" stroke="none" stroke-width="10" points="2.07683,-106 2.4481,-105.961 3.11419,-105.89 4.06078,-105.79 5.27361,-105.661 6.73835,-105.506 8.44074,-105.325 10.3665,-105.121 12.5012,-104.894 14.8308,-104.647 17.3408,-104.381 20.0169,-104.097 22.8449,-103.797 25.8105,-103.483 28.8994,-103.155 32.0973,-102.816 35.3899,-102.467 38.7629,-102.109 42.202,-101.744 45.693,-101.374 49.2214,-101 49.2214,-101 45.693,-100.626 42.202,-100.256 38.7629,-99.8908 35.3899,-99.5331 32.0973,-99.1839 28.8994,-98.8447 25.8105,-98.5171 22.8449,-98.2026 20.0169,-97.9027 17.3408,-97.6188 14.8308,-97.3526 12.5012,-97.1056 10.3665,-96.8792 8.44074,-96.6749 6.73835,-96.4944 5.27361,-96.339 4.06078,-96.2104 3.11419,-96.11 2.4481,-96.0394 2.07683,-96 2.07683,-106"/>
</g>
<!-- disabled_from -->
<!-- disabled -->
<g id="node8" class="node"><title>disabled</title>
<text text-anchor="middle" x="109" y="-151.8" font-family="Times,serif" font-size="14.00">Theoretical</text>
<text text-anchor="middle" x="109" y="-136.8" font-family="Times,serif" font-size="14.00">Currently disabled</text>
</g>
<!-- disabled_from&#45;&gt;disabled -->
<g id="edge4" class="edge"><title>disabled_from&#45;&gt;disabled</title>
<path fill="none" stroke="black" stroke-dasharray="5,2" d="M2.07683,-148C3.35367,-148 20.3762,-148 40.4152,-148"/>
<polygon fill="black" stroke="black" points="40.439,-151.5 50.439,-148 40.439,-144.5 40.439,-151.5"/>
</g>
<!-- noraml_from -->
<!-- normal -->
<g id="node10" class="node"><title>normal</title>
<text text-anchor="middle" x="109" y="-190.8" font-family="Times,serif" font-size="14.00">Normal load balancing</text>
<text text-anchor="middle" x="109" y="-175.8" font-family="Times,serif" font-size="14.00">LVS and round robin</text>
</g>
<!-- noraml_from&#45;&gt;normal -->
<g id="edge5" class="edge"><title>noraml_from&#45;&gt;normal</title>
<path fill="none" stroke="black" d="M2.07683,-187C3.07009,-187 13.5916,-187 27.6493,-187"/>
<polygon fill="black" stroke="black" points="27.8729,-190.5 37.8729,-187 27.8729,-183.5 27.8729,-190.5"/>
</g>
</g>
</svg>
