<?xml version="1.0" encoding="UTF-8" standalone="no"?>
<!DOCTYPE svg PUBLIC "-//W3C//DTD SVG 1.1//EN"
 "http://www.w3.org/Graphics/SVG/1.1/DTD/svg11.dtd">
<!-- Generated by graphviz version 2.36.0 (20140111.2315)
 -->
<!-- Title: key Pages: 1 -->
<svg width="188pt" height="251pt"
 viewBox="0.00 0.00 188.00 251.00" xmlns="http://www.w3.org/2000/svg" xmlns:xlink="http://www.w3.org/1999/xlink">
<g id="graph0" class="graph" transform="scale(1 1) rotate(0) translate(4 247)">
<title>key</title>
<polygon fill="white" stroke="none" points="-4,4 -4,-247 184,-247 184,4 -4,4"/>
<!-- replication_color_from -->
<!-- replication_color -->
<g id="node2" class="node"><title>replication_color</title>
<text text-anchor="middle" x="109" y="-14.3" font-family="Times,serif" font-size="14.00" fill="#880000">Replication Queue</text>
</g>
<!-- replication_color_from&#45;&gt;replication_color -->
<g id="edge1" class="edge"><title>replication_color_from&#45;&gt;replication_color</title>
<path fill="none" stroke="#880000" d="M2.07683,-18C3.33714,-18 19.9381,-18 39.6384,-18"/>
<polygon fill="#880000" stroke="#880000" points="39.83,-21.5001 49.8299,-18 39.8299,-14.5001 39.83,-21.5001"/>
</g>
<!-- job_color_from -->
<!-- job_color -->
<g id="node4" class="node"><title>job_color</title>
<text text-anchor="middle" x="109" y="-51.3" font-family="Times,serif" font-size="14.00" fill="#8800cc">Job Queue</text>
</g>
<!-- job_color_from&#45;&gt;job_color -->
<g id="edge2" class="edge"><title>job_color_from&#45;&gt;job_color</title>
<path fill="none" stroke="#8800cc" d="M2.07683,-55C3.79653,-55 34.0783,-55 61.8233,-55"/>
<polygon fill="#8800cc" stroke="#8800cc" points="61.8729,-58.5001 71.8728,-55 61.8728,-51.5001 61.8729,-58.5001"/>
</g>
<!-- web_color_from -->
<!-- web_color -->
<g id="node6" class="node"><title>web_color</title>
<text text-anchor="middle" x="109" y="-88.3" font-family="Times,serif" font-size="14.00">Web traffic</text>
</g>
<!-- web_color_from&#45;&gt;web_color -->
<g id="edge3" class="edge"><title>web_color_from&#45;&gt;web_color</title>
<path fill="none" stroke="black" d="M2.07683,-92C3.7334,-92 31.8935,-92 58.759,-92"/>
<polygon fill="black" stroke="black" points="58.9341,-95.5001 68.9341,-92 58.9341,-88.5001 58.9341,-95.5001"/>
</g>
<!-- fancy_from -->
<!-- fancy -->
<g id="node8" class="node"><title>fancy</title>
<text text-anchor="middle" x="109" y="-149.3" font-family="Times,serif" font-size="14.00">Fancy routing</text>
<text text-anchor="middle" x="109" y="-134.3" font-family="Times,serif" font-size="14.00">Consistent hashing or</text>
<text text-anchor="middle" x="109" y="-119.3" font-family="Times,serif" font-size="14.00">otherwise intelligent</text>
</g>
<!-- fancy_from&#45;&gt;fancy -->
<g id="edge4" class="edge"><title>fancy_from&#45;&gt;fancy</title>
<polygon fill="black" stroke="none" stroke-width="10" points="2.07683,-143 2.396,-142.96 2.95356,-142.89 3.73919,-142.792 4.74257,-142.666 5.9534,-142.514 7.36135,-142.338 8.95611,-142.138 10.7274,-141.916 12.6648,-141.674 14.7581,-141.412 16.9969,-141.131 19.371,-140.834 21.8699,-140.521 24.4835,-140.193 27.2014,-139.853 30.0132,-139.501 32.9087,-139.138 35.8775,-138.766 38.9093,-138.386 41.9938,-138 41.9938,-138 38.9093,-137.614 35.8775,-137.234 32.9087,-136.862 30.0132,-136.499 27.2014,-136.147 24.4835,-135.807 21.8699,-135.479 19.371,-135.166 16.9969,-134.869 14.7581,-134.588 12.6648,-134.326 10.7274,-134.084 8.95611,-133.862 7.36135,-133.662 5.9534,-133.486 4.74257,-133.334 3.73919,-133.208 2.95356,-133.11 2.396,-133.04 2.07683,-133 2.07683,-143"/>
</g>
<!-- disabled_from -->
<!-- disabled -->
<g id="node10" class="node"><title>disabled</title>
<text text-anchor="middle" x="109" y="-188.8" font-family="Times,serif" font-size="14.00">Theoretical</text>
<text text-anchor="middle" x="109" y="-173.8" font-family="Times,serif" font-size="14.00">Currently disabled</text>
</g>
<!-- disabled_from&#45;&gt;disabled -->
<g id="edge5" class="edge"><title>disabled_from&#45;&gt;disabled</title>
<path fill="none" stroke="black" stroke-dasharray="5,2" d="M2.07683,-185C3.35367,-185 20.3762,-185 40.4152,-185"/>
<polygon fill="black" stroke="black" points="40.439,-188.5 50.439,-185 40.439,-181.5 40.439,-188.5"/>
</g>
<!-- noraml_from -->
<!-- normal -->
<g id="node12" class="node"><title>normal</title>
<text text-anchor="middle" x="109" y="-227.8" font-family="Times,serif" font-size="14.00">Normal load balancing</text>
<text text-anchor="middle" x="109" y="-212.8" font-family="Times,serif" font-size="14.00">LVS and round robin</text>
</g>
<!-- noraml_from&#45;&gt;normal -->
<g id="edge6" class="edge"><title>noraml_from&#45;&gt;normal</title>
<path fill="none" stroke="black" d="M2.07683,-224C3.07009,-224 13.5916,-224 27.6493,-224"/>
<polygon fill="black" stroke="black" points="27.8729,-227.5 37.8729,-224 27.8729,-220.5 27.8729,-227.5"/>
</g>
</g>
</svg>
